<?xml version="1.0" encoding="UTF-8" standalone="no"?>
<!-- Created with Inkscape (http://www.inkscape.org/) -->

<svg
   width="22.740061mm"
   height="37.793091mm"
   viewBox="0 0 22.740061 37.793091"
   version="1.1"
   id="svg25382"
   inkscape:version="1.2.2 (b0a8486541, 2022-12-01)"
   sodipodi:docname="03.svg"
   xmlns:inkscape="http://www.inkscape.org/namespaces/inkscape"
   xmlns:sodipodi="http://sodipodi.sourceforge.net/DTD/sodipodi-0.dtd"
   xmlns="http://www.w3.org/2000/svg"
   xmlns:svg="http://www.w3.org/2000/svg">
  <sodipodi:namedview
     id="namedview25384"
     pagecolor="#ffffff"
     bordercolor="#000000"
     borderopacity="0.25"
     inkscape:showpageshadow="2"
     inkscape:pageopacity="0.0"
     inkscape:pagecheckerboard="0"
     inkscape:deskcolor="#d1d1d1"
     inkscape:document-units="mm"
     showgrid="false"
     inkscape:zoom="0.69664703"
     inkscape:cx="101.19903"
     inkscape:cy="136.36748"
     inkscape:window-width="1920"
     inkscape:window-height="1011"
     inkscape:window-x="0"
     inkscape:window-y="0"
     inkscape:window-maximized="1"
     inkscape:current-layer="layer1" />
  <defs
     id="defs25379" />
  <g
     inkscape:label="Layer 1"
     inkscape:groupmode="layer"
     id="layer1"
     transform="translate(-78.26168,-112.51266)">
    <path
       d="m 90.12913,150.30575 c -2.22603,0 -4.21217,-0.40923 -5.96195,-1.22414 -1.74625,-0.81139 -3.13972,-1.9932 -4.17688,-3.53836 -1.03364,-1.54517 -1.6122,-3.41137 -1.72862,-5.60212 h 7.20373 c 0.17286,1.13595 0.59619,2.02142 1.27705,2.64937 0.67733,0.62794 1.55222,0.94191 2.62114,0.94191 1.32292,0 2.34597,-0.37041 3.06917,-1.10772 0.71966,-0.74083 1.08302,-1.778 1.08302,-3.12208 v -0.86431 c 0,-1.41111 -0.2928,-2.49767 -0.87841,-3.25967 -0.58561,-0.76552 -1.4217,-1.14652 -2.50825,-1.14652 h -3.13267 v -6.72395 h 3.13267 c 0.88194,0 1.56633,-0.33514 2.04964,-1.00541 0.4833,-0.67028 0.72319,-1.60867 0.72319,-2.81517 v -0.635 c 0,-1.13595 -0.26458,-2.01436 -0.8008,-2.63525 -0.53623,-0.62089 -1.28764,-0.93133 -2.25425,-0.93133 -0.9525,0 -1.76037,0.3563 -2.43064,1.06891 -0.67028,0.71614 -1.12536,1.72509 -1.36173,3.03389 h -7.18255 c 0.30692,-3.44664 1.50283,-6.12069 3.59128,-8.02216 2.08844,-1.90148 4.6355,-2.85398 7.63764,-2.85398 3.2773,0 5.81025,0.83609 7.60236,2.50825 1.79211,1.67217 2.68816,4.04636 2.68816,7.11906 v 1.1183 c 0,1.71803 -0.43391,3.21028 -1.29822,4.48381 -0.86783,1.27353 -2.09903,2.2225 -3.69358,2.85397 1.78153,0.4057 3.16089,1.34056 4.13808,2.80106 0.9772,1.4605 1.46403,3.31964 1.46403,5.57741 v 1.11831 c 0,3.24203 -0.9525,5.75733 -2.85045,7.53886 -1.90147,1.78153 -4.57905,2.67406 -8.02216,2.67406"
       style="fill:#ffffff;fill-opacity:1;fill-rule:nonzero;stroke:none;stroke-width:0.0352778"
       id="path612" />
  </g>
</svg>
