<?xml version="1.0" encoding="UTF-8" standalone="no"?>
<!-- Created with Inkscape (http://www.inkscape.org/) -->

<svg
   width="23.480537mm"
   height="37.793079mm"
   viewBox="0 0 23.480537 37.793079"
   version="1.1"
   id="svg35173"
   inkscape:version="1.2.2 (b0a8486541, 2022-12-01)"
   sodipodi:docname="08.svg"
   xmlns:inkscape="http://www.inkscape.org/namespaces/inkscape"
   xmlns:sodipodi="http://sodipodi.sourceforge.net/DTD/sodipodi-0.dtd"
   xmlns="http://www.w3.org/2000/svg"
   xmlns:svg="http://www.w3.org/2000/svg">
  <sodipodi:namedview
     id="namedview35175"
     pagecolor="#ffffff"
     bordercolor="#000000"
     borderopacity="0.25"
     inkscape:showpageshadow="2"
     inkscape:pageopacity="0.0"
     inkscape:pagecheckerboard="0"
     inkscape:deskcolor="#d1d1d1"
     inkscape:document-units="mm"
     showgrid="false"
     inkscape:zoom="0.69664703"
     inkscape:cx="45.216586"
     inkscape:cy="-28.708943"
     inkscape:window-width="1920"
     inkscape:window-height="1011"
     inkscape:window-x="0"
     inkscape:window-y="0"
     inkscape:window-maximized="1"
     inkscape:current-layer="layer1" />
  <defs
     id="defs35170" />
  <g
     inkscape:label="Layer 1"
     inkscape:groupmode="layer"
     id="layer1"
     transform="translate(-93.463052,-156.18914)">
    <path
       d="m 105.20244,171.36917 c 1.20579,0 2.17346,-0.38453 2.90407,-1.14653 0.72919,-0.76553 1.09431,-1.78506 1.09431,-3.05858 v -0.35631 c 0,-1.17122 -0.36512,-2.11314 -1.09431,-2.82575 -0.73061,-0.71261 -1.69828,-1.06892 -2.90407,-1.06892 -1.18745,0 -2.15159,0.35631 -2.88996,1.06892 -0.73836,0.71261 -1.10701,1.66511 -1.10701,2.85397 v 0.381 c 0,1.23825 0.36865,2.24014 1.10701,3.00567 0.73837,0.762 1.70251,1.14653 2.88996,1.14653 z m 0,15.88911 c 1.42698,0 2.57739,-0.41981 3.45193,-1.25942 0.87312,-0.83961 1.31127,-1.94733 1.31127,-3.32317 v -0.3563 c 0,-1.25589 -0.43815,-2.26836 -1.31127,-3.03036 -0.87454,-0.76553 -2.02495,-1.14653 -3.45193,-1.14653 -1.42558,0 -2.57563,0.381 -3.45017,1.14653 -0.87453,0.762 -1.31127,1.78152 -1.31127,3.05505 v 0.381 c 0,1.3582 0.43674,2.45534 1.31127,3.28436 0.87454,0.83256 2.02459,1.24884 3.45017,1.24884 z m 0,6.72394 c -2.35903,0 -4.41784,-0.42333 -6.175024,-1.27353 -1.756833,-0.85019 -3.123847,-2.04611 -4.100336,-3.59127 -0.976489,-1.54517 -1.464028,-3.35139 -1.464028,-5.4222 v -0.61383 c 0,-1.84856 0.509411,-3.59128 1.527528,-5.22111 1.018469,-1.62984 2.377369,-2.86103 4.075641,-3.69006 -1.443919,-0.71261 -2.611261,-1.73214 -3.50273,-3.05858 -0.890764,-1.32292 -1.336675,-2.7305 -1.336675,-4.22628 v -0.96661 c 0,-2.93864 1.001889,-5.29519 3.005314,-7.06614 2.003072,-1.77447 4.66055,-2.66347 7.97031,-2.66347 3.31117,0 5.96865,0.889 7.97207,2.66347 2.00307,1.77095 3.00461,4.1275 3.00461,7.06614 v 0.96661 c 0,1.52753 -0.4505,2.94922 -1.34973,4.26508 -0.89958,1.31587 -2.08844,2.32128 -3.56517,3.01978 1.7152,0.82903 3.08998,2.06022 4.12538,3.69006 1.03576,1.62983 1.55399,3.37255 1.55399,5.22111 v 0.61383 c 0,2.07081 -0.48895,3.87703 -1.46438,5.4222 -0.97649,1.54516 -2.34351,2.74108 -4.10034,3.59127 -1.75718,0.8502 -3.816,1.27353 -6.17643,1.27353"
       style="fill:#ffffff;fill-opacity:1;fill-rule:nonzero;stroke:none;stroke-width:0.0352778"
       id="path600" />
  </g>
</svg>
