<?xml version="1.0" encoding="UTF-8" standalone="no"?>
<!-- Created with Inkscape (http://www.inkscape.org/) -->

<svg
   width="21.67255mm"
   height="37.408558mm"
   viewBox="0 0 21.67255 37.408558"
   version="1.1"
   id="svg40454"
   inkscape:version="1.2.2 (b0a8486541, 2022-12-01)"
   sodipodi:docname="09.svg"
   xmlns:inkscape="http://www.inkscape.org/namespaces/inkscape"
   xmlns:sodipodi="http://sodipodi.sourceforge.net/DTD/sodipodi-0.dtd"
   xmlns="http://www.w3.org/2000/svg"
   xmlns:svg="http://www.w3.org/2000/svg">
  <sodipodi:namedview
     id="namedview40456"
     pagecolor="#ffffff"
     bordercolor="#000000"
     borderopacity="0.25"
     inkscape:showpageshadow="2"
     inkscape:pageopacity="0.0"
     inkscape:pagecheckerboard="0"
     inkscape:deskcolor="#d1d1d1"
     inkscape:document-units="mm"
     showgrid="false"
     inkscape:zoom="0.69664703"
     inkscape:cx="-152.87512"
     inkscape:cy="223.92976"
     inkscape:window-width="1920"
     inkscape:window-height="1011"
     inkscape:window-x="0"
     inkscape:window-y="0"
     inkscape:window-maximized="1"
     inkscape:current-layer="layer1" />
  <defs
     id="defs40451" />
  <g
     inkscape:label="Layer 1"
     inkscape:groupmode="layer"
     id="layer1"
     transform="translate(-146.01923,-89.157612)">
    <path
       d="m 156.8682,104.84565 c 1.22273,0 2.16888,-0.39512 2.83986,-1.18534 0.67028,-0.79022 1.00612,-1.905 1.00612,-3.34786 v -0.0282 c 0,-1.389944 -0.33584,-2.462389 -1.00612,-3.220861 -0.67098,-0.754944 -1.61713,-1.132416 -2.83986,-1.132416 -1.23931,0 -2.19428,0.381 -2.86456,1.146527 -0.67098,0.762 -1.00612,1.8415 -1.00612,3.23497 v 0.0247 c 0,1.44286 0.33514,2.55411 1.00612,3.33728 0.67028,0.77964 1.62525,1.17122 2.86456,1.17122 z m -5.78097,21.72052 8.04792,-18.38677 1.24778,0.91722 c -0.44204,0.8008 -1.09538,1.37583 -1.9611,1.73214 -0.86571,0.3563 -1.8676,0.53622 -3.00496,0.53622 -2.81869,0 -5.08952,-0.99131 -6.81249,-2.96686 -1.72367,-1.97909 -2.58515,-4.60728 -2.58515,-7.88459 v -0.0247 c 0,-3.598329 0.94685,-6.385273 2.83986,-8.364357 1.893,-1.979083 4.56247,-2.966861 8.00911,-2.966861 3.44664,0 6.11223,0.998361 7.99677,2.991556 1.88454,1.996722 2.82681,4.818944 2.82681,8.466662 v 0.0282 c 0,1.50989 -0.25083,3.12562 -0.75107,4.8507 -0.5013,1.72155 -1.11654,3.45722 -1.84644,5.207 l -6.62164,15.86442 h -7.3854"
       style="fill:#ffffff;fill-opacity:1;fill-rule:nonzero;stroke:none;stroke-width:0.0352778"
       id="path590" />
  </g>
</svg>
