<?xml version="1.0" encoding="UTF-8" standalone="no"?>
<!-- Created with Inkscape (http://www.inkscape.org/) -->

<svg
   width="41.969971mm"
   height="37.793079mm"
   viewBox="0 0 41.969971 37.793079"
   version="1.1"
   id="svg11268"
   inkscape:version="1.2.2 (b0a8486541, 2022-12-01)"
   sodipodi:docname="18.svg"
   xmlns:inkscape="http://www.inkscape.org/namespaces/inkscape"
   xmlns:sodipodi="http://sodipodi.sourceforge.net/DTD/sodipodi-0.dtd"
   xmlns="http://www.w3.org/2000/svg"
   xmlns:svg="http://www.w3.org/2000/svg">
  <sodipodi:namedview
     id="namedview11270"
     pagecolor="#ffffff"
     bordercolor="#000000"
     borderopacity="0.25"
     inkscape:showpageshadow="2"
     inkscape:pageopacity="0.0"
     inkscape:pagecheckerboard="0"
     inkscape:deskcolor="#d1d1d1"
     inkscape:document-units="mm"
     showgrid="false"
     inkscape:zoom="0.69664703"
     inkscape:cx="-349.53139"
     inkscape:cy="63.159675"
     inkscape:window-width="1920"
     inkscape:window-height="1011"
     inkscape:window-x="0"
     inkscape:window-y="0"
     inkscape:window-maximized="1"
     inkscape:current-layer="layer1" />
  <defs
     id="defs11265" />
  <g
     inkscape:label="Layer 1"
     inkscape:groupmode="layer"
     id="layer1"
     transform="translate(-197.77716,-131.88223)">
    <path
       d="m 209.26361,132.26676 v 37.02755 h -6.97795 v -28.82899 l -4.5085,1.70744 v -7.41186 l 5.52803,-2.49414 h 5.95842"
       style="fill:#ffffff;fill-opacity:1;fill-rule:nonzero;stroke:none;stroke-width:0.0352778"
       id="path634" />
    <path
       d="m 228.00669,147.06226 c 1.2065,0 2.17311,-0.381 2.90336,-1.14653 0.73025,-0.76553 1.09361,-1.78153 1.09361,-3.05505 v -0.35631 c 0,-1.17475 -0.36336,-2.11667 -1.09361,-2.82928 -0.73025,-0.71261 -1.69686,-1.06891 -2.90336,-1.06891 -1.18886,0 -2.15195,0.3563 -2.88925,1.06891 -0.74083,0.71261 -1.10772,1.66511 -1.10772,2.85398 v 0.381 c 0,1.24177 0.36689,2.24013 1.10772,3.00566 0.7373,0.76553 1.70039,1.14653 2.88925,1.14653 z m 0,15.88911 c 1.42522,0 2.57528,-0.41981 3.45017,-1.25942 0.87488,-0.83961 1.31233,-1.94733 1.31233,-3.32316 v -0.35631 c 0,-1.25589 -0.43745,-2.26836 -1.31233,-3.03036 -0.87489,-0.76553 -2.02495,-1.14653 -3.45017,-1.14653 -1.42522,0 -2.57881,0.381 -3.45017,1.14653 -0.87489,0.762 -1.31233,1.78153 -1.31233,3.05506 v 0.381 c 0,1.36172 0.43744,2.45533 1.31233,3.28788 0.87136,0.83256 2.02495,1.24531 3.45017,1.24531 z m 0,6.72394 c -2.36008,0 -4.42031,-0.42333 -6.17714,-1.27352 -1.75683,-0.84667 -3.12208,-2.04611 -4.09928,-3.59128 -0.97719,-1.54517 -1.46403,-3.35139 -1.46403,-5.42219 v -0.61384 c 0,-1.84855 0.508,-3.58775 1.52753,-5.21758 1.01953,-1.62983 2.37772,-2.86103 4.07459,-3.69358 -1.44287,-0.71261 -2.61056,-1.73214 -3.50309,-3.05506 -0.889,-1.32644 -1.33703,-2.73403 -1.33703,-4.2298 v -0.96662 c 0,-2.93864 1.00189,-5.29166 3.00567,-7.06614 2.00378,-1.77447 4.6602,-2.66347 7.97278,-2.66347 3.30905,0 5.969,0.889 7.96925,2.66347 2.00378,1.77448 3.00567,4.1275 3.00567,7.06614 v 0.96662 c 0,1.52752 -0.44803,2.94922 -1.34762,4.26508 -0.90311,1.31586 -2.08844,2.3248 -3.56658,3.01978 1.7145,0.83255 3.09033,2.06375 4.12397,3.69358 1.03717,1.62983 1.55575,3.36903 1.55575,5.21758 v 0.61384 c 0,2.0708 -0.49036,3.87702 -1.46402,5.42219 -0.9772,1.54517 -2.34245,2.74461 -4.10281,3.59128 -1.75683,0.85019 -3.81353,1.27352 -6.17361,1.27352"
       style="fill:#ffffff;fill-opacity:1;fill-rule:nonzero;stroke:none;stroke-width:0.0352778"
       id="path636" />
  </g>
</svg>
