<?xml version="1.0" encoding="UTF-8" standalone="no"?>
<!-- Created with Inkscape (http://www.inkscape.org/) -->

<svg
   width="52.648613mm"
   height="52.655605mm"
   viewBox="0 0 52.648613 52.655605"
   version="1.1"
   id="svg16215"
   sodipodi:docname="bull_25.svg"
   inkscape:version="1.2.2 (b0a8486541, 2022-12-01)"
   xmlns:inkscape="http://www.inkscape.org/namespaces/inkscape"
   xmlns:sodipodi="http://sodipodi.sourceforge.net/DTD/sodipodi-0.dtd"
   xmlns="http://www.w3.org/2000/svg"
   xmlns:svg="http://www.w3.org/2000/svg">
  <sodipodi:namedview
     id="namedview16217"
     pagecolor="#ffffff"
     bordercolor="#000000"
     borderopacity="0.25"
     inkscape:showpageshadow="2"
     inkscape:pageopacity="0.0"
     inkscape:pagecheckerboard="0"
     inkscape:deskcolor="#d1d1d1"
     inkscape:document-units="mm"
     showgrid="false"
     inkscape:zoom="3.9408307"
     inkscape:cx="78.156111"
     inkscape:cy="92.366313"
     inkscape:window-width="1920"
     inkscape:window-height="1011"
     inkscape:window-x="0"
     inkscape:window-y="0"
     inkscape:window-maximized="1"
     inkscape:current-layer="layer1" />
  <defs
     id="defs16212" />
  <g
     inkscape:label="Layer 1"
     inkscape:groupmode="layer"
     id="layer1"
     transform="translate(-119.89695,-111.91772)">
    <path
       d="m 137.90978,130.09988 -10.17411,-9.97303 c -1.89441,1.9297 -3.48544,4.1522 -4.699,6.59695 -1.18886,2.39536 -2.02141,4.9918 -2.42005,7.73289 l 14.09347,2.08491 11.51114,1.70745 z m 0,0 -10.17411,-9.97303 c -1.89441,1.9297 -3.48544,4.1522 -4.699,6.59695 -1.18886,2.39536 -2.02141,4.9918 -2.42005,7.73289 h -0.007 c -0.17991,1.23472 -0.27164,2.50119 -0.27164,3.79236 0,1.4605 0.11995,2.90336 0.35984,4.30036 0.45155,2.7305 1.3335,5.3093 2.5788,7.67997 1.25942,2.41653 2.89278,4.61081 4.826,6.50522 1.92617,1.88736 4.1522,3.47839 6.59695,4.69195 l 6.34294,-12.75292 5.17878,-10.42458 z m 33.83492,3.84528 -14.04761,2.36714 -11.47586,1.93675 10.42458,5.17878 12.75997,6.34294 c 1.18886,-2.39183 2.02142,-4.98828 2.42006,-7.72936 0.18697,-1.23825 0.27869,-2.50472 0.27869,-3.79236 0,-1.46403 -0.11994,-2.90336 -0.35983,-4.30389 z m 0,0 -14.04761,2.36714 -11.47586,1.93675 10.42458,5.17878 12.75997,6.34294 c 1.18886,-2.39183 2.02142,-4.98828 2.42006,-7.72936 0.18697,-1.23825 0.27869,-2.50472 0.27869,-3.79236 0,-1.46403 -0.11994,-2.90336 -0.35983,-4.30389 z m 0,0 -14.04761,2.36714 -11.47586,1.93675 10.42458,5.17878 12.75997,6.34294 c 1.18886,-2.39183 2.02142,-4.98828 2.42006,-7.72936 0.18697,-1.23825 0.27869,-2.50472 0.27869,-3.79236 0,-1.46403 -0.11994,-2.90336 -0.35983,-4.30389 z m 0,0 -14.04761,2.36714 -11.47586,1.93675 10.42458,5.17878 12.75997,6.34294 c 1.18886,-2.39183 2.02142,-4.98828 2.42006,-7.72936 0.18697,-1.23825 0.27869,-2.50472 0.27869,-3.79236 0,-1.46403 -0.11994,-2.90336 -0.35983,-4.30389 z m 0,0 -14.04761,2.36714 -11.47586,1.93675 10.42458,5.17878 12.75997,6.34294 c 1.18886,-2.39183 2.02142,-4.98828 2.42006,-7.72936 0.18697,-1.23825 0.27869,-2.50472 0.27869,-3.79236 0,-1.46403 -0.11994,-2.90336 -0.35983,-4.30389 z m 0,0 -14.04761,2.36714 -11.47586,1.93675 10.42458,5.17878 12.75997,6.34294 c 1.18886,-2.39183 2.02142,-4.98828 2.42006,-7.72936 0.18697,-1.23825 0.27869,-2.50472 0.27869,-3.79236 0,-1.46403 -0.11994,-2.90336 -0.35983,-4.30389 z m 0,0 -14.04761,2.36714 -11.47586,1.93675 10.42458,5.17878 12.75997,6.34294 c 1.18886,-2.39183 2.02142,-4.98828 2.42006,-7.72936 0.18697,-1.23825 0.27869,-2.50472 0.27869,-3.79236 0,-1.46403 -0.11994,-2.90336 -0.35983,-4.30389 z m 0,0 -14.04761,2.36714 -11.47586,1.93675 10.42458,5.17878 12.75997,6.34294 c 1.18886,-2.39183 2.02142,-4.98828 2.42006,-7.72936 0.18697,-1.23825 0.27869,-2.50472 0.27869,-3.79236 0,-1.46403 -0.11994,-2.90336 -0.35983,-4.30389 z m 0,0 -14.04761,2.36714 -11.47586,1.93675 10.42458,5.17878 12.75997,6.34294 c 1.18886,-2.39183 2.02142,-4.98828 2.42006,-7.72936 0.18697,-1.23825 0.27869,-2.50472 0.27869,-3.79236 0,-1.46403 -0.11994,-2.90336 -0.35983,-4.30389 z m 0,0 -14.04761,2.36714 -11.47586,1.93675 10.42458,5.17878 12.75997,6.34294 c 1.18886,-2.39183 2.02142,-4.98828 2.42006,-7.72936 0.18697,-1.23825 0.27869,-2.50472 0.27869,-3.79236 0,-1.46403 -0.11994,-2.90336 -0.35983,-4.30389 z m 0,0 -14.04761,2.36714 -11.47586,1.93675 10.42458,5.17878 12.75997,6.34294 c 1.18886,-2.39183 2.02142,-4.98828 2.42006,-7.72936 0.18697,-1.23825 0.27869,-2.50472 0.27869,-3.79236 0,-1.46403 -0.11994,-2.90336 -0.35983,-4.30389 z m 0,0 -14.04761,2.36714 -11.47586,1.93675 10.42458,5.17878 12.75997,6.34294 c 1.18886,-2.39183 2.02142,-4.98828 2.42006,-7.72936 0.18697,-1.23825 0.27869,-2.50472 0.27869,-3.79236 0,-1.46403 -0.11994,-2.90336 -0.35983,-4.30389 z m 0,0 -14.04761,2.36714 -11.47586,1.93675 10.42458,5.17878 12.75997,6.34294 c 1.18886,-2.39183 2.02142,-4.98828 2.42006,-7.72936 0.18697,-1.23825 0.27869,-2.50472 0.27869,-3.79236 0,-1.46403 -0.11994,-2.90336 -0.35983,-4.30389 z m 0,0 -14.04761,2.36714 -11.47586,1.93675 10.42458,5.17878 12.75997,6.34294 c 1.18886,-2.39183 2.02142,-4.98828 2.42006,-7.72936 0.18697,-1.23825 0.27869,-2.50472 0.27869,-3.79236 0,-1.46403 -0.11994,-2.90336 -0.35983,-4.30389 z m 0,0 -14.04761,2.36714 -11.47586,1.93675 10.42458,5.17878 12.75997,6.34294 c 1.18886,-2.39183 2.02142,-4.98828 2.42006,-7.72936 0.18697,-1.23825 0.27869,-2.50472 0.27869,-3.79236 0,-1.46403 -0.11994,-2.90336 -0.35983,-4.30389 z m 0,0 -14.04761,2.36714 -11.47586,1.93675 10.42458,5.17878 12.75997,6.34294 c 1.18886,-2.39183 2.02142,-4.98828 2.42006,-7.72936 0.18697,-1.23825 0.27869,-2.50472 0.27869,-3.79236 0,-1.46403 -0.11994,-2.90336 -0.35983,-4.30389 z m -2.57881,-7.67997 c -1.25941,-2.413 -2.89277,-4.61081 -4.826,-6.5017 l -9.9695,10.17411 -8.14916,8.31145 11.47586,-1.93675 14.04761,-2.36714 c -0.45156,-2.7305 -1.3335,-5.30931 -2.57881,-7.67997 z m 0,0 c -1.25941,-2.413 -2.89277,-4.61081 -4.826,-6.5017 l -9.9695,10.17411 -8.14916,8.31145 11.47586,-1.93675 14.04761,-2.36714 c -0.45156,-2.7305 -1.3335,-5.30931 -2.57881,-7.67997 z m 0,0 c -1.25941,-2.413 -2.89277,-4.61081 -4.826,-6.5017 l -9.9695,10.17411 -8.14916,8.31145 11.47586,-1.93675 14.04761,-2.36714 c -0.45156,-2.7305 -1.3335,-5.30931 -2.57881,-7.67997 z m 0,0 c -1.25941,-2.413 -2.89277,-4.61081 -4.826,-6.5017 l -9.9695,10.17411 -8.14916,8.31145 11.47586,-1.93675 14.04761,-2.36714 c -0.45156,-2.7305 -1.3335,-5.30931 -2.57881,-7.67997 z m 0,0 c -1.25941,-2.413 -2.89277,-4.61081 -4.826,-6.5017 l -9.9695,10.17411 -8.14916,8.31145 11.47586,-1.93675 14.04761,-2.36714 c -0.45156,-2.7305 -1.3335,-5.30931 -2.57881,-7.67997 z m 0,0 c -1.25941,-2.413 -2.89277,-4.61081 -4.826,-6.5017 l -9.9695,10.17411 -8.14916,8.31145 11.47586,-1.93675 14.04761,-2.36714 c -0.45156,-2.7305 -1.3335,-5.30931 -2.57881,-7.67997 z m 0,0 c -1.25941,-2.413 -2.89277,-4.61081 -4.826,-6.5017 l -9.9695,10.17411 -8.14916,8.31145 11.47586,-1.93675 14.04761,-2.36714 c -0.45156,-2.7305 -1.3335,-5.30931 -2.57881,-7.67997 z m 0,0 c -1.25941,-2.413 -2.89277,-4.61081 -4.826,-6.5017 l -9.9695,10.17411 -8.14916,8.31145 11.47586,-1.93675 14.04761,-2.36714 c -0.45156,-2.7305 -1.3335,-5.30931 -2.57881,-7.67997 z m 0,0 c -1.25941,-2.413 -2.89277,-4.61081 -4.826,-6.5017 l -9.9695,10.17411 -8.14916,8.31145 11.47586,-1.93675 14.04761,-2.36714 c -0.45156,-2.7305 -1.3335,-5.30931 -2.57881,-7.67997 z m 0,0 c -1.25941,-2.413 -2.89277,-4.61081 -4.826,-6.5017 l -9.9695,10.17411 -8.14916,8.31145 11.47586,-1.93675 14.04761,-2.36714 c -0.45156,-2.7305 -1.3335,-5.30931 -2.57881,-7.67997 z m 0,0 c -1.25941,-2.413 -2.89277,-4.61081 -4.826,-6.5017 l -9.9695,10.17411 -8.14916,8.31145 11.47586,-1.93675 14.04761,-2.36714 c -0.45156,-2.7305 -1.3335,-5.30931 -2.57881,-7.67997 z m 0,0 c -1.25941,-2.413 -2.89277,-4.61081 -4.826,-6.5017 l -9.9695,10.17411 -8.14916,8.31145 11.47586,-1.93675 14.04761,-2.36714 c -0.45156,-2.7305 -1.3335,-5.30931 -2.57881,-7.67997 z m 0,0 c -1.25941,-2.413 -2.89277,-4.61081 -4.826,-6.5017 l -9.9695,10.17411 -8.14916,8.31145 11.47586,-1.93675 14.04761,-2.36714 c -0.45156,-2.7305 -1.3335,-5.30931 -2.57881,-7.67997 z m 0,0 c -1.25941,-2.413 -2.89277,-4.61081 -4.826,-6.5017 l -9.9695,10.17411 -8.14916,8.31145 11.47586,-1.93675 14.04761,-2.36714 c -0.45156,-2.7305 -1.3335,-5.30931 -2.57881,-7.67997 z m 0,0 c -1.25941,-2.413 -2.89277,-4.61081 -4.826,-6.5017 l -9.9695,10.17411 -8.14916,8.31145 11.47586,-1.93675 14.04761,-2.36714 c -0.45156,-2.7305 -1.3335,-5.30931 -2.57881,-7.67997 z m 0,0 c -1.25941,-2.413 -2.89277,-4.61081 -4.826,-6.5017 l -9.9695,10.17411 -8.14916,8.31145 11.47586,-1.93675 14.04761,-2.36714 c -0.45156,-2.7305 -1.3335,-5.30931 -2.57881,-7.67997 z m 0,0 c -1.25941,-2.413 -2.89277,-4.61081 -4.826,-6.5017 l -9.9695,10.17411 -8.14916,8.31145 11.47586,-1.93675 14.04761,-2.36714 c -0.45156,-2.7305 -1.3335,-5.30931 -2.57881,-7.67997 z m 2.57881,7.67997 c -0.45156,-2.7305 -1.3335,-5.30931 -2.57881,-7.67997 -1.25941,-2.413 -2.89277,-4.61081 -4.826,-6.5017 -1.92616,-1.89441 -4.15219,-3.48544 -6.59694,-4.699 -2.38478,-1.19591 -4.98122,-2.02847 -7.72231,-2.42711 -1.2453,-0.18697 -2.51177,-0.27869 -3.79941,-0.27869 -1.46403,0 -2.90336,0.11994 -4.30389,0.35983 -2.7305,0.45156 -5.31283,1.3335 -7.6835,2.57881 -2.41653,1.26647 -4.61081,2.8963 -6.49817,4.82952 -1.89441,1.9297 -3.48544,4.1522 -4.699,6.59695 -1.18886,2.39536 -2.02141,4.9918 -2.42005,7.73289 h -0.007 c -0.17991,1.23472 -0.27164,2.50119 -0.27164,3.79236 0,1.4605 0.11995,2.90336 0.35984,4.30036 0.45155,2.7305 1.3335,5.3093 2.5788,7.67997 1.25942,2.41653 2.89278,4.61081 4.826,6.50522 1.92617,1.88736 4.1522,3.47839 6.59695,4.69195 2.38477,1.19591 4.98827,2.02494 7.72936,2.42711 v 0.007 c 1.23825,0.17992 2.50472,0.27164 3.79236,0.27164 1.46403,0 2.90336,-0.12347 4.30389,-0.35983 2.7305,-0.45508 5.3093,-1.33703 7.67644,-2.57881 2.41653,-1.25941 4.61081,-2.89277 6.50522,-4.826 1.88736,-1.92969 3.47839,-4.15219 4.699,-6.59694 1.18886,-2.39183 2.02142,-4.98828 2.42006,-7.72936 0.18697,-1.23825 0.27869,-2.50472 0.27869,-3.79236 0,-1.46403 -0.11994,-2.90336 -0.35983,-4.30389 z m -33.83492,-3.84528 -10.17411,-9.97303 c -1.89441,1.9297 -3.48544,4.1522 -4.699,6.59695 -1.18886,2.39536 -2.02141,4.9918 -2.42005,7.73289 h -0.007 c -0.17991,1.23472 -0.27164,2.50119 -0.27164,3.79236 0,1.4605 0.11995,2.90336 0.35984,4.30036 0.45155,2.7305 1.3335,5.3093 2.5788,7.67997 l 12.62945,-6.59342 10.31522,-5.38691 z"
       style="fill:none;stroke:#e2cdcc;stroke-width:0.881944;stroke-linecap:butt;stroke-linejoin:miter;stroke-miterlimit:10;stroke-dasharray:none;stroke-opacity:1"
       id="path292" />
    <path
       d="m 137.90978,130.09988 -10.17411,-9.97303 c -1.89441,1.9297 -3.48544,4.1522 -4.699,6.59695 -1.18886,2.39536 -2.02141,4.9918 -2.42005,7.73289 l 14.09347,2.08491 11.51114,1.70745 z m 0,0 -10.17411,-9.97303 c -1.89441,1.9297 -3.48544,4.1522 -4.699,6.59695 -1.18886,2.39536 -2.02141,4.9918 -2.42005,7.73289 h -0.007 c -0.17991,1.23472 -0.27164,2.50119 -0.27164,3.79236 0,1.4605 0.11995,2.90336 0.35984,4.30036 0.45155,2.7305 1.3335,5.3093 2.5788,7.67997 1.25942,2.41653 2.89278,4.61081 4.826,6.50522 1.92617,1.88736 4.1522,3.47839 6.59695,4.69195 l 6.34294,-12.75292 5.17878,-10.42458 z m 33.83492,3.84528 -14.04761,2.36714 -11.47586,1.93675 10.42458,5.17878 12.75997,6.34294 c 1.18886,-2.39183 2.02142,-4.98828 2.42006,-7.72936 0.18697,-1.23825 0.27869,-2.50472 0.27869,-3.79236 0,-1.46403 -0.11994,-2.90336 -0.35983,-4.30389 z m 0,0 -14.04761,2.36714 -11.47586,1.93675 10.42458,5.17878 12.75997,6.34294 c 1.18886,-2.39183 2.02142,-4.98828 2.42006,-7.72936 0.18697,-1.23825 0.27869,-2.50472 0.27869,-3.79236 0,-1.46403 -0.11994,-2.90336 -0.35983,-4.30389 z m 0,0 -14.04761,2.36714 -11.47586,1.93675 10.42458,5.17878 12.75997,6.34294 c 1.18886,-2.39183 2.02142,-4.98828 2.42006,-7.72936 0.18697,-1.23825 0.27869,-2.50472 0.27869,-3.79236 0,-1.46403 -0.11994,-2.90336 -0.35983,-4.30389 z m 0,0 -14.04761,2.36714 -11.47586,1.93675 10.42458,5.17878 12.75997,6.34294 c 1.18886,-2.39183 2.02142,-4.98828 2.42006,-7.72936 0.18697,-1.23825 0.27869,-2.50472 0.27869,-3.79236 0,-1.46403 -0.11994,-2.90336 -0.35983,-4.30389 z m 0,0 -14.04761,2.36714 -11.47586,1.93675 10.42458,5.17878 12.75997,6.34294 c 1.18886,-2.39183 2.02142,-4.98828 2.42006,-7.72936 0.18697,-1.23825 0.27869,-2.50472 0.27869,-3.79236 0,-1.46403 -0.11994,-2.90336 -0.35983,-4.30389 z m 0,0 -14.04761,2.36714 -11.47586,1.93675 10.42458,5.17878 12.75997,6.34294 c 1.18886,-2.39183 2.02142,-4.98828 2.42006,-7.72936 0.18697,-1.23825 0.27869,-2.50472 0.27869,-3.79236 0,-1.46403 -0.11994,-2.90336 -0.35983,-4.30389 z m 0,0 -14.04761,2.36714 -11.47586,1.93675 10.42458,5.17878 12.75997,6.34294 c 1.18886,-2.39183 2.02142,-4.98828 2.42006,-7.72936 0.18697,-1.23825 0.27869,-2.50472 0.27869,-3.79236 0,-1.46403 -0.11994,-2.90336 -0.35983,-4.30389 z m 0,0 -14.04761,2.36714 -11.47586,1.93675 10.42458,5.17878 12.75997,6.34294 c 1.18886,-2.39183 2.02142,-4.98828 2.42006,-7.72936 0.18697,-1.23825 0.27869,-2.50472 0.27869,-3.79236 0,-1.46403 -0.11994,-2.90336 -0.35983,-4.30389 z m 0,0 -14.04761,2.36714 -11.47586,1.93675 10.42458,5.17878 12.75997,6.34294 c 1.18886,-2.39183 2.02142,-4.98828 2.42006,-7.72936 0.18697,-1.23825 0.27869,-2.50472 0.27869,-3.79236 0,-1.46403 -0.11994,-2.90336 -0.35983,-4.30389 z m 0,0 -14.04761,2.36714 -11.47586,1.93675 10.42458,5.17878 12.75997,6.34294 c 1.18886,-2.39183 2.02142,-4.98828 2.42006,-7.72936 0.18697,-1.23825 0.27869,-2.50472 0.27869,-3.79236 0,-1.46403 -0.11994,-2.90336 -0.35983,-4.30389 z m 0,0 -14.04761,2.36714 -11.47586,1.93675 10.42458,5.17878 12.75997,6.34294 c 1.18886,-2.39183 2.02142,-4.98828 2.42006,-7.72936 0.18697,-1.23825 0.27869,-2.50472 0.27869,-3.79236 0,-1.46403 -0.11994,-2.90336 -0.35983,-4.30389 z m 0,0 -14.04761,2.36714 -11.47586,1.93675 10.42458,5.17878 12.75997,6.34294 c 1.18886,-2.39183 2.02142,-4.98828 2.42006,-7.72936 0.18697,-1.23825 0.27869,-2.50472 0.27869,-3.79236 0,-1.46403 -0.11994,-2.90336 -0.35983,-4.30389 z m 0,0 -14.04761,2.36714 -11.47586,1.93675 10.42458,5.17878 12.75997,6.34294 c 1.18886,-2.39183 2.02142,-4.98828 2.42006,-7.72936 0.18697,-1.23825 0.27869,-2.50472 0.27869,-3.79236 0,-1.46403 -0.11994,-2.90336 -0.35983,-4.30389 z m 0,0 -14.04761,2.36714 -11.47586,1.93675 10.42458,5.17878 12.75997,6.34294 c 1.18886,-2.39183 2.02142,-4.98828 2.42006,-7.72936 0.18697,-1.23825 0.27869,-2.50472 0.27869,-3.79236 0,-1.46403 -0.11994,-2.90336 -0.35983,-4.30389 z m 0,0 -14.04761,2.36714 -11.47586,1.93675 10.42458,5.17878 12.75997,6.34294 c 1.18886,-2.39183 2.02142,-4.98828 2.42006,-7.72936 0.18697,-1.23825 0.27869,-2.50472 0.27869,-3.79236 0,-1.46403 -0.11994,-2.90336 -0.35983,-4.30389 z m 0,0 -14.04761,2.36714 -11.47586,1.93675 10.42458,5.17878 12.75997,6.34294 c 1.18886,-2.39183 2.02142,-4.98828 2.42006,-7.72936 0.18697,-1.23825 0.27869,-2.50472 0.27869,-3.79236 0,-1.46403 -0.11994,-2.90336 -0.35983,-4.30389 z m -2.57881,-7.67997 c -1.25941,-2.413 -2.89277,-4.61081 -4.826,-6.5017 l -9.9695,10.17411 -8.14916,8.31145 11.47586,-1.93675 14.04761,-2.36714 c -0.45156,-2.7305 -1.3335,-5.30931 -2.57881,-7.67997 z m 0,0 c -1.25941,-2.413 -2.89277,-4.61081 -4.826,-6.5017 l -9.9695,10.17411 -8.14916,8.31145 11.47586,-1.93675 14.04761,-2.36714 c -0.45156,-2.7305 -1.3335,-5.30931 -2.57881,-7.67997 z m 0,0 c -1.25941,-2.413 -2.89277,-4.61081 -4.826,-6.5017 l -9.9695,10.17411 -8.14916,8.31145 11.47586,-1.93675 14.04761,-2.36714 c -0.45156,-2.7305 -1.3335,-5.30931 -2.57881,-7.67997 z m 0,0 c -1.25941,-2.413 -2.89277,-4.61081 -4.826,-6.5017 l -9.9695,10.17411 -8.14916,8.31145 11.47586,-1.93675 14.04761,-2.36714 c -0.45156,-2.7305 -1.3335,-5.30931 -2.57881,-7.67997 z m 0,0 c -1.25941,-2.413 -2.89277,-4.61081 -4.826,-6.5017 l -9.9695,10.17411 -8.14916,8.31145 11.47586,-1.93675 14.04761,-2.36714 c -0.45156,-2.7305 -1.3335,-5.30931 -2.57881,-7.67997 z m 0,0 c -1.25941,-2.413 -2.89277,-4.61081 -4.826,-6.5017 l -9.9695,10.17411 -8.14916,8.31145 11.47586,-1.93675 14.04761,-2.36714 c -0.45156,-2.7305 -1.3335,-5.30931 -2.57881,-7.67997 z m 0,0 c -1.25941,-2.413 -2.89277,-4.61081 -4.826,-6.5017 l -9.9695,10.17411 -8.14916,8.31145 11.47586,-1.93675 14.04761,-2.36714 c -0.45156,-2.7305 -1.3335,-5.30931 -2.57881,-7.67997 z m 0,0 c -1.25941,-2.413 -2.89277,-4.61081 -4.826,-6.5017 l -9.9695,10.17411 -8.14916,8.31145 11.47586,-1.93675 14.04761,-2.36714 c -0.45156,-2.7305 -1.3335,-5.30931 -2.57881,-7.67997 z m 0,0 c -1.25941,-2.413 -2.89277,-4.61081 -4.826,-6.5017 l -9.9695,10.17411 -8.14916,8.31145 11.47586,-1.93675 14.04761,-2.36714 c -0.45156,-2.7305 -1.3335,-5.30931 -2.57881,-7.67997 z m 0,0 c -1.25941,-2.413 -2.89277,-4.61081 -4.826,-6.5017 l -9.9695,10.17411 -8.14916,8.31145 11.47586,-1.93675 14.04761,-2.36714 c -0.45156,-2.7305 -1.3335,-5.30931 -2.57881,-7.67997 z m 0,0 c -1.25941,-2.413 -2.89277,-4.61081 -4.826,-6.5017 l -9.9695,10.17411 -8.14916,8.31145 11.47586,-1.93675 14.04761,-2.36714 c -0.45156,-2.7305 -1.3335,-5.30931 -2.57881,-7.67997 z m 0,0 c -1.25941,-2.413 -2.89277,-4.61081 -4.826,-6.5017 l -9.9695,10.17411 -8.14916,8.31145 11.47586,-1.93675 14.04761,-2.36714 c -0.45156,-2.7305 -1.3335,-5.30931 -2.57881,-7.67997 z m 0,0 c -1.25941,-2.413 -2.89277,-4.61081 -4.826,-6.5017 l -9.9695,10.17411 -8.14916,8.31145 11.47586,-1.93675 14.04761,-2.36714 c -0.45156,-2.7305 -1.3335,-5.30931 -2.57881,-7.67997 z m 0,0 c -1.25941,-2.413 -2.89277,-4.61081 -4.826,-6.5017 l -9.9695,10.17411 -8.14916,8.31145 11.47586,-1.93675 14.04761,-2.36714 c -0.45156,-2.7305 -1.3335,-5.30931 -2.57881,-7.67997 z m 0,0 c -1.25941,-2.413 -2.89277,-4.61081 -4.826,-6.5017 l -9.9695,10.17411 -8.14916,8.31145 11.47586,-1.93675 14.04761,-2.36714 c -0.45156,-2.7305 -1.3335,-5.30931 -2.57881,-7.67997 z m 0,0 c -1.25941,-2.413 -2.89277,-4.61081 -4.826,-6.5017 l -9.9695,10.17411 -8.14916,8.31145 11.47586,-1.93675 14.04761,-2.36714 c -0.45156,-2.7305 -1.3335,-5.30931 -2.57881,-7.67997 z m 0,0 c -1.25941,-2.413 -2.89277,-4.61081 -4.826,-6.5017 l -9.9695,10.17411 -8.14916,8.31145 11.47586,-1.93675 14.04761,-2.36714 c -0.45156,-2.7305 -1.3335,-5.30931 -2.57881,-7.67997 z m 2.57881,7.67997 c -0.45156,-2.7305 -1.3335,-5.30931 -2.57881,-7.67997 -1.25941,-2.413 -2.89277,-4.61081 -4.826,-6.5017 -1.92616,-1.89441 -4.15219,-3.48544 -6.59694,-4.699 -2.38478,-1.19591 -4.98122,-2.02847 -7.72231,-2.42711 -1.2453,-0.18697 -2.51177,-0.27869 -3.79941,-0.27869 -1.46403,0 -2.90336,0.11994 -4.30389,0.35983 -2.7305,0.45156 -5.31283,1.3335 -7.6835,2.57881 -2.41653,1.26647 -4.61081,2.8963 -6.49817,4.82952 -1.89441,1.9297 -3.48544,4.1522 -4.699,6.59695 -1.18886,2.39536 -2.02141,4.9918 -2.42005,7.73289 h -0.007 c -0.17991,1.23472 -0.27164,2.50119 -0.27164,3.79236 0,1.4605 0.11995,2.90336 0.35984,4.30036 0.45155,2.7305 1.3335,5.3093 2.5788,7.67997 1.25942,2.41653 2.89278,4.61081 4.826,6.50522 1.92617,1.88736 4.1522,3.47839 6.59695,4.69195 2.38477,1.19591 4.98827,2.02494 7.72936,2.42711 v 0.007 c 1.23825,0.17992 2.50472,0.27164 3.79236,0.27164 1.46403,0 2.90336,-0.12347 4.30389,-0.35983 2.7305,-0.45508 5.3093,-1.33703 7.67644,-2.57881 2.41653,-1.25941 4.61081,-2.89277 6.50522,-4.826 1.88736,-1.92969 3.47839,-4.15219 4.699,-6.59694 1.18886,-2.39183 2.02142,-4.98828 2.42006,-7.72936 0.18697,-1.23825 0.27869,-2.50472 0.27869,-3.79236 0,-1.46403 -0.11994,-2.90336 -0.35983,-4.30389 z m -33.83492,-3.84528 -10.17411,-9.97303 c -1.89441,1.9297 -3.48544,4.1522 -4.699,6.59695 -1.18886,2.39536 -2.02141,4.9918 -2.42005,7.73289 h -0.007 c -0.17991,1.23472 -0.27164,2.50119 -0.27164,3.79236 0,1.4605 0.11995,2.90336 0.35984,4.30036 0.45155,2.7305 1.3335,5.3093 2.5788,7.67997 l 12.62945,-6.59342 10.31522,-5.38691 z"
       style="fill:none;stroke:#e2cdcc;stroke-width:0.881944;stroke-linecap:butt;stroke-linejoin:miter;stroke-miterlimit:10;stroke-dasharray:none;stroke-opacity:1"
       id="path294" />
    <path
       d="m 172.10453,138.24905 c 0,1.28764 -0.0917,2.55411 -0.27869,3.79236 -0.39864,2.74108 -1.2312,5.33753 -2.42006,7.72936 -1.22061,2.44475 -2.81164,4.66725 -4.699,6.59694 -1.89441,1.93323 -4.08869,3.56659 -6.50522,4.826 -2.36714,1.24178 -4.94594,2.12373 -7.67644,2.57881 -1.40053,0.23636 -2.83986,0.35983 -4.30389,0.35983 -1.28764,0 -2.55411,-0.0917 -3.79236,-0.27164 v -0.007 c -2.74109,-0.40217 -5.34459,-1.2312 -7.72936,-2.42711 -2.44475,-1.21356 -4.67078,-2.80459 -6.59695,-4.69195 -1.93322,-1.89441 -3.56658,-4.08869 -4.826,-6.50522 -1.2453,-2.37067 -2.12725,-4.94947 -2.5788,-7.67997 -0.23989,-1.397 -0.35984,-2.83986 -0.35984,-4.30036 0,-1.29117 0.0917,-2.55764 0.27164,-3.79236 h 0.007 c 0.39864,-2.74109 1.23119,-5.33753 2.42005,-7.73289 1.21356,-2.44475 2.80459,-4.66725 4.699,-6.59695 1.88736,-1.93322 4.08164,-3.56305 6.49817,-4.82952 2.37067,-1.24531 4.953,-2.12725 7.6835,-2.57881 1.40053,-0.23989 2.83986,-0.35983 4.30389,-0.35983 1.28764,0 2.55411,0.0917 3.79941,0.27869 2.74109,0.39864 5.33753,1.2312 7.72231,2.42711 2.44475,1.21356 4.67078,2.80459 6.59694,4.699 1.93323,1.89089 3.56659,4.0887 4.826,6.5017 1.24531,2.37066 2.12725,4.94947 2.57881,7.67997 0.23989,1.40053 0.35983,2.83986 0.35983,4.30389 z"
       style="fill:none;stroke:#e2cdcc;stroke-width:0.881944;stroke-linecap:butt;stroke-linejoin:miter;stroke-miterlimit:10;stroke-dasharray:none;stroke-opacity:1"
       id="path416" />
    <path
       d="m 172.10453,138.24905 c 0,1.28764 -0.0917,2.55411 -0.27869,3.79236 -0.39864,2.74108 -1.2312,5.33753 -2.42006,7.72936 -1.22061,2.44475 -2.81164,4.66725 -4.699,6.59694 -1.89441,1.93323 -4.08869,3.56659 -6.50522,4.826 -2.36714,1.24178 -4.94594,2.12373 -7.67644,2.57881 -1.40053,0.23636 -2.83986,0.35983 -4.30389,0.35983 -1.28764,0 -2.55411,-0.0917 -3.79236,-0.27164 v -0.007 c -2.74109,-0.40217 -5.34459,-1.2312 -7.72936,-2.42711 -2.44475,-1.21356 -4.67078,-2.80459 -6.59695,-4.69195 -1.93322,-1.89441 -3.56658,-4.08869 -4.826,-6.50522 -1.2453,-2.37067 -2.12725,-4.94947 -2.5788,-7.67997 -0.23989,-1.397 -0.35984,-2.83986 -0.35984,-4.30036 0,-1.29117 0.0917,-2.55764 0.27164,-3.79236 h 0.007 c 0.39864,-2.74109 1.23119,-5.33753 2.42005,-7.73289 1.21356,-2.44475 2.80459,-4.66725 4.699,-6.59695 1.88736,-1.93322 4.08164,-3.56305 6.49817,-4.82952 2.37067,-1.24531 4.953,-2.12725 7.6835,-2.57881 1.40053,-0.23989 2.83986,-0.35983 4.30389,-0.35983 1.28764,0 2.55411,0.0917 3.79941,0.27869 2.74109,0.39864 5.33753,1.2312 7.72231,2.42711 2.44475,1.21356 4.67078,2.80459 6.59694,4.699 1.93323,1.89089 3.56659,4.0887 4.826,6.5017 1.24531,2.37066 2.12725,4.94947 2.57881,7.67997 0.23989,1.40053 0.35983,2.83986 0.35983,4.30389 z"
       style="fill:none;stroke:#e2cdcc;stroke-width:0.881944;stroke-linecap:butt;stroke-linejoin:miter;stroke-miterlimit:10;stroke-dasharray:none;stroke-opacity:1"
       id="path506" />
    <path
       d="m 172.10453,138.24905 c 0,1.28764 -0.0917,2.55411 -0.27869,3.79236 -0.39864,2.74108 -1.2312,5.33753 -2.42006,7.72936 -1.22061,2.44475 -2.81164,4.66725 -4.699,6.59694 -1.89441,1.93323 -4.08869,3.56659 -6.50522,4.826 -2.36714,1.24178 -4.94594,2.12373 -7.67644,2.57881 -1.40053,0.23636 -2.83986,0.35983 -4.30389,0.35983 -1.28764,0 -2.55411,-0.0917 -3.79236,-0.27164 v -0.007 c -2.74109,-0.40217 -5.34459,-1.2312 -7.72936,-2.42711 -2.44475,-1.21356 -4.67078,-2.80459 -6.59695,-4.69195 -1.93322,-1.89441 -3.56658,-4.08869 -4.826,-6.50522 -1.2453,-2.37067 -2.12725,-4.94947 -2.5788,-7.67997 -0.23989,-1.397 -0.35984,-2.83986 -0.35984,-4.30036 0,-1.29117 0.0917,-2.55764 0.27164,-3.79236 h 0.007 c 0.39864,-2.74109 1.23119,-5.33753 2.42005,-7.73289 1.21356,-2.44475 2.80459,-4.66725 4.699,-6.59695 1.88736,-1.93322 4.08164,-3.56305 6.49817,-4.82952 2.37067,-1.24531 4.953,-2.12725 7.6835,-2.57881 1.40053,-0.23989 2.83986,-0.35983 4.30389,-0.35983 1.28764,0 2.55411,0.0917 3.79941,0.27869 2.74109,0.39864 5.33753,1.2312 7.72231,2.42711 2.44475,1.21356 4.67078,2.80459 6.59694,4.699 1.93323,1.89089 3.56659,4.0887 4.826,6.5017 1.24531,2.37066 2.12725,4.94947 2.57881,7.67997 0.23989,1.40053 0.35983,2.83986 0.35983,4.30389"
       style="fill:#dd1b39;fill-opacity:1;fill-rule:nonzero;stroke:none;stroke-width:0.0352778"
       id="path508" />
    <path
       d="m 172.10453,138.24905 c 0,1.28764 -0.0917,2.55411 -0.27869,3.79236 -0.39864,2.74108 -1.2312,5.33753 -2.42006,7.72936 -1.22061,2.44475 -2.81164,4.66725 -4.699,6.59694 -1.89441,1.93323 -4.08869,3.56659 -6.50522,4.826 -2.36714,1.24178 -4.94594,2.12373 -7.67644,2.57881 -1.40053,0.23636 -2.83986,0.35983 -4.30389,0.35983 -1.28764,0 -2.55411,-0.0917 -3.79236,-0.27164 v -0.007 c -2.74109,-0.40217 -5.34459,-1.2312 -7.72936,-2.42711 -2.44475,-1.21356 -4.67078,-2.80459 -6.59695,-4.69195 -1.93322,-1.89441 -3.56658,-4.08869 -4.826,-6.50522 -1.2453,-2.37067 -2.12725,-4.94947 -2.5788,-7.67997 -0.23989,-1.397 -0.35984,-2.83986 -0.35984,-4.30036 0,-1.29117 0.0917,-2.55764 0.27164,-3.79236 h 0.007 c 0.39864,-2.74109 1.23119,-5.33753 2.42005,-7.73289 1.21356,-2.44475 2.80459,-4.66725 4.699,-6.59695 1.88736,-1.93322 4.08164,-3.56305 6.49817,-4.82952 2.37067,-1.24531 4.953,-2.12725 7.6835,-2.57881 1.40053,-0.23989 2.83986,-0.35983 4.30389,-0.35983 1.28764,0 2.55411,0.0917 3.79941,0.27869 2.74109,0.39864 5.33753,1.2312 7.72231,2.42711 2.44475,1.21356 4.67078,2.80459 6.59694,4.699 1.93323,1.89089 3.56659,4.0887 4.826,6.5017 1.24531,2.37066 2.12725,4.94947 2.57881,7.67997 0.23989,1.40053 0.35983,2.83986 0.35983,4.30389 z"
       style="fill:none;stroke:#e2cdcc;stroke-width:0.881944;stroke-linecap:butt;stroke-linejoin:miter;stroke-miterlimit:10;stroke-dasharray:none;stroke-opacity:1"
       id="path510" />
    <path
       d="m 157.85937,138.24552 c 0,6.42761 -5.21053,11.63814 -11.63814,11.63814 -6.42761,0 -11.63814,-5.21053 -11.63814,-11.63814 0,-6.42761 5.21053,-11.63814 11.63814,-11.63814 6.42761,0 11.63814,5.21053 11.63814,11.63814"
       style="fill:#26853f;fill-opacity:1;fill-rule:nonzero;stroke:none;stroke-width:0.0352778"
       id="path512" />
    <path
       d="m 157.85937,138.24552 c 0,6.42761 -5.21053,11.63814 -11.63814,11.63814 -6.42761,0 -11.63814,-5.21053 -11.63814,-11.63814 0,-6.42761 5.21053,-11.63814 11.63814,-11.63814 6.42761,0 11.63814,5.21053 11.63814,11.63814 z"
       style="fill:none;stroke:#e2cdcc;stroke-width:0.881944;stroke-linecap:butt;stroke-linejoin:miter;stroke-miterlimit:10;stroke-dasharray:none;stroke-opacity:1"
       id="path514" />
  </g>
</svg>
