<?xml version="1.0" encoding="UTF-8" standalone="no"?>
<!-- Created with Inkscape (http://www.inkscape.org/) -->

<svg
   version="1.1"
   id="svg196"
   width="2562.1853"
   height="2562.1865"
   viewBox="0 0 2562.1853 2562.1866"
   sodipodi:docname="dartboardcomplete.svg"
   inkscape:version="1.2.2 (b0a8486541, 2022-12-01)"
   xmlns:inkscape="http://www.inkscape.org/namespaces/inkscape"
   xmlns:sodipodi="http://sodipodi.sourceforge.net/DTD/sodipodi-0.dtd"
   xmlns="http://www.w3.org/2000/svg"
   xmlns:svg="http://www.w3.org/2000/svg">
  <sodipodi:namedview
     id="namedview208"
     pagecolor="#ffffff"
     bordercolor="#000000"
     borderopacity="0.25"
     inkscape:showpageshadow="2"
     inkscape:pageopacity="0.0"
     inkscape:pagecheckerboard="0"
     inkscape:deskcolor="#d1d1d1"
     showgrid="false"
     inkscape:zoom="0.24957447"
     inkscape:cx="1284.1858"
     inkscape:cy="1278.1756"
     inkscape:window-width="1920"
     inkscape:window-height="1011"
     inkscape:window-x="0"
     inkscape:window-y="0"
     inkscape:window-maximized="1"
     inkscape:current-layer="svg196" />
  <defs
     id="defs200" />
  <path
     d="m 2558.8519,1281.0933 c 0,705.6933 -572.0667,1277.7599 -1277.76,1277.7599 C 575.40523,2558.8532 3.3333349,1986.7866 3.3333349,1281.0933 3.3333349,575.39999 575.40523,3.3333349 1281.0919,3.3333349 c 705.6933,0 1277.76,572.0666551 1277.76,1277.7599651"
     style="fill:#100f0d;fill-opacity:1;fill-rule:nonzero;stroke:none;stroke-width:0.133333"
     id="path210" />
  <path
     d="m 2558.8519,1281.0933 c 0,705.6933 -572.0667,1277.7599 -1277.76,1277.7599 C 575.40523,2558.8532 3.3333349,1986.7866 3.3333349,1281.0933 3.3333349,575.39999 575.40523,3.3333349 1281.0919,3.3333349 c 705.6933,0 1277.76,572.0666551 1277.76,1277.7599651 z"
     style="fill:none;stroke:#e2cdcc;stroke-width:6.66667;stroke-linecap:butt;stroke-linejoin:miter;stroke-miterlimit:10;stroke-dasharray:none;stroke-opacity:1"
     id="path212" />
  <path
     d="m 1429.9052,276.78666 -10.0266,67.65333 c -45.3067,-6.68 -91.64,-10.12 -138.7867,-10.12 -53.64,0 -106.24,4.45334 -157.44,13.04 l -11.3733,-67.44 c 54.8933,-9.18666 111.3066,-13.97333 168.8133,-13.97333 50.5467,0 100.24,3.69333 148.8133,10.84"
     style="fill:#dd1b39;fill-opacity:1;fill-rule:nonzero;stroke:none;stroke-width:0.133333"
     id="path214" />
  <path
     d="m 1429.9052,276.78666 -10.0266,67.65333 c -45.3067,-6.68 -91.64,-10.12 -138.7867,-10.12 -53.64,0 -106.24,4.45334 -157.44,13.04 l -11.3733,-67.44 c 54.8933,-9.18666 111.3066,-13.97333 168.8133,-13.97333 50.5467,0 100.24,3.69333 148.8133,10.84 z"
     style="fill:none;stroke:#e2cdcc;stroke-width:3.33333;stroke-linecap:butt;stroke-linejoin:miter;stroke-miterlimit:10;stroke-dasharray:none;stroke-opacity:1"
     id="path216" />
  <path
     d="m 1449.9052,2282.2799 c -54.8933,9.1867 -111.3066,13.9733 -168.8133,13.9733 -50.5467,0 -100.24,-3.68 -148.8133,-10.84 l 10.0266,-67.6533 c 45.3067,6.68 91.64,10.12 138.7867,10.12 53.64,0 106.24,-4.4533 157.44,-13.04 l 11.3733,67.44"
     style="fill:#dd1b39;fill-opacity:1;fill-rule:nonzero;stroke:none;stroke-width:0.133333"
     id="path218" />
  <path
     d="m 1449.9052,2282.2799 c -54.8933,9.1867 -111.3066,13.9733 -168.8133,13.9733 -50.5467,0 -100.24,-3.68 -148.8133,-10.84 l 10.0266,-67.6533 c 45.3067,6.68 91.64,10.12 138.7867,10.12 53.64,0 106.24,-4.4533 157.44,-13.04 z"
     style="fill:none;stroke:#e2cdcc;stroke-width:3.33333;stroke-linecap:butt;stroke-linejoin:miter;stroke-miterlimit:10;stroke-dasharray:none;stroke-opacity:1"
     id="path220" />
  <path
     d="m 1733.0119,371.82666 -30.44,61.24 c -87.4,-43.52 -182.4933,-73.92 -282.6933,-88.62667 l 10.0266,-67.65333 c 107.4267,15.76 209.3867,48.37333 303.1067,95.04"
     style="fill:#26853f;fill-opacity:1;fill-rule:nonzero;stroke:none;stroke-width:0.133333"
     id="path222" />
  <path
     d="m 1733.0119,371.82666 -30.44,61.24 c -87.4,-43.52 -182.4933,-73.92 -282.6933,-88.62667 l 10.0266,-67.65333 c 107.4267,15.76 209.3867,48.37333 303.1067,95.04 z"
     style="fill:none;stroke:#e2cdcc;stroke-width:3.33333;stroke-linecap:butt;stroke-linejoin:miter;stroke-miterlimit:10;stroke-dasharray:none;stroke-opacity:1"
     id="path224" />
  <path
     d="m 1123.6519,347.35999 c -99.7867,16.70667 -194.26127,48.98667 -280.85327,94.33333 l -31.652,-60.62666 c 92.848,-48.61333 194.17197,-83.25333 301.13197,-101.14667 l 11.3733,67.44"
     style="fill:#26853f;fill-opacity:1;fill-rule:nonzero;stroke:none;stroke-width:0.133333"
     id="path226" />
  <path
     d="m 1123.6519,347.35999 c -99.7867,16.70667 -194.26127,48.98667 -280.85327,94.33333 l -31.652,-60.62666 c 92.848,-48.61333 194.17197,-83.25333 301.13197,-101.14667 z"
     style="fill:none;stroke:#e2cdcc;stroke-width:3.33333;stroke-linecap:butt;stroke-linejoin:miter;stroke-miterlimit:10;stroke-dasharray:none;stroke-opacity:1"
     id="path228" />
  <path
     d="m 604.97193,618.33332 c -69.164,70.56 -127.396,151.88001 -171.9107,241.26661 l -61.24,-30.4266 v -0.013 c 47.7187,-95.84 110.144,-183.02671 184.3347,-258.68004 l 48.816,47.85333"
     style="fill:#26853f;fill-opacity:1;fill-rule:nonzero;stroke:none;stroke-width:0.133333"
     id="path230" />
  <path
     d="m 604.97193,618.33332 c -69.164,70.56 -127.396,151.88001 -171.9107,241.26661 l -61.24,-30.4266 v -0.013 c 47.7187,-95.84 110.144,-183.02671 184.3347,-258.68004 z"
     style="fill:none;stroke:#e2cdcc;stroke-width:3.33333;stroke-linecap:butt;stroke-linejoin:miter;stroke-miterlimit:10;stroke-dasharray:none;stroke-opacity:1"
     id="path232" />
  <path
     d="m 347.34663,1438.5466 -67.4294,11.3733 c -9.1973,-54.8933 -13.9813,-111.3066 -13.9813,-168.8133 0,-50.56 3.6867,-100.2533 10.8427,-148.8267 l 67.6493,10.0267 c -6.6733,45.3067 -10.1187,91.6533 -10.1187,138.8 0,53.64 4.456,106.2267 13.0374,157.44"
     style="fill:#26853f;fill-opacity:1;fill-rule:nonzero;stroke:none;stroke-width:0.133333"
     id="path234" />
  <path
     d="m 347.34663,1438.5466 -67.4294,11.3733 c -9.1973,-54.8933 -13.9813,-111.3066 -13.9813,-168.8133 0,-50.56 3.6867,-100.2533 10.8427,-148.8267 l 67.6493,10.0267 c -6.6733,45.3067 -10.1187,91.6533 -10.1187,138.8 0,53.64 4.456,106.2267 13.0374,157.44 z"
     style="fill:none;stroke:#e2cdcc;stroke-width:3.33333;stroke-linecap:butt;stroke-linejoin:miter;stroke-miterlimit:10;stroke-dasharray:none;stroke-opacity:1"
     id="path236" />
  <path
     d="m 618.33993,1957.2266 -47.8733,48.8133 c -75.704,-74.2133 -139.8414,-160.1866 -189.404,-254.9733 l 60.6253,-31.6533 c 46.2253,88.4133 106.0387,168.6 176.652,237.8133"
     style="fill:#26853f;fill-opacity:1;fill-rule:nonzero;stroke:none;stroke-width:0.133333"
     id="path238" />
  <path
     d="m 618.33993,1957.2266 -47.8733,48.8133 c -75.704,-74.2133 -139.8414,-160.1866 -189.404,-254.9733 l 60.6253,-31.6533 c 46.2253,88.4133 106.0387,168.6 176.652,237.8133 z"
     style="fill:none;stroke:#e2cdcc;stroke-width:3.33333;stroke-linecap:butt;stroke-linejoin:miter;stroke-miterlimit:10;stroke-dasharray:none;stroke-opacity:1"
     id="path240" />
  <path
     d="m 1142.3052,2217.7599 -10.0266,67.6533 c -107.4267,-15.76 -209.38537,-48.3733 -303.11067,-95.04 l 30.4213,-61.2399 h 0.023 c 87.404,43.52 182.49327,73.9199 282.69327,88.6266"
     style="fill:#26853f;fill-opacity:1;fill-rule:nonzero;stroke:none;stroke-width:0.133333"
     id="path242" />
  <path
     d="m 1142.3052,2217.7599 -10.0266,67.6533 c -107.4267,-15.76 -209.38537,-48.3733 -303.11067,-95.04 l 30.4213,-61.2399 h 0.023 c 87.404,43.52 182.49327,73.9199 282.69327,88.6266 z"
     style="fill:none;stroke:#e2cdcc;stroke-width:3.33333;stroke-linecap:butt;stroke-linejoin:miter;stroke-miterlimit:10;stroke-dasharray:none;stroke-opacity:1"
     id="path244" />
  <path
     d="m 1751.0652,2181.1332 c -92.88,48.6134 -194.1733,83.2534 -301.16,101.1467 l -11.3733,-67.44 c 99.7867,-16.6933 194.28,-49.0133 280.88,-94.3333 l 31.6533,60.6266"
     style="fill:#26853f;fill-opacity:1;fill-rule:nonzero;stroke:none;stroke-width:0.133333"
     id="path246" />
  <path
     d="m 1751.0652,2181.1332 c -92.88,48.6134 -194.1733,83.2534 -301.16,101.1467 l -11.3733,-67.44 c 99.7867,-16.6933 194.28,-49.0133 280.88,-94.3333 z"
     style="fill:none;stroke:#e2cdcc;stroke-width:3.33333;stroke-linecap:butt;stroke-linejoin:miter;stroke-miterlimit:10;stroke-dasharray:none;stroke-opacity:1"
     id="path248" />
  <path
     d="m 2190.3452,1733.0266 c -47.72,95.8267 -110.1333,183.04 -184.32,258.6933 l -48.8133,-47.8666 c 69.16,-70.5734 127.4,-151.8934 171.9066,-241.2667 l 61.2267,30.44"
     style="fill:#26853f;fill-opacity:1;fill-rule:nonzero;stroke:none;stroke-width:0.133333"
     id="path250" />
  <path
     d="m 2190.3452,1733.0266 c -47.72,95.8267 -110.1333,183.04 -184.32,258.6933 l -48.8133,-47.8666 c 69.16,-70.5734 127.4,-151.8934 171.9066,-241.2667 z"
     style="fill:none;stroke:#e2cdcc;stroke-width:3.33333;stroke-linecap:butt;stroke-linejoin:miter;stroke-miterlimit:10;stroke-dasharray:none;stroke-opacity:1"
     id="path252" />
  <path
     d="m 2296.2519,1281.1066 c 0,50.5467 -3.6934,100.24 -10.8667,148.8133 l -67.6267,-10.0266 c 6.6667,-45.3067 10.12,-91.64 10.12,-138.7867 0,-53.6533 -4.4533,-106.2667 -13.04,-157.4667 l 67.4267,-11.3733 c 9.2,54.92 13.9867,111.3067 13.9867,168.84"
     style="fill:#26853f;fill-opacity:1;fill-rule:nonzero;stroke:none;stroke-width:0.133333"
     id="path254" />
  <path
     d="m 2296.2519,1281.1066 c 0,50.5467 -3.6934,100.24 -10.8667,148.8133 l -67.6267,-10.0266 c 6.6667,-45.3067 10.12,-91.64 10.12,-138.7867 0,-53.6533 -4.4533,-106.2667 -13.04,-157.4667 l 67.4267,-11.3733 c 9.2,54.92 13.9867,111.3067 13.9867,168.84 z"
     style="fill:none;stroke:#e2cdcc;stroke-width:3.33333;stroke-linecap:butt;stroke-linejoin:miter;stroke-miterlimit:10;stroke-dasharray:none;stroke-opacity:1"
     id="path256" />
  <path
     d="m 2181.1185,811.13333 -60.6,31.6533 c -46.2533,-88.4133 -106.0666,-168.59998 -176.68,-237.79998 l 47.88,-48.82666 c 75.7067,74.2 139.84,160.20004 189.4,254.97334"
     style="fill:#26853f;fill-opacity:1;fill-rule:nonzero;stroke:none;stroke-width:0.133333"
     id="path258" />
  <path
     d="m 2181.1185,811.13333 -60.6,31.6533 c -46.2533,-88.4133 -106.0666,-168.59998 -176.68,-237.79998 l 47.88,-48.82666 c 75.7067,74.2 139.84,160.20004 189.4,254.97334 z"
     style="fill:none;stroke:#e2cdcc;stroke-width:3.33333;stroke-linecap:butt;stroke-linejoin:miter;stroke-miterlimit:10;stroke-dasharray:none;stroke-opacity:1"
     id="path260" />
  <path
     d="m 1249.6786,1250.3066 -38.4534,-37.6933 c -7.16,7.2933 -13.1733,15.6933 -17.76,24.9333 -4.4933,9.0533 -7.64,18.8667 -9.1466,29.2267 l 53.2666,7.88 43.5067,6.4533 z m 0,0 -38.4534,-37.6933 c -7.16,7.2933 -13.1733,15.6933 -17.76,24.9333 -4.4933,9.0533 -7.64,18.8667 -9.1466,29.2267 h -0.027 c -0.68,4.6666 -1.0267,9.4533 -1.0267,14.3333 0,5.52 0.4534,10.9733 1.36,16.2533 1.7067,10.32 5.04,20.0667 9.7467,29.0267 4.76,9.1333 10.9333,17.4267 18.24,24.5867 7.28,7.1333 15.6933,13.1466 24.9333,17.7333 l 23.9734,-48.2 19.5733,-39.4 z m 127.88,14.5333 -53.0934,8.9467 -43.3733,7.32 39.4,19.5733 48.2267,23.9734 c 4.4933,-9.04 7.64,-18.8534 9.1466,-29.2134 0.7067,-4.68 1.0534,-9.4666 1.0534,-14.3333 0,-5.5333 -0.4534,-10.9733 -1.36,-16.2667 z m 0,0 -53.0934,8.9467 -43.3733,7.32 39.4,19.5733 48.2267,23.9734 c 4.4933,-9.04 7.64,-18.8534 9.1466,-29.2134 0.7067,-4.68 1.0534,-9.4666 1.0534,-14.3333 0,-5.5333 -0.4534,-10.9733 -1.36,-16.2667 z m 0,0 -53.0934,8.9467 -43.3733,7.32 39.4,19.5733 48.2267,23.9734 c 4.4933,-9.04 7.64,-18.8534 9.1466,-29.2134 0.7067,-4.68 1.0534,-9.4666 1.0534,-14.3333 0,-5.5333 -0.4534,-10.9733 -1.36,-16.2667 z m 0,0 -53.0934,8.9467 -43.3733,7.32 39.4,19.5733 48.2267,23.9734 c 4.4933,-9.04 7.64,-18.8534 9.1466,-29.2134 0.7067,-4.68 1.0534,-9.4666 1.0534,-14.3333 0,-5.5333 -0.4534,-10.9733 -1.36,-16.2667 z m 0,0 -53.0934,8.9467 -43.3733,7.32 39.4,19.5733 48.2267,23.9734 c 4.4933,-9.04 7.64,-18.8534 9.1466,-29.2134 0.7067,-4.68 1.0534,-9.4666 1.0534,-14.3333 0,-5.5333 -0.4534,-10.9733 -1.36,-16.2667 z m 0,0 -53.0934,8.9467 -43.3733,7.32 39.4,19.5733 48.2267,23.9734 c 4.4933,-9.04 7.64,-18.8534 9.1466,-29.2134 0.7067,-4.68 1.0534,-9.4666 1.0534,-14.3333 0,-5.5333 -0.4534,-10.9733 -1.36,-16.2667 z m 0,0 -53.0934,8.9467 -43.3733,7.32 39.4,19.5733 48.2267,23.9734 c 4.4933,-9.04 7.64,-18.8534 9.1466,-29.2134 0.7067,-4.68 1.0534,-9.4666 1.0534,-14.3333 0,-5.5333 -0.4534,-10.9733 -1.36,-16.2667 z m 0,0 -53.0934,8.9467 -43.3733,7.32 39.4,19.5733 48.2267,23.9734 c 4.4933,-9.04 7.64,-18.8534 9.1466,-29.2134 0.7067,-4.68 1.0534,-9.4666 1.0534,-14.3333 0,-5.5333 -0.4534,-10.9733 -1.36,-16.2667 z m 0,0 -53.0934,8.9467 -43.3733,7.32 39.4,19.5733 48.2267,23.9734 c 4.4933,-9.04 7.64,-18.8534 9.1466,-29.2134 0.7067,-4.68 1.0534,-9.4666 1.0534,-14.3333 0,-5.5333 -0.4534,-10.9733 -1.36,-16.2667 z m 0,0 -53.0934,8.9467 -43.3733,7.32 39.4,19.5733 48.2267,23.9734 c 4.4933,-9.04 7.64,-18.8534 9.1466,-29.2134 0.7067,-4.68 1.0534,-9.4666 1.0534,-14.3333 0,-5.5333 -0.4534,-10.9733 -1.36,-16.2667 z m 0,0 -53.0934,8.9467 -43.3733,7.32 39.4,19.5733 48.2267,23.9734 c 4.4933,-9.04 7.64,-18.8534 9.1466,-29.2134 0.7067,-4.68 1.0534,-9.4666 1.0534,-14.3333 0,-5.5333 -0.4534,-10.9733 -1.36,-16.2667 z m 0,0 -53.0934,8.9467 -43.3733,7.32 39.4,19.5733 48.2267,23.9734 c 4.4933,-9.04 7.64,-18.8534 9.1466,-29.2134 0.7067,-4.68 1.0534,-9.4666 1.0534,-14.3333 0,-5.5333 -0.4534,-10.9733 -1.36,-16.2667 z m 0,0 -53.0934,8.9467 -43.3733,7.32 39.4,19.5733 48.2267,23.9734 c 4.4933,-9.04 7.64,-18.8534 9.1466,-29.2134 0.7067,-4.68 1.0534,-9.4666 1.0534,-14.3333 0,-5.5333 -0.4534,-10.9733 -1.36,-16.2667 z m 0,0 -53.0934,8.9467 -43.3733,7.32 39.4,19.5733 48.2267,23.9734 c 4.4933,-9.04 7.64,-18.8534 9.1466,-29.2134 0.7067,-4.68 1.0534,-9.4666 1.0534,-14.3333 0,-5.5333 -0.4534,-10.9733 -1.36,-16.2667 z m 0,0 -53.0934,8.9467 -43.3733,7.32 39.4,19.5733 48.2267,23.9734 c 4.4933,-9.04 7.64,-18.8534 9.1466,-29.2134 0.7067,-4.68 1.0534,-9.4666 1.0534,-14.3333 0,-5.5333 -0.4534,-10.9733 -1.36,-16.2667 z m 0,0 -53.0934,8.9467 -43.3733,7.32 39.4,19.5733 48.2267,23.9734 c 4.4933,-9.04 7.64,-18.8534 9.1466,-29.2134 0.7067,-4.68 1.0534,-9.4666 1.0534,-14.3333 0,-5.5333 -0.4534,-10.9733 -1.36,-16.2667 z m -9.7467,-29.0266 c -4.76,-9.12 -10.9333,-17.4267 -18.24,-24.5734 l -37.68,38.4534 -30.8,31.4133 43.3733,-7.32 53.0934,-8.9467 c -1.7067,-10.32 -5.04,-20.0666 -9.7467,-29.0266 z m 0,0 c -4.76,-9.12 -10.9333,-17.4267 -18.24,-24.5734 l -37.68,38.4534 -30.8,31.4133 43.3733,-7.32 53.0934,-8.9467 c -1.7067,-10.32 -5.04,-20.0666 -9.7467,-29.0266 z m 0,0 c -4.76,-9.12 -10.9333,-17.4267 -18.24,-24.5734 l -37.68,38.4534 -30.8,31.4133 43.3733,-7.32 53.0934,-8.9467 c -1.7067,-10.32 -5.04,-20.0666 -9.7467,-29.0266 z m 0,0 c -4.76,-9.12 -10.9333,-17.4267 -18.24,-24.5734 l -37.68,38.4534 -30.8,31.4133 43.3733,-7.32 53.0934,-8.9467 c -1.7067,-10.32 -5.04,-20.0666 -9.7467,-29.0266 z m 0,0 c -4.76,-9.12 -10.9333,-17.4267 -18.24,-24.5734 l -37.68,38.4534 -30.8,31.4133 43.3733,-7.32 53.0934,-8.9467 c -1.7067,-10.32 -5.04,-20.0666 -9.7467,-29.0266 z m 0,0 c -4.76,-9.12 -10.9333,-17.4267 -18.24,-24.5734 l -37.68,38.4534 -30.8,31.4133 43.3733,-7.32 53.0934,-8.9467 c -1.7067,-10.32 -5.04,-20.0666 -9.7467,-29.0266 z m 0,0 c -4.76,-9.12 -10.9333,-17.4267 -18.24,-24.5734 l -37.68,38.4534 -30.8,31.4133 43.3733,-7.32 53.0934,-8.9467 c -1.7067,-10.32 -5.04,-20.0666 -9.7467,-29.0266 z m 0,0 c -4.76,-9.12 -10.9333,-17.4267 -18.24,-24.5734 l -37.68,38.4534 -30.8,31.4133 43.3733,-7.32 53.0934,-8.9467 c -1.7067,-10.32 -5.04,-20.0666 -9.7467,-29.0266 z m 0,0 c -4.76,-9.12 -10.9333,-17.4267 -18.24,-24.5734 l -37.68,38.4534 -30.8,31.4133 43.3733,-7.32 53.0934,-8.9467 c -1.7067,-10.32 -5.04,-20.0666 -9.7467,-29.0266 z m 0,0 c -4.76,-9.12 -10.9333,-17.4267 -18.24,-24.5734 l -37.68,38.4534 -30.8,31.4133 43.3733,-7.32 53.0934,-8.9467 c -1.7067,-10.32 -5.04,-20.0666 -9.7467,-29.0266 z m 0,0 c -4.76,-9.12 -10.9333,-17.4267 -18.24,-24.5734 l -37.68,38.4534 -30.8,31.4133 43.3733,-7.32 53.0934,-8.9467 c -1.7067,-10.32 -5.04,-20.0666 -9.7467,-29.0266 z m 0,0 c -4.76,-9.12 -10.9333,-17.4267 -18.24,-24.5734 l -37.68,38.4534 -30.8,31.4133 43.3733,-7.32 53.0934,-8.9467 c -1.7067,-10.32 -5.04,-20.0666 -9.7467,-29.0266 z m 0,0 c -4.76,-9.12 -10.9333,-17.4267 -18.24,-24.5734 l -37.68,38.4534 -30.8,31.4133 43.3733,-7.32 53.0934,-8.9467 c -1.7067,-10.32 -5.04,-20.0666 -9.7467,-29.0266 z m 0,0 c -4.76,-9.12 -10.9333,-17.4267 -18.24,-24.5734 l -37.68,38.4534 -30.8,31.4133 43.3733,-7.32 53.0934,-8.9467 c -1.7067,-10.32 -5.04,-20.0666 -9.7467,-29.0266 z m 0,0 c -4.76,-9.12 -10.9333,-17.4267 -18.24,-24.5734 l -37.68,38.4534 -30.8,31.4133 43.3733,-7.32 53.0934,-8.9467 c -1.7067,-10.32 -5.04,-20.0666 -9.7467,-29.0266 z m 0,0 c -4.76,-9.12 -10.9333,-17.4267 -18.24,-24.5734 l -37.68,38.4534 -30.8,31.4133 43.3733,-7.32 53.0934,-8.9467 c -1.7067,-10.32 -5.04,-20.0666 -9.7467,-29.0266 z m 0,0 c -4.76,-9.12 -10.9333,-17.4267 -18.24,-24.5734 l -37.68,38.4534 -30.8,31.4133 43.3733,-7.32 53.0934,-8.9467 c -1.7067,-10.32 -5.04,-20.0666 -9.7467,-29.0266 z m 9.7467,29.0266 c -1.7067,-10.32 -5.04,-20.0666 -9.7467,-29.0266 -4.76,-9.12 -10.9333,-17.4267 -18.24,-24.5734 -7.28,-7.16 -15.6933,-13.1733 -24.9333,-17.76 -9.0134,-4.52 -18.8267,-7.6666 -29.1867,-9.1733 -4.7067,-0.7067 -9.4933,-1.0533 -14.36,-1.0533 -5.5333,0 -10.9733,0.4533 -16.2667,1.36 -10.32,1.7066 -20.08,5.04 -29.04,9.7466 -9.1333,4.7867 -17.4266,10.9467 -24.56,18.2534 -7.16,7.2933 -13.1733,15.6933 -17.76,24.9333 -4.4933,9.0533 -7.64,18.8667 -9.1466,29.2267 h -0.027 c -0.68,4.6666 -1.0267,9.4533 -1.0267,14.3333 0,5.52 0.4534,10.9733 1.36,16.2533 1.7067,10.32 5.04,20.0667 9.7467,29.0267 4.76,9.1333 10.9333,17.4267 18.24,24.5867 7.28,7.1333 15.6933,13.1466 24.9333,17.7333 9.0134,4.52 18.8534,7.6533 29.2134,9.1733 v 0.027 c 4.68,0.68 9.4666,1.0267 14.3333,1.0267 5.5333,0 10.9733,-0.4667 16.2667,-1.36 10.32,-1.72 20.0666,-5.0534 29.0133,-9.7467 9.1333,-4.76 17.4267,-10.9333 24.5867,-18.24 7.1333,-7.2933 13.1466,-15.6933 17.76,-24.9333 4.4933,-9.04 7.64,-18.8534 9.1466,-29.2134 0.7067,-4.68 1.0534,-9.4666 1.0534,-14.3333 0,-5.5333 -0.4534,-10.9733 -1.36,-16.2667 z m -127.88,-14.5333 -38.4534,-37.6933 c -7.16,7.2933 -13.1733,15.6933 -17.76,24.9333 -4.4933,9.0533 -7.64,18.8667 -9.1466,29.2267 h -0.027 c -0.68,4.6666 -1.0267,9.4533 -1.0267,14.3333 0,5.52 0.4534,10.9733 1.36,16.2533 1.7067,10.32 5.04,20.0667 9.7467,29.0267 l 47.7333,-24.92 38.9867,-20.36 z"
     style="fill:none;stroke:#e2cdcc;stroke-width:3.33333;stroke-linecap:butt;stroke-linejoin:miter;stroke-miterlimit:10;stroke-dasharray:none;stroke-opacity:1"
     id="path262" />
  <path
     d="m 1249.6786,1250.3066 -38.4534,-37.6933 c -7.16,7.2933 -13.1733,15.6933 -17.76,24.9333 -4.4933,9.0533 -7.64,18.8667 -9.1466,29.2267 l 53.2666,7.88 43.5067,6.4533 z m 0,0 -38.4534,-37.6933 c -7.16,7.2933 -13.1733,15.6933 -17.76,24.9333 -4.4933,9.0533 -7.64,18.8667 -9.1466,29.2267 h -0.027 c -0.68,4.6666 -1.0267,9.4533 -1.0267,14.3333 0,5.52 0.4534,10.9733 1.36,16.2533 1.7067,10.32 5.04,20.0667 9.7467,29.0267 4.76,9.1333 10.9333,17.4267 18.24,24.5867 7.28,7.1333 15.6933,13.1466 24.9333,17.7333 l 23.9734,-48.2 19.5733,-39.4 z m 127.88,14.5333 -53.0934,8.9467 -43.3733,7.32 39.4,19.5733 48.2267,23.9734 c 4.4933,-9.04 7.64,-18.8534 9.1466,-29.2134 0.7067,-4.68 1.0534,-9.4666 1.0534,-14.3333 0,-5.5333 -0.4534,-10.9733 -1.36,-16.2667 z m 0,0 -53.0934,8.9467 -43.3733,7.32 39.4,19.5733 48.2267,23.9734 c 4.4933,-9.04 7.64,-18.8534 9.1466,-29.2134 0.7067,-4.68 1.0534,-9.4666 1.0534,-14.3333 0,-5.5333 -0.4534,-10.9733 -1.36,-16.2667 z m 0,0 -53.0934,8.9467 -43.3733,7.32 39.4,19.5733 48.2267,23.9734 c 4.4933,-9.04 7.64,-18.8534 9.1466,-29.2134 0.7067,-4.68 1.0534,-9.4666 1.0534,-14.3333 0,-5.5333 -0.4534,-10.9733 -1.36,-16.2667 z m 0,0 -53.0934,8.9467 -43.3733,7.32 39.4,19.5733 48.2267,23.9734 c 4.4933,-9.04 7.64,-18.8534 9.1466,-29.2134 0.7067,-4.68 1.0534,-9.4666 1.0534,-14.3333 0,-5.5333 -0.4534,-10.9733 -1.36,-16.2667 z m 0,0 -53.0934,8.9467 -43.3733,7.32 39.4,19.5733 48.2267,23.9734 c 4.4933,-9.04 7.64,-18.8534 9.1466,-29.2134 0.7067,-4.68 1.0534,-9.4666 1.0534,-14.3333 0,-5.5333 -0.4534,-10.9733 -1.36,-16.2667 z m 0,0 -53.0934,8.9467 -43.3733,7.32 39.4,19.5733 48.2267,23.9734 c 4.4933,-9.04 7.64,-18.8534 9.1466,-29.2134 0.7067,-4.68 1.0534,-9.4666 1.0534,-14.3333 0,-5.5333 -0.4534,-10.9733 -1.36,-16.2667 z m 0,0 -53.0934,8.9467 -43.3733,7.32 39.4,19.5733 48.2267,23.9734 c 4.4933,-9.04 7.64,-18.8534 9.1466,-29.2134 0.7067,-4.68 1.0534,-9.4666 1.0534,-14.3333 0,-5.5333 -0.4534,-10.9733 -1.36,-16.2667 z m 0,0 -53.0934,8.9467 -43.3733,7.32 39.4,19.5733 48.2267,23.9734 c 4.4933,-9.04 7.64,-18.8534 9.1466,-29.2134 0.7067,-4.68 1.0534,-9.4666 1.0534,-14.3333 0,-5.5333 -0.4534,-10.9733 -1.36,-16.2667 z m 0,0 -53.0934,8.9467 -43.3733,7.32 39.4,19.5733 48.2267,23.9734 c 4.4933,-9.04 7.64,-18.8534 9.1466,-29.2134 0.7067,-4.68 1.0534,-9.4666 1.0534,-14.3333 0,-5.5333 -0.4534,-10.9733 -1.36,-16.2667 z m 0,0 -53.0934,8.9467 -43.3733,7.32 39.4,19.5733 48.2267,23.9734 c 4.4933,-9.04 7.64,-18.8534 9.1466,-29.2134 0.7067,-4.68 1.0534,-9.4666 1.0534,-14.3333 0,-5.5333 -0.4534,-10.9733 -1.36,-16.2667 z m 0,0 -53.0934,8.9467 -43.3733,7.32 39.4,19.5733 48.2267,23.9734 c 4.4933,-9.04 7.64,-18.8534 9.1466,-29.2134 0.7067,-4.68 1.0534,-9.4666 1.0534,-14.3333 0,-5.5333 -0.4534,-10.9733 -1.36,-16.2667 z m 0,0 -53.0934,8.9467 -43.3733,7.32 39.4,19.5733 48.2267,23.9734 c 4.4933,-9.04 7.64,-18.8534 9.1466,-29.2134 0.7067,-4.68 1.0534,-9.4666 1.0534,-14.3333 0,-5.5333 -0.4534,-10.9733 -1.36,-16.2667 z m 0,0 -53.0934,8.9467 -43.3733,7.32 39.4,19.5733 48.2267,23.9734 c 4.4933,-9.04 7.64,-18.8534 9.1466,-29.2134 0.7067,-4.68 1.0534,-9.4666 1.0534,-14.3333 0,-5.5333 -0.4534,-10.9733 -1.36,-16.2667 z m 0,0 -53.0934,8.9467 -43.3733,7.32 39.4,19.5733 48.2267,23.9734 c 4.4933,-9.04 7.64,-18.8534 9.1466,-29.2134 0.7067,-4.68 1.0534,-9.4666 1.0534,-14.3333 0,-5.5333 -0.4534,-10.9733 -1.36,-16.2667 z m 0,0 -53.0934,8.9467 -43.3733,7.32 39.4,19.5733 48.2267,23.9734 c 4.4933,-9.04 7.64,-18.8534 9.1466,-29.2134 0.7067,-4.68 1.0534,-9.4666 1.0534,-14.3333 0,-5.5333 -0.4534,-10.9733 -1.36,-16.2667 z m 0,0 -53.0934,8.9467 -43.3733,7.32 39.4,19.5733 48.2267,23.9734 c 4.4933,-9.04 7.64,-18.8534 9.1466,-29.2134 0.7067,-4.68 1.0534,-9.4666 1.0534,-14.3333 0,-5.5333 -0.4534,-10.9733 -1.36,-16.2667 z m -9.7467,-29.0266 c -4.76,-9.12 -10.9333,-17.4267 -18.24,-24.5734 l -37.68,38.4534 -30.8,31.4133 43.3733,-7.32 53.0934,-8.9467 c -1.7067,-10.32 -5.04,-20.0666 -9.7467,-29.0266 z m 0,0 c -4.76,-9.12 -10.9333,-17.4267 -18.24,-24.5734 l -37.68,38.4534 -30.8,31.4133 43.3733,-7.32 53.0934,-8.9467 c -1.7067,-10.32 -5.04,-20.0666 -9.7467,-29.0266 z m 0,0 c -4.76,-9.12 -10.9333,-17.4267 -18.24,-24.5734 l -37.68,38.4534 -30.8,31.4133 43.3733,-7.32 53.0934,-8.9467 c -1.7067,-10.32 -5.04,-20.0666 -9.7467,-29.0266 z m 0,0 c -4.76,-9.12 -10.9333,-17.4267 -18.24,-24.5734 l -37.68,38.4534 -30.8,31.4133 43.3733,-7.32 53.0934,-8.9467 c -1.7067,-10.32 -5.04,-20.0666 -9.7467,-29.0266 z m 0,0 c -4.76,-9.12 -10.9333,-17.4267 -18.24,-24.5734 l -37.68,38.4534 -30.8,31.4133 43.3733,-7.32 53.0934,-8.9467 c -1.7067,-10.32 -5.04,-20.0666 -9.7467,-29.0266 z m 0,0 c -4.76,-9.12 -10.9333,-17.4267 -18.24,-24.5734 l -37.68,38.4534 -30.8,31.4133 43.3733,-7.32 53.0934,-8.9467 c -1.7067,-10.32 -5.04,-20.0666 -9.7467,-29.0266 z m 0,0 c -4.76,-9.12 -10.9333,-17.4267 -18.24,-24.5734 l -37.68,38.4534 -30.8,31.4133 43.3733,-7.32 53.0934,-8.9467 c -1.7067,-10.32 -5.04,-20.0666 -9.7467,-29.0266 z m 0,0 c -4.76,-9.12 -10.9333,-17.4267 -18.24,-24.5734 l -37.68,38.4534 -30.8,31.4133 43.3733,-7.32 53.0934,-8.9467 c -1.7067,-10.32 -5.04,-20.0666 -9.7467,-29.0266 z m 0,0 c -4.76,-9.12 -10.9333,-17.4267 -18.24,-24.5734 l -37.68,38.4534 -30.8,31.4133 43.3733,-7.32 53.0934,-8.9467 c -1.7067,-10.32 -5.04,-20.0666 -9.7467,-29.0266 z m 0,0 c -4.76,-9.12 -10.9333,-17.4267 -18.24,-24.5734 l -37.68,38.4534 -30.8,31.4133 43.3733,-7.32 53.0934,-8.9467 c -1.7067,-10.32 -5.04,-20.0666 -9.7467,-29.0266 z m 0,0 c -4.76,-9.12 -10.9333,-17.4267 -18.24,-24.5734 l -37.68,38.4534 -30.8,31.4133 43.3733,-7.32 53.0934,-8.9467 c -1.7067,-10.32 -5.04,-20.0666 -9.7467,-29.0266 z m 0,0 c -4.76,-9.12 -10.9333,-17.4267 -18.24,-24.5734 l -37.68,38.4534 -30.8,31.4133 43.3733,-7.32 53.0934,-8.9467 c -1.7067,-10.32 -5.04,-20.0666 -9.7467,-29.0266 z m 0,0 c -4.76,-9.12 -10.9333,-17.4267 -18.24,-24.5734 l -37.68,38.4534 -30.8,31.4133 43.3733,-7.32 53.0934,-8.9467 c -1.7067,-10.32 -5.04,-20.0666 -9.7467,-29.0266 z m 0,0 c -4.76,-9.12 -10.9333,-17.4267 -18.24,-24.5734 l -37.68,38.4534 -30.8,31.4133 43.3733,-7.32 53.0934,-8.9467 c -1.7067,-10.32 -5.04,-20.0666 -9.7467,-29.0266 z m 0,0 c -4.76,-9.12 -10.9333,-17.4267 -18.24,-24.5734 l -37.68,38.4534 -30.8,31.4133 43.3733,-7.32 53.0934,-8.9467 c -1.7067,-10.32 -5.04,-20.0666 -9.7467,-29.0266 z m 0,0 c -4.76,-9.12 -10.9333,-17.4267 -18.24,-24.5734 l -37.68,38.4534 -30.8,31.4133 43.3733,-7.32 53.0934,-8.9467 c -1.7067,-10.32 -5.04,-20.0666 -9.7467,-29.0266 z m 0,0 c -4.76,-9.12 -10.9333,-17.4267 -18.24,-24.5734 l -37.68,38.4534 -30.8,31.4133 43.3733,-7.32 53.0934,-8.9467 c -1.7067,-10.32 -5.04,-20.0666 -9.7467,-29.0266 z m 9.7467,29.0266 c -1.7067,-10.32 -5.04,-20.0666 -9.7467,-29.0266 -4.76,-9.12 -10.9333,-17.4267 -18.24,-24.5734 -7.28,-7.16 -15.6933,-13.1733 -24.9333,-17.76 -9.0134,-4.52 -18.8267,-7.6666 -29.1867,-9.1733 -4.7067,-0.7067 -9.4933,-1.0533 -14.36,-1.0533 -5.5333,0 -10.9733,0.4533 -16.2667,1.36 -10.32,1.7066 -20.08,5.04 -29.04,9.7466 -9.1333,4.7867 -17.4266,10.9467 -24.56,18.2534 -7.16,7.2933 -13.1733,15.6933 -17.76,24.9333 -4.4933,9.0533 -7.64,18.8667 -9.1466,29.2267 h -0.027 c -0.68,4.6666 -1.0267,9.4533 -1.0267,14.3333 0,5.52 0.4534,10.9733 1.36,16.2533 1.7067,10.32 5.04,20.0667 9.7467,29.0267 4.76,9.1333 10.9333,17.4267 18.24,24.5867 7.28,7.1333 15.6933,13.1466 24.9333,17.7333 9.0134,4.52 18.8534,7.6533 29.2134,9.1733 v 0.027 c 4.68,0.68 9.4666,1.0267 14.3333,1.0267 5.5333,0 10.9733,-0.4667 16.2667,-1.36 10.32,-1.72 20.0666,-5.0534 29.0133,-9.7467 9.1333,-4.76 17.4267,-10.9333 24.5867,-18.24 7.1333,-7.2933 13.1466,-15.6933 17.76,-24.9333 4.4933,-9.04 7.64,-18.8534 9.1466,-29.2134 0.7067,-4.68 1.0534,-9.4666 1.0534,-14.3333 0,-5.5333 -0.4534,-10.9733 -1.36,-16.2667 z m -127.88,-14.5333 -38.4534,-37.6933 c -7.16,7.2933 -13.1733,15.6933 -17.76,24.9333 -4.4933,9.0533 -7.64,18.8667 -9.1466,29.2267 h -0.027 c -0.68,4.6666 -1.0267,9.4533 -1.0267,14.3333 0,5.52 0.4534,10.9733 1.36,16.2533 1.7067,10.32 5.04,20.0667 9.7467,29.0267 l 47.7333,-24.92 38.9867,-20.36 z"
     style="fill:none;stroke:#e2cdcc;stroke-width:3.33333;stroke-linecap:butt;stroke-linejoin:miter;stroke-miterlimit:10;stroke-dasharray:none;stroke-opacity:1"
     id="path264" />
  <path
     d="m 1702.5719,433.06666 -140.72,283.13337 c -58.2267,-29.01338 -121.56,-49.28005 -188.3067,-59.06671 l 46.3334,-312.69333 c 100.2,14.70667 195.2933,45.10667 282.6933,88.62667"
     style="fill:#e7e7e6;fill-opacity:1;fill-rule:nonzero;stroke:none;stroke-width:0.133333"
     id="path266" />
  <path
     d="m 1702.5719,433.06666 -140.72,283.13337 c -58.2267,-29.01338 -121.56,-49.28005 -188.3067,-59.06671 l 46.3334,-312.69333 c 100.2,14.70667 195.2933,45.10667 282.6933,88.62667 z"
     style="fill:none;stroke:#e2cdcc;stroke-width:3.33333;stroke-linecap:butt;stroke-linejoin:miter;stroke-miterlimit:10;stroke-dasharray:none;stroke-opacity:1"
     id="path268" />
  <path
     d="m 2120.5185,842.78663 -280.24,146.3333 c -30.8133,-58.9066 -70.6533,-112.3066 -117.6933,-158.4133 l 221.2533,-225.71998 c 70.6134,69.2 130.4267,149.38668 176.68,237.79998"
     style="fill:#e7e7e6;fill-opacity:1;fill-rule:nonzero;stroke:none;stroke-width:0.133333"
     id="path270" />
  <path
     d="m 2120.5185,842.78663 -280.24,146.3333 c -30.8133,-58.9066 -70.6533,-112.3066 -117.6933,-158.4133 l 221.2533,-225.71998 c 70.6134,69.2 130.4267,149.38668 176.68,237.79998 z"
     style="fill:none;stroke:#e2cdcc;stroke-width:3.33333;stroke-linecap:butt;stroke-linejoin:miter;stroke-miterlimit:10;stroke-dasharray:none;stroke-opacity:1"
     id="path272" />
  <path
     d="m 2227.8785,1281.1066 c 0,47.1467 -3.4533,93.48 -10.12,138.7867 l -312.6933,-46.3334 c 4.4267,-30.1866 6.7333,-61.0533 6.7333,-92.4533 0,-35.7333 -2.96,-70.7867 -8.6933,-104.9067 l 311.7333,-52.56 c 8.5867,51.2 13.04,103.8134 13.04,157.4667"
     style="fill:#e7e7e6;fill-opacity:1;fill-rule:nonzero;stroke:none;stroke-width:0.133333"
     id="path274" />
  <path
     d="m 2227.8785,1281.1066 c 0,47.1467 -3.4533,93.48 -10.12,138.7867 l -312.6933,-46.3334 c 4.4267,-30.1866 6.7333,-61.0533 6.7333,-92.4533 0,-35.7333 -2.96,-70.7867 -8.6933,-104.9067 l 311.7333,-52.56 c 8.5867,51.2 13.04,103.8134 13.04,157.4667 z"
     style="fill:none;stroke:#e2cdcc;stroke-width:3.33333;stroke-linecap:butt;stroke-linejoin:miter;stroke-miterlimit:10;stroke-dasharray:none;stroke-opacity:1"
     id="path276" />
  <path
     d="m 2129.1185,1702.5866 c -44.5066,89.3733 -102.7466,170.6933 -171.9066,241.2667 l -225.7334,-221.2534 c 46.0934,-47.0133 84.88,-101.1866 114.52,-160.7333 l 283.12,140.72"
     style="fill:#e7e7e6;fill-opacity:1;fill-rule:nonzero;stroke:none;stroke-width:0.133333"
     id="path278" />
  <path
     d="m 2129.1185,1702.5866 c -44.5066,89.3733 -102.7466,170.6933 -171.9066,241.2667 l -225.7334,-221.2534 c 46.0934,-47.0133 84.88,-101.1866 114.52,-160.7333 z"
     style="fill:none;stroke:#e2cdcc;stroke-width:3.33333;stroke-linecap:butt;stroke-linejoin:miter;stroke-miterlimit:10;stroke-dasharray:none;stroke-opacity:1"
     id="path280" />
  <path
     d="m 1719.4119,2120.5066 c -86.6,45.32 -181.0933,77.64 -280.88,94.3333 l -52.56,-311.72 c 66.4667,-11.1066 129.3867,-32.64 187.0933,-62.8266 l 146.3467,280.2133"
     style="fill:#e7e7e6;fill-opacity:1;fill-rule:nonzero;stroke:none;stroke-width:0.133333"
     id="path282" />
  <path
     d="m 1719.4119,2120.5066 c -86.6,45.32 -181.0933,77.64 -280.88,94.3333 l -52.56,-311.72 c 66.4667,-11.1066 129.3867,-32.64 187.0933,-62.8266 z"
     style="fill:none;stroke:#e2cdcc;stroke-width:3.33333;stroke-linecap:butt;stroke-linejoin:miter;stroke-miterlimit:10;stroke-dasharray:none;stroke-opacity:1"
     id="path284" />
  <path
     d="m 1188.6386,1905.0666 -46.3334,312.6933 c -100.2,-14.7067 -195.28927,-45.1066 -282.69327,-88.6266 l 140.69327,-283.1334 c 58.24,29.0134 121.5867,49.28 188.3334,59.0667"
     style="fill:#e7e7e6;fill-opacity:1;fill-rule:nonzero;stroke:none;stroke-width:0.133333"
     id="path286" />
  <path
     d="m 1188.6386,1905.0666 -46.3334,312.6933 c -100.2,-14.7067 -195.28927,-45.1066 -282.69327,-88.6266 l 140.69327,-283.1334 c 58.24,29.0134 121.5867,49.28 188.3334,59.0667 z"
     style="fill:none;stroke:#e2cdcc;stroke-width:3.33333;stroke-linecap:butt;stroke-linejoin:miter;stroke-miterlimit:10;stroke-dasharray:none;stroke-opacity:1"
     id="path288" />
  <path
     d="m 839.59323,1731.4933 -221.2533,225.7333 c -70.6133,-69.2133 -130.4267,-149.4 -176.652,-237.8133 l 280.2107,-146.3334 c 30.8173,58.8934 70.656,112.32 117.6946,158.4134"
     style="fill:#e7e7e6;fill-opacity:1;fill-rule:nonzero;stroke:none;stroke-width:0.133333"
     id="path290" />
  <path
     d="m 839.59323,1731.4933 -221.2533,225.7333 c -70.6133,-69.2133 -130.4267,-149.4 -176.652,-237.8133 l 280.2107,-146.3334 c 30.8173,58.8934 70.656,112.32 117.6946,158.4134 z"
     style="fill:none;stroke:#e2cdcc;stroke-width:3.33333;stroke-linecap:butt;stroke-linejoin:miter;stroke-miterlimit:10;stroke-dasharray:none;stroke-opacity:1"
     id="path292" />
  <path
     d="m 659.07863,1385.9733 -311.732,52.5733 c -8.5814,-51.2133 -13.0374,-103.8 -13.0374,-157.44 0,-47.1467 3.4454,-93.4933 10.1187,-138.8 l 312.6973,46.3467 c -4.4346,30.1733 -6.7386,61.04 -6.7386,92.4533 0,35.7333 2.9626,70.76 8.692,104.8667"
     style="fill:#e7e7e6;fill-opacity:1;fill-rule:nonzero;stroke:none;stroke-width:0.133333"
     id="path294" />
  <path
     d="m 659.07863,1385.9733 -311.732,52.5733 c -8.5814,-51.2133 -13.0374,-103.8 -13.0374,-157.44 0,-47.1467 3.4454,-93.4933 10.1187,-138.8 l 312.6973,46.3467 c -4.4346,30.1733 -6.7386,61.04 -6.7386,92.4533 0,35.7333 2.9626,70.76 8.692,104.8667 z"
     style="fill:none;stroke:#e2cdcc;stroke-width:3.33333;stroke-linecap:butt;stroke-linejoin:miter;stroke-miterlimit:10;stroke-dasharray:none;stroke-opacity:1"
     id="path296" />
  <path
     d="m 830.70393,839.60003 c -46.0947,46.9999 -84.88,101.1866 -114.512,160.71987 L 433.06123,859.59993 c 44.5147,-89.3866 102.7467,-170.70661 171.9107,-241.26661 l 225.732,221.26671"
     style="fill:#e7e7e6;fill-opacity:1;fill-rule:nonzero;stroke:none;stroke-width:0.133333"
     id="path298" />
  <path
     d="m 830.70393,839.60003 c -46.0947,46.9999 -84.88,101.1866 -114.512,160.71987 L 433.06123,859.59993 c 44.5147,-89.3866 102.7467,-170.70661 171.9107,-241.26661 z"
     style="fill:none;stroke:#e2cdcc;stroke-width:3.33333;stroke-linecap:butt;stroke-linejoin:miter;stroke-miterlimit:10;stroke-dasharray:none;stroke-opacity:1"
     id="path300" />
  <path
     d="m 1176.2119,659.09332 c -66.4667,11.10666 -129.3867,32.64 -187.09327,62.81331 l -146.32,-280.21331 c 86.592,-45.34666 181.06657,-77.62666 280.85327,-94.33333 l 52.56,311.73333"
     style="fill:#e7e7e6;fill-opacity:1;fill-rule:nonzero;stroke:none;stroke-width:0.133333"
     id="path302" />
  <path
     d="m 1176.2119,659.09332 c -66.4667,11.10666 -129.3867,32.64 -187.09327,62.81331 l -146.32,-280.21331 c 86.592,-45.34666 181.06657,-77.62666 280.85327,-94.33333 z"
     style="fill:none;stroke:#e2cdcc;stroke-width:3.33333;stroke-linecap:butt;stroke-linejoin:miter;stroke-miterlimit:10;stroke-dasharray:none;stroke-opacity:1"
     id="path304" />
  <path
     d="m 1943.8385,604.98665 -221.2533,225.71998 c -47.0133,-46.0933 -101.1866,-84.8666 -160.7333,-114.5066 l 140.72,-283.13337 c 89.3733,44.52 170.7066,102.73333 241.2666,171.91999"
     style="fill:#100f0d;fill-opacity:1;fill-rule:nonzero;stroke:none;stroke-width:0.133333"
     id="path306" />
  <path
     d="m 1943.8385,604.98665 -221.2533,225.71998 c -47.0133,-46.0933 -101.1866,-84.8666 -160.7333,-114.5066 l 140.72,-283.13337 c 89.3733,44.52 170.7066,102.73333 241.2666,171.91999 z"
     style="fill:none;stroke:#e2cdcc;stroke-width:3.33333;stroke-linecap:butt;stroke-linejoin:miter;stroke-miterlimit:10;stroke-dasharray:none;stroke-opacity:1"
     id="path308" />
  <path
     d="m 2214.8385,1123.6399 -311.7333,52.56 c -11.1067,-66.4666 -32.64,-129.3866 -62.8267,-187.07997 l 280.24,-146.3333 c 45.32,86.5867 77.6134,181.07997 94.32,280.85327"
     style="fill:#100f0d;fill-opacity:1;fill-rule:nonzero;stroke:none;stroke-width:0.133333"
     id="path310" />
  <path
     d="m 2214.8385,1123.6399 -311.7333,52.56 c -11.1067,-66.4666 -32.64,-129.3866 -62.8267,-187.07997 l 280.24,-146.3333 c 45.32,86.5867 77.6134,181.07997 94.32,280.85327 z"
     style="fill:none;stroke:#e2cdcc;stroke-width:3.33333;stroke-linecap:butt;stroke-linejoin:miter;stroke-miterlimit:10;stroke-dasharray:none;stroke-opacity:1"
     id="path312" />
  <path
     d="m 2217.7585,1419.8933 c -14.7066,100.2 -45.1066,195.28 -88.64,282.6933 l -283.12,-140.72 c 29.0134,-58.24 49.2667,-121.56 59.0667,-188.3067 l 312.6933,46.3334"
     style="fill:#100f0d;fill-opacity:1;fill-rule:nonzero;stroke:none;stroke-width:0.133333"
     id="path314" />
  <path
     d="m 2217.7585,1419.8933 c -14.7066,100.2 -45.1066,195.28 -88.64,282.6933 l -283.12,-140.72 c 29.0134,-58.24 49.2667,-121.56 59.0667,-188.3067 z"
     style="fill:none;stroke:#e2cdcc;stroke-width:3.33333;stroke-linecap:butt;stroke-linejoin:miter;stroke-miterlimit:10;stroke-dasharray:none;stroke-opacity:1"
     id="path316" />
  <path
     d="m 1957.2119,1943.8533 c -69.2134,70.6133 -149.3867,130.4266 -237.8,176.6533 l -146.3467,-280.2133 c 58.8934,-30.8134 112.32,-70.6534 158.4133,-117.6934 l 225.7334,221.2534"
     style="fill:#100f0d;fill-opacity:1;fill-rule:nonzero;stroke:none;stroke-width:0.133333"
     id="path318" />
  <path
     d="m 1957.2119,1943.8533 c -69.2134,70.6133 -149.3867,130.4266 -237.8,176.6533 l -146.3467,-280.2133 c 58.8934,-30.8134 112.32,-70.6534 158.4133,-117.6934 z"
     style="fill:none;stroke:#e2cdcc;stroke-width:3.33333;stroke-linecap:butt;stroke-linejoin:miter;stroke-miterlimit:10;stroke-dasharray:none;stroke-opacity:1"
     id="path320" />
  <path
     d="m 1438.5319,2214.8399 c -51.2,8.5867 -103.8,13.04 -157.44,13.04 -47.1467,0 -93.48,-3.44 -138.7867,-10.12 l 46.3334,-312.6933 c 30.1866,4.44 61.04,6.7467 92.4533,6.7467 35.7333,0 70.76,-2.9734 104.88,-8.6934 l 52.56,311.72"
     style="fill:#100f0d;fill-opacity:1;fill-rule:nonzero;stroke:none;stroke-width:0.133333"
     id="path322" />
  <path
     d="m 1438.5319,2214.8399 c -51.2,8.5867 -103.8,13.04 -157.44,13.04 -47.1467,0 -93.48,-3.44 -138.7867,-10.12 l 46.3334,-312.6933 c 30.1866,4.44 61.04,6.7467 92.4533,6.7467 35.7333,0 70.76,-2.9734 104.88,-8.6934 z"
     style="fill:none;stroke:#e2cdcc;stroke-width:3.33333;stroke-linecap:butt;stroke-linejoin:miter;stroke-miterlimit:10;stroke-dasharray:none;stroke-opacity:1"
     id="path324" />
  <path
     d="m 1000.3052,1845.9999 -140.69327,283.1334 h -0.023 c -89.3783,-44.52 -170.681,-102.7467 -241.249,-171.9067 l 221.2533,-225.7333 c 46.9947,46.0933 101.1894,84.88 160.71197,114.5066"
     style="fill:#100f0d;fill-opacity:1;fill-rule:nonzero;stroke:none;stroke-width:0.133333"
     id="path326" />
  <path
     d="m 1000.3052,1845.9999 -140.69327,283.1334 h -0.023 c -89.3783,-44.52 -170.681,-102.7467 -241.249,-171.9067 l 221.2533,-225.7333 c 46.9947,46.0933 101.1894,84.88 160.71197,114.5066 z"
     style="fill:none;stroke:#e2cdcc;stroke-width:3.33333;stroke-linecap:butt;stroke-linejoin:miter;stroke-miterlimit:10;stroke-dasharray:none;stroke-opacity:1"
     id="path328" />
  <path
     d="m 721.89863,1573.0799 -280.2107,146.3334 c -45.3267,-86.5867 -77.6373,-181.08 -94.3413,-280.8667 l 311.732,-52.5733 c 11.1066,66.4666 32.6386,129.4 62.82,187.1066"
     style="fill:#100f0d;fill-opacity:1;fill-rule:nonzero;stroke:none;stroke-width:0.133333"
     id="path330" />
  <path
     d="m 721.89863,1573.0799 -280.2107,146.3334 c -45.3267,-86.5867 -77.6373,-181.08 -94.3413,-280.8667 l 311.732,-52.5733 c 11.1066,66.4666 32.6386,129.4 62.82,187.1066 z"
     style="fill:none;stroke:#e2cdcc;stroke-width:3.33333;stroke-linecap:butt;stroke-linejoin:miter;stroke-miterlimit:10;stroke-dasharray:none;stroke-opacity:1"
     id="path332" />
  <path
     d="m 716.19193,1000.3199 c -29.0173,58.2267 -49.2773,121.5734 -59.0667,188.3334 l -312.6973,-46.3467 c 14.7067,-100.2 45.1067,-195.30667 88.6333,-282.70667 l 283.1307,140.71997"
     style="fill:#100f0d;fill-opacity:1;fill-rule:nonzero;stroke:none;stroke-width:0.133333"
     id="path334" />
  <path
     d="m 716.19193,1000.3199 c -29.0173,58.2267 -49.2773,121.5734 -59.0667,188.3334 l -312.6973,-46.3467 c 14.7067,-100.2 45.1067,-195.30667 88.6333,-282.70667 z"
     style="fill:none;stroke:#e2cdcc;stroke-width:3.33333;stroke-linecap:butt;stroke-linejoin:miter;stroke-miterlimit:10;stroke-dasharray:none;stroke-opacity:1"
     id="path336" />
  <path
     d="m 989.11863,721.90663 c -58.8947,30.8134 -112.32,70.6534 -158.4147,117.6934 l -225.732,-221.26671 c 69.2293,-70.61333 149.412,-130.41333 237.8267,-176.64 l 146.32,280.21331"
     style="fill:#100f0d;fill-opacity:1;fill-rule:nonzero;stroke:none;stroke-width:0.133333"
     id="path338" />
  <path
     d="m 989.11863,721.90663 c -58.8947,30.8134 -112.32,70.6534 -158.4147,117.6934 l -225.732,-221.26671 c 69.2293,-70.61333 149.412,-130.41333 237.8267,-176.64 z"
     style="fill:none;stroke:#e2cdcc;stroke-width:3.33333;stroke-linecap:butt;stroke-linejoin:miter;stroke-miterlimit:10;stroke-dasharray:none;stroke-opacity:1"
     id="path340" />
  <path
     d="m 1419.8786,344.43999 -46.3334,312.69333 c -30.1866,-4.42667 -61.04,-6.73334 -92.4533,-6.73334 -35.7333,0 -70.76,2.96 -104.88,8.69334 l -52.56,-311.73333 c 51.2,-8.58666 103.8,-13.04 157.44,-13.04 47.1467,0 93.48,3.44 138.7867,10.12"
     style="fill:#100f0d;fill-opacity:1;fill-rule:nonzero;stroke:none;stroke-width:0.133333"
     id="path342" />
  <path
     d="m 1419.8786,344.43999 -46.3334,312.69333 c -30.1866,-4.42667 -61.04,-6.73334 -92.4533,-6.73334 -35.7333,0 -70.76,2.96 -104.88,8.69334 l -52.56,-311.73333 c 51.2,-8.58666 103.8,-13.04 157.44,-13.04 47.1467,0 93.48,3.44 138.7867,10.12 z"
     style="fill:none;stroke:#e2cdcc;stroke-width:3.33333;stroke-linecap:butt;stroke-linejoin:miter;stroke-miterlimit:10;stroke-dasharray:none;stroke-opacity:1"
     id="path344" />
  <path
     d="m 716.21323,1376.3466 -57.1346,9.6267 c -5.7294,-34.1067 -8.692,-69.1334 -8.692,-104.8667 0,-31.4133 2.304,-62.28 6.7386,-92.4533 l 57.332,8.4933 c -4.0386,27.3867 -6.124,55.4267 -6.124,83.96 0,32.44 2.7,64.2667 7.88,95.24"
     style="fill:#26853f;fill-opacity:1;fill-rule:nonzero;stroke:none;stroke-width:0.133333"
     id="path346" />
  <path
     d="m 716.21323,1376.3466 -57.1346,9.6267 c -5.7294,-34.1067 -8.692,-69.1334 -8.692,-104.8667 0,-31.4133 2.304,-62.28 6.7386,-92.4533 l 57.332,8.4933 c -4.0386,27.3867 -6.124,55.4267 -6.124,83.96 0,32.44 2.7,64.2667 7.88,95.24 z"
     style="fill:none;stroke:#e2cdcc;stroke-width:3.33333;stroke-linecap:butt;stroke-linejoin:miter;stroke-miterlimit:10;stroke-dasharray:none;stroke-opacity:1"
     id="path348" />
  <path
     d="m 1911.7985,1281.1066 c 0,31.4 -2.3066,62.2667 -6.7333,92.4533 l -57.3333,-8.5066 c 4.0266,-27.3867 6.12,-55.4134 6.12,-83.9467 0,-32.4667 -2.7067,-64.2933 -7.88,-95.2667 l 57.1333,-9.64 c 5.7333,34.12 8.6933,69.1734 8.6933,104.9067"
     style="fill:#26853f;fill-opacity:1;fill-rule:nonzero;stroke:none;stroke-width:0.133333"
     id="path350" />
  <path
     d="m 1911.7985,1281.1066 c 0,31.4 -2.3066,62.2667 -6.7333,92.4533 l -57.3333,-8.5066 c 4.0266,-27.3867 6.12,-55.4134 6.12,-83.9467 0,-32.4667 -2.7067,-64.2933 -7.88,-95.2667 l 57.1333,-9.64 c 5.7333,34.12 8.6933,69.1734 8.6933,104.9067 z"
     style="fill:none;stroke:#e2cdcc;stroke-width:3.33333;stroke-linecap:butt;stroke-linejoin:miter;stroke-miterlimit:10;stroke-dasharray:none;stroke-opacity:1"
     id="path352" />
  <path
     d="m 1722.5852,830.70663 -40.56,41.3867 c -42.6666,-41.8667 -91.88,-77.0667 -145.96,-104 l 25.7867,-51.8933 c 59.5467,29.64 113.72,68.4133 160.7333,114.5066"
     style="fill:#dd1b39;fill-opacity:1;fill-rule:nonzero;stroke:none;stroke-width:0.133333"
     id="path354" />
  <path
     d="m 1722.5852,830.70663 -40.56,41.3867 c -42.6666,-41.8667 -91.88,-77.0667 -145.96,-104 l 25.7867,-51.8933 c 59.5467,29.64 113.72,68.4133 160.7333,114.5066 z"
     style="fill:none;stroke:#e2cdcc;stroke-width:3.33333;stroke-linecap:butt;stroke-linejoin:miter;stroke-miterlimit:10;stroke-dasharray:none;stroke-opacity:1"
     id="path356" />
  <path
     d="m 1373.5452,657.13332 -8.4933,57.33331 c -27.4,-4.03998 -55.4267,-6.11998 -83.96,-6.11998 -32.44,0 -64.2667,2.69333 -95.24,7.87998 l -9.64,-57.13331 c 34.12,-5.73334 69.1467,-8.69334 104.88,-8.69334 31.4133,0 62.2667,2.30667 92.4533,6.73334"
     style="fill:#dd1b39;fill-opacity:1;fill-rule:nonzero;stroke:none;stroke-width:0.133333"
     id="path358" />
  <path
     d="m 1373.5452,657.13332 -8.4933,57.33331 c -27.4,-4.03998 -55.4267,-6.11998 -83.96,-6.11998 -32.44,0 -64.2667,2.69333 -95.24,7.87998 l -9.64,-57.13331 c 34.12,-5.73334 69.1467,-8.69334 104.88,-8.69334 31.4133,0 62.2667,2.30667 92.4533,6.73334 z"
     style="fill:none;stroke:#e2cdcc;stroke-width:3.33333;stroke-linecap:butt;stroke-linejoin:miter;stroke-miterlimit:10;stroke-dasharray:none;stroke-opacity:1"
     id="path360" />
  <path
     d="m 1015.9319,773.29333 c -53.46267,27.96 -101.97197,64.16 -143.85327,106.88 l -41.3747,-40.5733 c 46.0947,-47.04 99.52,-86.88 158.4147,-117.6934 l 26.81327,51.3867"
     style="fill:#dd1b39;fill-opacity:1;fill-rule:nonzero;stroke:none;stroke-width:0.133333"
     id="path362" />
  <path
     d="m 1015.9319,773.29333 c -53.46267,27.96 -101.97197,64.16 -143.85327,106.88 l -41.3747,-40.5733 c 46.0947,-47.04 99.52,-86.88 158.4147,-117.6934 z"
     style="fill:none;stroke:#e2cdcc;stroke-width:3.33333;stroke-linecap:butt;stroke-linejoin:miter;stroke-miterlimit:10;stroke-dasharray:none;stroke-opacity:1"
     id="path364" />
  <path
     d="m 768.08123,1026.1066 c -26.34,52.88 -44.7333,110.4133 -53.624,171.04 l -57.332,-8.4933 c 9.7894,-66.76 30.0494,-130.1067 59.0667,-188.3334 l 51.8893,25.7867"
     style="fill:#dd1b39;fill-opacity:1;fill-rule:nonzero;stroke:none;stroke-width:0.133333"
     id="path366" />
  <path
     d="m 768.08123,1026.1066 c -26.34,52.88 -44.7333,110.4133 -53.624,171.04 l -57.332,-8.4933 c 9.7894,-66.76 30.0494,-130.1067 59.0667,-188.3334 z"
     style="fill:none;stroke:#e2cdcc;stroke-width:3.33333;stroke-linecap:butt;stroke-linejoin:miter;stroke-miterlimit:10;stroke-dasharray:none;stroke-opacity:1"
     id="path368" />
  <path
     d="m 773.28263,1546.2533 -51.384,26.8266 c -30.1814,-57.7066 -51.7134,-120.64 -62.82,-187.1066 l 57.1346,-9.6267 c 10.0974,60.36 29.6547,117.52 57.0694,169.9067"
     style="fill:#dd1b39;fill-opacity:1;fill-rule:nonzero;stroke:none;stroke-width:0.133333"
     id="path370" />
  <path
     d="m 773.28263,1546.2533 -51.384,26.8266 c -30.1814,-57.7066 -51.7134,-120.64 -62.82,-187.1066 l 57.1346,-9.6267 c 10.0974,60.36 29.6547,117.52 57.0694,169.9067 z"
     style="fill:none;stroke:#e2cdcc;stroke-width:3.33333;stroke-linecap:butt;stroke-linejoin:miter;stroke-miterlimit:10;stroke-dasharray:none;stroke-opacity:1"
     id="path372" />
  <path
     d="m 1026.1186,1794.0933 -25.8134,51.9066 c -59.52257,-29.6266 -113.71727,-68.4133 -160.71197,-114.5066 l 40.564,-41.3734 c 42.6707,41.8267 91.8814,77.0667 145.96137,103.9734"
     style="fill:#dd1b39;fill-opacity:1;fill-rule:nonzero;stroke:none;stroke-width:0.133333"
     id="path374" />
  <path
     d="m 1026.1186,1794.0933 -25.8134,51.9066 c -59.52257,-29.6266 -113.71727,-68.4133 -160.71197,-114.5066 l 40.564,-41.3734 c 42.6707,41.8267 91.8814,77.0667 145.96137,103.9734 z"
     style="fill:none;stroke:#e2cdcc;stroke-width:3.33333;stroke-linecap:butt;stroke-linejoin:miter;stroke-miterlimit:10;stroke-dasharray:none;stroke-opacity:1"
     id="path376" />
  <path
     d="m 1385.9719,1903.1199 c -34.12,5.72 -69.1467,8.6934 -104.88,8.6934 -31.4133,0 -62.2667,-2.3067 -92.4533,-6.7467 l 8.4933,-57.3467 c 27.4,4.0267 55.4267,6.12 83.96,6.12 32.44,0 64.2667,-2.7066 95.24,-7.88 l 9.64,57.16"
     style="fill:#dd1b39;fill-opacity:1;fill-rule:nonzero;stroke:none;stroke-width:0.133333"
     id="path378" />
  <path
     d="m 1385.9719,1903.1199 c -34.12,5.72 -69.1467,8.6934 -104.88,8.6934 -31.4133,0 -62.2667,-2.3067 -92.4533,-6.7467 l 8.4933,-57.3467 c 27.4,4.0267 55.4267,6.12 83.96,6.12 32.44,0 64.2667,-2.7066 95.24,-7.88 z"
     style="fill:none;stroke:#e2cdcc;stroke-width:3.33333;stroke-linecap:butt;stroke-linejoin:miter;stroke-miterlimit:10;stroke-dasharray:none;stroke-opacity:1"
     id="path380" />
  <path
     d="m 1731.4785,1722.5999 c -46.0933,47.04 -99.5199,86.88 -158.4133,117.6934 l -26.8133,-51.4 c 53.4667,-27.9734 101.9733,-64.1467 143.8533,-106.8534 l 41.3733,40.56"
     style="fill:#dd1b39;fill-opacity:1;fill-rule:nonzero;stroke:none;stroke-width:0.133333"
     id="path382" />
  <path
     d="m 1731.4785,1722.5999 c -46.0933,47.04 -99.5199,86.88 -158.4133,117.6934 l -26.8133,-51.4 c 53.4667,-27.9734 101.9733,-64.1467 143.8533,-106.8534 z"
     style="fill:none;stroke:#e2cdcc;stroke-width:3.33333;stroke-linecap:butt;stroke-linejoin:miter;stroke-miterlimit:10;stroke-dasharray:none;stroke-opacity:1"
     id="path384" />
  <path
     d="m 1378.9186,1281.1066 c 0,4.8667 -0.3467,9.6533 -1.0534,14.3333 -1.5066,10.36 -4.6533,20.1734 -9.1466,29.2134 -4.6134,9.24 -10.6267,17.64 -17.76,24.9333 -7.16,7.3067 -15.4534,13.48 -24.5867,18.24 -8.9467,4.6933 -18.6933,8.0267 -29.0133,9.7467 -5.2934,0.8933 -10.7334,1.36 -16.2667,1.36 -4.8667,0 -9.6533,-0.3467 -14.3333,-1.0267 v -0.027 c -10.36,-1.52 -20.2,-4.6533 -29.2134,-9.1733 -9.24,-4.5867 -17.6533,-10.6 -24.9333,-17.7333 -7.3067,-7.16 -13.48,-15.4534 -18.24,-24.5867 -4.7067,-8.96 -8.04,-18.7067 -9.7467,-29.0267 -0.9066,-5.28 -1.36,-10.7333 -1.36,-16.2533 0,-4.88 0.3467,-9.6667 1.0267,-14.3333 h 0.027 c 1.5066,-10.36 4.6533,-20.1734 9.1466,-29.2267 4.5867,-9.24 10.6,-17.64 17.76,-24.9333 7.1334,-7.3067 15.4267,-13.4667 24.56,-18.2534 8.96,-4.7066 18.72,-8.04 29.04,-9.7466 5.2934,-0.9067 10.7334,-1.36 16.2667,-1.36 4.8667,0 9.6533,0.3466 14.36,1.0533 10.36,1.5067 20.1733,4.6533 29.1867,9.1733 9.24,4.5867 17.6533,10.6 24.9333,17.76 7.3067,7.1467 13.48,15.4534 18.24,24.5734 4.7067,8.96 8.04,18.7066 9.7467,29.0266 0.9066,5.2934 1.36,10.7334 1.36,16.2667 z"
     style="fill:none;stroke:#e2cdcc;stroke-width:3.33333;stroke-linecap:butt;stroke-linejoin:miter;stroke-miterlimit:10;stroke-dasharray:none;stroke-opacity:1"
     id="path386" />
  <path
     d="m 1903.1052,1176.1999 -57.1333,9.64 c -10.12,-60.36 -29.6534,-117.4933 -57.0667,-169.8933 l 51.3733,-26.82667 c 30.1867,57.69337 51.72,120.61337 62.8267,187.07997"
     style="fill:#dd1b39;fill-opacity:1;fill-rule:nonzero;stroke:none;stroke-width:0.133333"
     id="path388" />
  <path
     d="m 1903.1052,1176.1999 -57.1333,9.64 c -10.12,-60.36 -29.6534,-117.4933 -57.0667,-169.8933 l 51.3733,-26.82667 c 30.1867,57.69337 51.72,120.61337 62.8267,187.07997 z"
     style="fill:none;stroke:#e2cdcc;stroke-width:3.33333;stroke-linecap:butt;stroke-linejoin:miter;stroke-miterlimit:10;stroke-dasharray:none;stroke-opacity:1"
     id="path390" />
  <path
     d="m 1905.0652,1373.5599 c -9.8,66.7467 -30.0533,130.0667 -59.0667,188.3067 l -51.8933,-25.8 c 26.3333,-52.8667 44.7333,-110.3867 53.6267,-171.0133 l 57.3333,8.5066"
     style="fill:#dd1b39;fill-opacity:1;fill-rule:nonzero;stroke:none;stroke-width:0.133333"
     id="path392" />
  <path
     d="m 1905.0652,1373.5599 c -9.8,66.7467 -30.0533,130.0667 -59.0667,188.3067 l -51.8933,-25.8 c 26.3333,-52.8667 44.7333,-110.3867 53.6267,-171.0133 z"
     style="fill:none;stroke:#e2cdcc;stroke-width:3.33333;stroke-linecap:butt;stroke-linejoin:miter;stroke-miterlimit:10;stroke-dasharray:none;stroke-opacity:1"
     id="path394" />
  <path
     d="m 1365.0519,714.46663 -69.6,469.83997 c -4.7067,-0.7067 -9.4933,-1.0533 -14.36,-1.0533 -5.5333,0 -10.9733,0.4533 -16.2667,1.36 l -78.9733,-468.38667 c 30.9733,-5.18665 62.8,-7.87998 95.24,-7.87998 28.5333,0 56.56,2.08 83.96,6.11998"
     style="fill:#100f0d;fill-opacity:1;fill-rule:nonzero;stroke:none;stroke-width:0.133333"
     id="path396" />
  <path
     d="m 1365.0519,714.46663 -69.6,469.83997 c -4.7067,-0.7067 -9.4933,-1.0533 -14.36,-1.0533 -5.5333,0 -10.9733,0.4533 -16.2667,1.36 l -78.9733,-468.38667 c 30.9733,-5.18665 62.8,-7.87998 95.24,-7.87998 28.5333,0 56.56,2.08 83.96,6.11998 z"
     style="fill:none;stroke:#e2cdcc;stroke-width:3.33333;stroke-linecap:butt;stroke-linejoin:miter;stroke-miterlimit:10;stroke-dasharray:none;stroke-opacity:1"
     id="path398" />
  <path
     d="m 1235.7852,1194.3599 c -9.1333,4.7867 -17.4266,10.9467 -24.56,18.2534 L 872.07863,880.17333 c 41.8813,-42.72 90.3906,-78.92 143.85327,-106.88 l 219.8533,421.06657"
     style="fill:#100f0d;fill-opacity:1;fill-rule:nonzero;stroke:none;stroke-width:0.133333"
     id="path400" />
  <path
     d="m 1235.7852,1194.3599 c -9.1333,4.7867 -17.4266,10.9467 -24.56,18.2534 L 872.07863,880.17333 c 41.8813,-42.72 90.3906,-78.92 143.85327,-106.88 z"
     style="fill:none;stroke:#e2cdcc;stroke-width:3.33333;stroke-linecap:butt;stroke-linejoin:miter;stroke-miterlimit:10;stroke-dasharray:none;stroke-opacity:1"
     id="path402" />
  <path
     d="m 1193.4652,1237.5466 c -4.4933,9.0533 -7.64,18.8667 -9.1466,29.2267 h -0.027 l -469.83437,-69.6267 c 8.8907,-60.6267 27.284,-118.16 53.624,-171.04 l 425.38397,211.44"
     style="fill:#100f0d;fill-opacity:1;fill-rule:nonzero;stroke:none;stroke-width:0.133333"
     id="path404" />
  <path
     d="m 1193.4652,1237.5466 c -4.4933,9.0533 -7.64,18.8667 -9.1466,29.2267 h -0.027 l -469.83437,-69.6267 c 8.8907,-60.6267 27.284,-118.16 53.624,-171.04 z"
     style="fill:none;stroke:#e2cdcc;stroke-width:3.33333;stroke-linecap:butt;stroke-linejoin:miter;stroke-miterlimit:10;stroke-dasharray:none;stroke-opacity:1"
     id="path406" />
  <path
     d="m 1194.3719,1326.3866 -421.08927,219.8667 c -27.4147,-52.3867 -46.972,-109.5467 -57.0694,-169.9067 l 468.41197,-78.9867 c 1.7067,10.32 5.04,20.0667 9.7467,29.0267"
     style="fill:#100f0d;fill-opacity:1;fill-rule:nonzero;stroke:none;stroke-width:0.133333"
     id="path408" />
  <path
     d="m 1194.3719,1326.3866 -421.08927,219.8667 c -27.4147,-52.3867 -46.972,-109.5467 -57.0694,-169.9067 l 468.41197,-78.9867 c 1.7067,10.32 5.04,20.0667 9.7467,29.0267 z"
     style="fill:none;stroke:#e2cdcc;stroke-width:3.33333;stroke-linecap:butt;stroke-linejoin:miter;stroke-miterlimit:10;stroke-dasharray:none;stroke-opacity:1"
     id="path410" />
  <path
     d="m 1237.5452,1368.7066 -211.4266,425.3867 c -54.07997,-26.9067 -103.29067,-62.1467 -145.96137,-103.9734 l 332.45467,-339.1466 c 7.28,7.1333 15.6933,13.1466 24.9333,17.7333"
     style="fill:#100f0d;fill-opacity:1;fill-rule:nonzero;stroke:none;stroke-width:0.133333"
     id="path412" />
  <path
     d="m 1237.5452,1368.7066 -211.4266,425.3867 c -54.07997,-26.9067 -103.29067,-62.1467 -145.96137,-103.9734 l 332.45467,-339.1466 c 7.28,7.1333 15.6933,13.1466 24.9333,17.7333 z"
     style="fill:none;stroke:#e2cdcc;stroke-width:3.33333;stroke-linecap:butt;stroke-linejoin:miter;stroke-miterlimit:10;stroke-dasharray:none;stroke-opacity:1"
     id="path414" />
  <path
     d="m 1376.3319,1845.9599 c -30.9733,5.1734 -62.8,7.88 -95.24,7.88 -28.5333,0 -56.56,-2.0933 -83.96,-6.12 l 69.6267,-469.8133 c 4.68,0.68 9.4666,1.0267 14.3333,1.0267 5.5333,0 10.9733,-0.4667 16.2667,-1.36 l 78.9733,468.3866"
     style="fill:#100f0d;fill-opacity:1;fill-rule:nonzero;stroke:none;stroke-width:0.133333"
     id="path416" />
  <path
     d="m 1376.3319,1845.9599 c -30.9733,5.1734 -62.8,7.88 -95.24,7.88 -28.5333,0 -56.56,-2.0933 -83.96,-6.12 l 69.6267,-469.8133 c 4.68,0.68 9.4666,1.0267 14.3333,1.0267 5.5333,0 10.9733,-0.4667 16.2667,-1.36 z"
     style="fill:none;stroke:#e2cdcc;stroke-width:3.33333;stroke-linecap:butt;stroke-linejoin:miter;stroke-miterlimit:10;stroke-dasharray:none;stroke-opacity:1"
     id="path418" />
  <path
     d="m 1690.1052,1682.0399 c -41.88,42.7067 -90.3866,78.88 -143.8533,106.8534 l -219.88,-421.0667 c 9.1333,-4.76 17.4267,-10.9333 24.5867,-18.24 l 339.1466,332.4533"
     style="fill:#100f0d;fill-opacity:1;fill-rule:nonzero;stroke:none;stroke-width:0.133333"
     id="path420" />
  <path
     d="m 1690.1052,1682.0399 c -41.88,42.7067 -90.3866,78.88 -143.8533,106.8534 l -219.88,-421.0667 c 9.1333,-4.76 17.4267,-10.9333 24.5867,-18.24 z"
     style="fill:none;stroke:#e2cdcc;stroke-width:3.33333;stroke-linecap:butt;stroke-linejoin:miter;stroke-miterlimit:10;stroke-dasharray:none;stroke-opacity:1"
     id="path422" />
  <path
     d="m 1847.7319,1365.0533 c -8.8934,60.6266 -27.2934,118.1466 -53.6267,171.0133 l -425.3866,-211.4133 c 4.4933,-9.04 7.64,-18.8534 9.1466,-29.2134 l 469.8667,69.6134"
     style="fill:#100f0d;fill-opacity:1;fill-rule:nonzero;stroke:none;stroke-width:0.133333"
     id="path424" />
  <path
     d="m 1847.7319,1365.0533 c -8.8934,60.6266 -27.2934,118.1466 -53.6267,171.0133 l -425.3866,-211.4133 c 4.4933,-9.04 7.64,-18.8534 9.1466,-29.2134 z"
     style="fill:none;stroke:#e2cdcc;stroke-width:3.33333;stroke-linecap:butt;stroke-linejoin:miter;stroke-miterlimit:10;stroke-dasharray:none;stroke-opacity:1"
     id="path426" />
  <path
     d="m 1845.9719,1185.8399 -468.4133,79 c -1.7067,-10.32 -5.04,-20.0666 -9.7467,-29.0266 l 421.0933,-219.8667 c 27.4133,52.4 46.9467,109.5333 57.0667,169.8933"
     style="fill:#100f0d;fill-opacity:1;fill-rule:nonzero;stroke:none;stroke-width:0.133333"
     id="path428" />
  <path
     d="m 1845.9719,1185.8399 -468.4133,79 c -1.7067,-10.32 -5.04,-20.0666 -9.7467,-29.0266 l 421.0933,-219.8667 c 27.4133,52.4 46.9467,109.5333 57.0667,169.8933 z"
     style="fill:none;stroke:#e2cdcc;stroke-width:3.33333;stroke-linecap:butt;stroke-linejoin:miter;stroke-miterlimit:10;stroke-dasharray:none;stroke-opacity:1"
     id="path430" />
  <path
     d="m 1682.0252,872.09333 -332.4533,339.14657 c -7.28,-7.16 -15.6933,-13.1733 -24.9333,-17.76 l 211.4266,-425.38657 c 54.08,26.9333 103.2934,62.1333 145.96,104"
     style="fill:#100f0d;fill-opacity:1;fill-rule:nonzero;stroke:none;stroke-width:0.133333"
     id="path432" />
  <path
     d="m 1682.0252,872.09333 -332.4533,339.14657 c -7.28,-7.16 -15.6933,-13.1733 -24.9333,-17.76 l 211.4266,-425.38657 c 54.08,26.9333 103.2934,62.1333 145.96,104 z"
     style="fill:none;stroke:#e2cdcc;stroke-width:3.33333;stroke-linecap:butt;stroke-linejoin:miter;stroke-miterlimit:10;stroke-dasharray:none;stroke-opacity:1"
     id="path434" />
  <path
     d="m 1264.8252,1184.6133 c -10.32,1.7066 -20.08,5.04 -29.04,9.7466 L 1015.9319,773.29333 c 52.4,-27.4133 109.56,-46.9733 169.92,-57.0667 l 78.9733,468.38667"
     style="fill:#e7e7e6;fill-opacity:1;fill-rule:nonzero;stroke:none;stroke-width:0.133333"
     id="path436" />
  <path
     d="m 1264.8252,1184.6133 c -10.32,1.7066 -20.08,5.04 -29.04,9.7466 L 1015.9319,773.29333 c 52.4,-27.4133 109.56,-46.9733 169.92,-57.0667 z"
     style="fill:none;stroke:#e2cdcc;stroke-width:3.33333;stroke-linecap:butt;stroke-linejoin:miter;stroke-miterlimit:10;stroke-dasharray:none;stroke-opacity:1"
     id="path438" />
  <path
     d="m 1211.2252,1212.6133 c -7.16,7.2933 -13.1733,15.6933 -17.76,24.9333 l -425.38397,-211.44 c 26.932,-54.05327 62.1614,-103.26667 103.9974,-145.93327 l 339.14657,332.43997"
     style="fill:#e7e7e6;fill-opacity:1;fill-rule:nonzero;stroke:none;stroke-width:0.133333"
     id="path440" />
  <path
     d="m 1211.2252,1212.6133 c -7.16,7.2933 -13.1733,15.6933 -17.76,24.9333 l -425.38397,-211.44 c 26.932,-54.05327 62.1614,-103.26667 103.9974,-145.93327 z"
     style="fill:none;stroke:#e2cdcc;stroke-width:3.33333;stroke-linecap:butt;stroke-linejoin:miter;stroke-miterlimit:10;stroke-dasharray:none;stroke-opacity:1"
     id="path442" />
  <path
     d="m 1184.6252,1297.3599 -468.41197,78.9867 c -5.18,-30.9733 -7.88,-62.8 -7.88,-95.24 0,-28.5333 2.0854,-56.5733 6.124,-83.96 l 469.83467,69.6267 c -0.68,4.6666 -1.0267,9.4533 -1.0267,14.3333 0,5.52 0.4534,10.9733 1.36,16.2533"
     style="fill:#e7e7e6;fill-opacity:1;fill-rule:nonzero;stroke:none;stroke-width:0.133333"
     id="path444" />
  <path
     d="m 1184.6252,1297.3599 -468.41197,78.9867 c -5.18,-30.9733 -7.88,-62.8 -7.88,-95.24 0,-28.5333 2.0854,-56.5733 6.124,-83.96 l 469.83467,69.6267 c -0.68,4.6666 -1.0267,9.4533 -1.0267,14.3333 0,5.52 0.4534,10.9733 1.36,16.2533 z"
     style="fill:none;stroke:#e2cdcc;stroke-width:3.33333;stroke-linecap:butt;stroke-linejoin:miter;stroke-miterlimit:10;stroke-dasharray:none;stroke-opacity:1"
     id="path446" />
  <path
     d="m 1212.6119,1350.9733 -332.45467,339.1466 c -42.7146,-41.88 -78.9093,-90.4 -106.8746,-143.8666 l 421.08927,-219.8667 c 4.76,9.1333 10.9333,17.4267 18.24,24.5867"
     style="fill:#e7e7e6;fill-opacity:1;fill-rule:nonzero;stroke:none;stroke-width:0.133333"
     id="path448" />
  <path
     d="m 1212.6119,1350.9733 -332.45467,339.1466 c -42.7146,-41.88 -78.9093,-90.4 -106.8746,-143.8666 l 421.08927,-219.8667 c 4.76,9.1333 10.9333,17.4267 18.24,24.5867 z"
     style="fill:none;stroke:#e2cdcc;stroke-width:3.33333;stroke-linecap:butt;stroke-linejoin:miter;stroke-miterlimit:10;stroke-dasharray:none;stroke-opacity:1"
     id="path450" />
  <path
     d="m 1266.7586,1377.8799 v 0.027 l -69.6267,469.8133 c -60.6267,-8.8936 -118.1333,-27.2936 -171.0133,-53.6269 l 211.4266,-425.3867 c 9.0134,4.52 18.8534,7.6533 29.2134,9.1733"
     style="fill:#e7e7e6;fill-opacity:1;fill-rule:nonzero;stroke:none;stroke-width:0.133333"
     id="path452" />
  <path
     d="m 1266.7586,1377.8799 v 0.027 l -69.6267,469.8133 c -60.6267,-8.8936 -118.1333,-27.2936 -171.0133,-53.6269 l 211.4266,-425.3867 c 9.0134,4.52 18.8534,7.6533 29.2134,9.1733 z"
     style="fill:none;stroke:#e2cdcc;stroke-width:3.33333;stroke-linecap:butt;stroke-linejoin:miter;stroke-miterlimit:10;stroke-dasharray:none;stroke-opacity:1"
     id="path454" />
  <path
     d="m 1546.2519,1788.8933 c -52.4,27.4133 -109.56,46.9733 -169.92,57.0666 l -78.9733,-468.3866 c 10.32,-1.72 20.0666,-5.0534 29.0133,-9.7467 l 219.88,421.0667"
     style="fill:#e7e7e6;fill-opacity:1;fill-rule:nonzero;stroke:none;stroke-width:0.133333"
     id="path456" />
  <path
     d="m 1546.2519,1788.8933 c -52.4,27.4133 -109.56,46.9733 -169.92,57.0666 l -78.9733,-468.3866 c 10.32,-1.72 20.0666,-5.0534 29.0133,-9.7467 z"
     style="fill:none;stroke:#e2cdcc;stroke-width:3.33333;stroke-linecap:butt;stroke-linejoin:miter;stroke-miterlimit:10;stroke-dasharray:none;stroke-opacity:1"
     id="path458" />
  <path
     d="m 1794.1052,1536.0666 c -26.9333,54.0933 -62.1467,103.2933 -104,145.9733 l -339.1466,-332.4533 c 7.1333,-7.2933 13.1466,-15.6933 17.76,-24.9333 l 425.3866,211.4133"
     style="fill:#e7e7e6;fill-opacity:1;fill-rule:nonzero;stroke:none;stroke-width:0.133333"
     id="path460" />
  <path
     d="m 1794.1052,1536.0666 c -26.9333,54.0933 -62.1467,103.2933 -104,145.9733 l -339.1466,-332.4533 c 7.1333,-7.2933 13.1466,-15.6933 17.76,-24.9333 z"
     style="fill:none;stroke:#e2cdcc;stroke-width:3.33333;stroke-linecap:butt;stroke-linejoin:miter;stroke-miterlimit:10;stroke-dasharray:none;stroke-opacity:1"
     id="path462" />
  <path
     d="m 1853.8519,1281.1066 c 0,28.5333 -2.0934,56.56 -6.12,83.9467 l -469.8667,-69.6134 c 0.7067,-4.68 1.0534,-9.4666 1.0534,-14.3333 0,-5.5333 -0.4534,-10.9733 -1.36,-16.2667 l 468.4133,-79 c 5.1733,30.9734 7.88,62.8 7.88,95.2667"
     style="fill:#e7e7e6;fill-opacity:1;fill-rule:nonzero;stroke:none;stroke-width:0.133333"
     id="path464" />
  <path
     d="m 1853.8519,1281.1066 c 0,28.5333 -2.0934,56.56 -6.12,83.9467 l -469.8667,-69.6134 c 0.7067,-4.68 1.0534,-9.4666 1.0534,-14.3333 0,-5.5333 -0.4534,-10.9733 -1.36,-16.2667 l 468.4133,-79 c 5.1733,30.9734 7.88,62.8 7.88,95.2667 z"
     style="fill:none;stroke:#e2cdcc;stroke-width:3.33333;stroke-linecap:butt;stroke-linejoin:miter;stroke-miterlimit:10;stroke-dasharray:none;stroke-opacity:1"
     id="path466" />
  <path
     d="m 1788.9052,1015.9466 -421.0933,219.8667 c -4.76,-9.12 -10.9333,-17.4267 -18.24,-24.5734 l 332.4533,-339.14657 c 42.72,41.88 78.9067,90.3866 106.88,143.85327"
     style="fill:#e7e7e6;fill-opacity:1;fill-rule:nonzero;stroke:none;stroke-width:0.133333"
     id="path468" />
  <path
     d="m 1788.9052,1015.9466 -421.0933,219.8667 c -4.76,-9.12 -10.9333,-17.4267 -18.24,-24.5734 l 332.4533,-339.14657 c 42.72,41.88 78.9067,90.3866 106.88,143.85327 z"
     style="fill:none;stroke:#e2cdcc;stroke-width:3.33333;stroke-linecap:butt;stroke-linejoin:miter;stroke-miterlimit:10;stroke-dasharray:none;stroke-opacity:1"
     id="path470" />
  <path
     d="m 1536.0652,768.09333 -211.4266,425.38657 c -9.0134,-4.52 -18.8267,-7.6666 -29.1867,-9.1733 l 69.6,-469.83997 c 60.6267,8.8934 118.1333,27.28 171.0133,53.6267"
     style="fill:#e7e7e6;fill-opacity:1;fill-rule:nonzero;stroke:none;stroke-width:0.133333"
     id="path472" />
  <path
     d="m 1536.0652,768.09333 -211.4266,425.38657 c -9.0134,-4.52 -18.8267,-7.6666 -29.1867,-9.1733 l 69.6,-469.83997 c 60.6267,8.8934 118.1333,27.28 171.0133,53.6267 z"
     style="fill:none;stroke:#e2cdcc;stroke-width:3.33333;stroke-linecap:butt;stroke-linejoin:miter;stroke-miterlimit:10;stroke-dasharray:none;stroke-opacity:1"
     id="path474" />
  <path
     d="m 1378.9186,1281.1066 c 0,4.8667 -0.3467,9.6533 -1.0534,14.3333 -1.5066,10.36 -4.6533,20.1734 -9.1466,29.2134 -4.6134,9.24 -10.6267,17.64 -17.76,24.9333 -7.16,7.3067 -15.4534,13.48 -24.5867,18.24 -8.9467,4.6933 -18.6933,8.0267 -29.0133,9.7467 -5.2934,0.8933 -10.7334,1.36 -16.2667,1.36 -4.8667,0 -9.6533,-0.3467 -14.3333,-1.0267 v -0.027 c -10.36,-1.52 -20.2,-4.6533 -29.2134,-9.1733 -9.24,-4.5867 -17.6533,-10.6 -24.9333,-17.7333 -7.3067,-7.16 -13.48,-15.4534 -18.24,-24.5867 -4.7067,-8.96 -8.04,-18.7067 -9.7467,-29.0267 -0.9066,-5.28 -1.36,-10.7333 -1.36,-16.2533 0,-4.88 0.3467,-9.6667 1.0267,-14.3333 h 0.027 c 1.5066,-10.36 4.6533,-20.1734 9.1466,-29.2267 4.5867,-9.24 10.6,-17.64 17.76,-24.9333 7.1334,-7.3067 15.4267,-13.4667 24.56,-18.2534 8.96,-4.7066 18.72,-8.04 29.04,-9.7466 5.2934,-0.9067 10.7334,-1.36 16.2667,-1.36 4.8667,0 9.6533,0.3466 14.36,1.0533 10.36,1.5067 20.1733,4.6533 29.1867,9.1733 9.24,4.5867 17.6533,10.6 24.9333,17.76 7.3067,7.1467 13.48,15.4534 18.24,24.5734 4.7067,8.96 8.04,18.7066 9.7467,29.0266 0.9066,5.2934 1.36,10.7334 1.36,16.2667 z"
     style="fill:none;stroke:#e2cdcc;stroke-width:3.33333;stroke-linecap:butt;stroke-linejoin:miter;stroke-miterlimit:10;stroke-dasharray:none;stroke-opacity:1"
     id="path476" />
  <path
     d="m 1378.9186,1281.1066 c 0,4.8667 -0.3467,9.6533 -1.0534,14.3333 -1.5066,10.36 -4.6533,20.1734 -9.1466,29.2134 -4.6134,9.24 -10.6267,17.64 -17.76,24.9333 -7.16,7.3067 -15.4534,13.48 -24.5867,18.24 -8.9467,4.6933 -18.6933,8.0267 -29.0133,9.7467 -5.2934,0.8933 -10.7334,1.36 -16.2667,1.36 -4.8667,0 -9.6533,-0.3467 -14.3333,-1.0267 v -0.027 c -10.36,-1.52 -20.2,-4.6533 -29.2134,-9.1733 -9.24,-4.5867 -17.6533,-10.6 -24.9333,-17.7333 -7.3067,-7.16 -13.48,-15.4534 -18.24,-24.5867 -4.7067,-8.96 -8.04,-18.7067 -9.7467,-29.0267 -0.9066,-5.28 -1.36,-10.7333 -1.36,-16.2533 0,-4.88 0.3467,-9.6667 1.0267,-14.3333 h 0.027 c 1.5066,-10.36 4.6533,-20.1734 9.1466,-29.2267 4.5867,-9.24 10.6,-17.64 17.76,-24.9333 7.1334,-7.3067 15.4267,-13.4667 24.56,-18.2534 8.96,-4.7066 18.72,-8.04 29.04,-9.7466 5.2934,-0.9067 10.7334,-1.36 16.2667,-1.36 4.8667,0 9.6533,0.3466 14.36,1.0533 10.36,1.5067 20.1733,4.6533 29.1867,9.1733 9.24,4.5867 17.6533,10.6 24.9333,17.76 7.3067,7.1467 13.48,15.4534 18.24,24.5734 4.7067,8.96 8.04,18.7066 9.7467,29.0266 0.9066,5.2934 1.36,10.7334 1.36,16.2667"
     style="fill:#dd1b39;fill-opacity:1;fill-rule:nonzero;stroke:none;stroke-width:0.133333"
     id="path478" />
  <path
     d="m 1378.9186,1281.1066 c 0,4.8667 -0.3467,9.6533 -1.0534,14.3333 -1.5066,10.36 -4.6533,20.1734 -9.1466,29.2134 -4.6134,9.24 -10.6267,17.64 -17.76,24.9333 -7.16,7.3067 -15.4534,13.48 -24.5867,18.24 -8.9467,4.6933 -18.6933,8.0267 -29.0133,9.7467 -5.2934,0.8933 -10.7334,1.36 -16.2667,1.36 -4.8667,0 -9.6533,-0.3467 -14.3333,-1.0267 v -0.027 c -10.36,-1.52 -20.2,-4.6533 -29.2134,-9.1733 -9.24,-4.5867 -17.6533,-10.6 -24.9333,-17.7333 -7.3067,-7.16 -13.48,-15.4534 -18.24,-24.5867 -4.7067,-8.96 -8.04,-18.7067 -9.7467,-29.0267 -0.9066,-5.28 -1.36,-10.7333 -1.36,-16.2533 0,-4.88 0.3467,-9.6667 1.0267,-14.3333 h 0.027 c 1.5066,-10.36 4.6533,-20.1734 9.1466,-29.2267 4.5867,-9.24 10.6,-17.64 17.76,-24.9333 7.1334,-7.3067 15.4267,-13.4667 24.56,-18.2534 8.96,-4.7066 18.72,-8.04 29.04,-9.7466 5.2934,-0.9067 10.7334,-1.36 16.2667,-1.36 4.8667,0 9.6533,0.3466 14.36,1.0533 10.36,1.5067 20.1733,4.6533 29.1867,9.1733 9.24,4.5867 17.6533,10.6 24.9333,17.76 7.3067,7.1467 13.48,15.4534 18.24,24.5734 4.7067,8.96 8.04,18.7066 9.7467,29.0266 0.9066,5.2934 1.36,10.7334 1.36,16.2667 z"
     style="fill:none;stroke:#e2cdcc;stroke-width:3.33333;stroke-linecap:butt;stroke-linejoin:miter;stroke-miterlimit:10;stroke-dasharray:none;stroke-opacity:1"
     id="path480" />
  <path
     d="m 1325.0786,1281.0933 c 0,24.2933 -19.6934,43.9866 -43.9867,43.9866 -24.2933,0 -43.9867,-19.6933 -43.9867,-43.9866 0,-24.2934 19.6934,-43.9867 43.9867,-43.9867 24.2933,0 43.9867,19.6933 43.9867,43.9867"
     style="fill:#26853f;fill-opacity:1;fill-rule:nonzero;stroke:none;stroke-width:0.133333"
     id="path482" />
  <path
     d="m 1325.0786,1281.0933 c 0,24.2933 -19.6934,43.9866 -43.9867,43.9866 -24.2933,0 -43.9867,-19.6933 -43.9867,-43.9866 0,-24.2934 19.6934,-43.9867 43.9867,-43.9867 24.2933,0 43.9867,19.6933 43.9867,43.9867 z"
     style="fill:none;stroke:#e2cdcc;stroke-width:3.33333;stroke-linecap:butt;stroke-linejoin:miter;stroke-miterlimit:10;stroke-dasharray:none;stroke-opacity:1"
     id="path484" />
  <path
     d="m 1197.1319,1847.7199 -8.4933,57.3467 c -66.7467,-9.7867 -130.0934,-30.0533 -188.3334,-59.0667 l 25.8134,-51.9066 c 52.88,26.3333 110.3866,44.7333 171.0133,53.6266"
     style="fill:#26853f;fill-opacity:1;fill-rule:nonzero;stroke:none;stroke-width:0.133333"
     id="path486" />
  <path
     d="m 1197.1319,1847.7199 -8.4933,57.3467 c -66.7467,-9.7867 -130.0934,-30.0533 -188.3334,-59.0667 l 25.8134,-51.9066 c 52.88,26.3333 110.3866,44.7333 171.0133,53.6266 z"
     style="fill:none;stroke:#e2cdcc;stroke-width:3.33333;stroke-linecap:butt;stroke-linejoin:miter;stroke-miterlimit:10;stroke-dasharray:none;stroke-opacity:1"
     id="path488" />
  <path
     d="m 1573.0652,1840.2933 c -57.7066,30.1866 -120.6266,51.72 -187.0933,62.8266 l -9.64,-57.16 c 60.36,-10.0933 117.52,-29.6533 169.92,-57.0666 l 26.8133,51.4"
     style="fill:#26853f;fill-opacity:1;fill-rule:nonzero;stroke:none;stroke-width:0.133333"
     id="path490" />
  <path
     d="m 1573.0652,1840.2933 c -57.7066,30.1866 -120.6266,51.72 -187.0933,62.8266 l -9.64,-57.16 c 60.36,-10.0933 117.52,-29.6533 169.92,-57.0666 z"
     style="fill:none;stroke:#e2cdcc;stroke-width:3.33333;stroke-linecap:butt;stroke-linejoin:miter;stroke-miterlimit:10;stroke-dasharray:none;stroke-opacity:1"
     id="path492" />
  <path
     d="m 2006.0252,1991.7199 c -74.1867,75.7067 -160.1867,139.8534 -254.96,189.4133 l -31.6533,-60.6266 c 88.4133,-46.2267 168.5866,-106.04 237.8,-176.6533 l 48.8133,47.8666"
     style="fill:#dd1b39;fill-opacity:1;fill-rule:nonzero;stroke:none;stroke-width:0.133333"
     id="path494" />
  <path
     d="m 2006.0252,1991.7199 c -74.1867,75.7067 -160.1867,139.8534 -254.96,189.4133 l -31.6533,-60.6266 c 88.4133,-46.2267 168.5866,-106.04 237.8,-176.6533 z"
     style="fill:none;stroke:#e2cdcc;stroke-width:3.33333;stroke-linecap:butt;stroke-linejoin:miter;stroke-miterlimit:10;stroke-dasharray:none;stroke-opacity:1"
     id="path496" />
  <path
     d="m 1845.9985,1561.8666 c -29.64,59.5467 -68.4266,113.72 -114.52,160.7333 l -41.3733,-40.56 c 41.8533,-42.68 77.0667,-91.88 104,-145.9733 l 51.8933,25.8"
     style="fill:#26853f;fill-opacity:1;fill-rule:nonzero;stroke:none;stroke-width:0.133333"
     id="path498" />
  <path
     d="m 1845.9985,1561.8666 c -29.64,59.5467 -68.4266,113.72 -114.52,160.7333 l -41.3733,-40.56 c 41.8533,-42.68 77.0667,-91.88 104,-145.9733 z"
     style="fill:none;stroke:#e2cdcc;stroke-width:3.33333;stroke-linecap:butt;stroke-linejoin:miter;stroke-miterlimit:10;stroke-dasharray:none;stroke-opacity:1"
     id="path500" />
  <path
     d="m 2285.3852,1429.9199 c -15.76,107.4267 -48.36,209.3867 -95.04,303.1067 l -61.2267,-30.44 c 43.5334,-87.4133 73.9334,-182.4933 88.64,-282.6933 l 67.6267,10.0266"
     style="fill:#dd1b39;fill-opacity:1;fill-rule:nonzero;stroke:none;stroke-width:0.133333"
     id="path502" />
  <path
     d="m 2285.3852,1429.9199 c -15.76,107.4267 -48.36,209.3867 -95.04,303.1067 l -61.2267,-30.44 c 43.5334,-87.4133 73.9334,-182.4933 88.64,-282.6933 z"
     style="fill:none;stroke:#e2cdcc;stroke-width:3.33333;stroke-linecap:butt;stroke-linejoin:miter;stroke-miterlimit:10;stroke-dasharray:none;stroke-opacity:1"
     id="path504" />
  <path
     d="m 2282.2652,1112.2666 -67.4267,11.3733 c -16.7066,-99.7733 -49,-194.26657 -94.32,-280.85327 l 60.6,-31.6533 c 48.6,92.8533 83.24,194.17327 101.1467,301.13327"
     style="fill:#dd1b39;fill-opacity:1;fill-rule:nonzero;stroke:none;stroke-width:0.133333"
     id="path506" />
  <path
     d="m 2282.2652,1112.2666 -67.4267,11.3733 c -16.7066,-99.7733 -49,-194.26657 -94.32,-280.85327 l 60.6,-31.6533 c 48.6,92.8533 83.24,194.17327 101.1467,301.13327 z"
     style="fill:none;stroke:#e2cdcc;stroke-width:3.33333;stroke-linecap:butt;stroke-linejoin:miter;stroke-miterlimit:10;stroke-dasharray:none;stroke-opacity:1"
     id="path508" />
  <path
     d="m 1991.7185,556.15999 -47.88,48.82666 c -70.56,-69.18666 -151.8933,-127.39999 -241.2666,-171.91999 l 30.44,-61.24 c 95.84,47.72 183.04,110.14666 258.7066,184.33333"
     style="fill:#dd1b39;fill-opacity:1;fill-rule:nonzero;stroke:none;stroke-width:0.133333"
     id="path510" />
  <path
     d="m 1991.7185,556.15999 -47.88,48.82666 c -70.56,-69.18666 -151.8933,-127.39999 -241.2666,-171.91999 l 30.44,-61.24 c 95.84,47.72 183.04,110.14666 258.7066,184.33333 z"
     style="fill:none;stroke:#e2cdcc;stroke-width:3.33333;stroke-linecap:butt;stroke-linejoin:miter;stroke-miterlimit:10;stroke-dasharray:none;stroke-opacity:1"
     id="path512" />
  <path
     d="m 1840.2785,989.11993 -51.3733,26.82667 c -27.9733,-53.46667 -64.16,-101.97327 -106.88,-143.85327 l 40.56,-41.3867 c 47.04,46.1067 86.88,99.5067 117.6933,158.4133"
     style="fill:#26853f;fill-opacity:1;fill-rule:nonzero;stroke:none;stroke-width:0.133333"
     id="path514" />
  <path
     d="m 1840.2785,989.11993 -51.3733,26.82667 c -27.9733,-53.46667 -64.16,-101.97327 -106.88,-143.85327 l 40.56,-41.3867 c 47.04,46.1067 86.88,99.5067 117.6933,158.4133 z"
     style="fill:none;stroke:#e2cdcc;stroke-width:3.33333;stroke-linecap:butt;stroke-linejoin:miter;stroke-miterlimit:10;stroke-dasharray:none;stroke-opacity:1"
     id="path516" />
  <path
     d="m 1561.8519,716.20003 -25.7867,51.8933 c -52.88,-26.3467 -110.3866,-44.7333 -171.0133,-53.6267 l 8.4933,-57.33331 c 66.7467,9.78666 130.08,30.05333 188.3067,59.06671"
     style="fill:#26853f;fill-opacity:1;fill-rule:nonzero;stroke:none;stroke-width:0.133333"
     id="path518" />
  <path
     d="m 1561.8519,716.20003 -25.7867,51.8933 c -52.88,-26.3467 -110.3866,-44.7333 -171.0133,-53.6267 l 8.4933,-57.33331 c 66.7467,9.78666 130.08,30.05333 188.3067,59.06671 z"
     style="fill:none;stroke:#e2cdcc;stroke-width:3.33333;stroke-linecap:butt;stroke-linejoin:miter;stroke-miterlimit:10;stroke-dasharray:none;stroke-opacity:1"
     id="path520" />
  <path
     d="m 1185.8519,716.22663 c -60.36,10.0934 -117.52,29.6534 -169.92,57.0667 l -26.81327,-51.3867 c 57.70657,-30.17331 120.62657,-51.70665 187.09327,-62.81331 l 9.64,57.13331"
     style="fill:#26853f;fill-opacity:1;fill-rule:nonzero;stroke:none;stroke-width:0.133333"
     id="path522" />
  <path
     d="m 1185.8519,716.22663 c -60.36,10.0934 -117.52,29.6534 -169.92,57.0667 l -26.81327,-51.3867 c 57.70657,-30.17331 120.62657,-51.70665 187.09327,-62.81331 z"
     style="fill:none;stroke:#e2cdcc;stroke-width:3.33333;stroke-linecap:butt;stroke-linejoin:miter;stroke-miterlimit:10;stroke-dasharray:none;stroke-opacity:1"
     id="path524" />
  <path
     d="m 842.79863,441.69332 c -88.4147,46.22667 -168.5974,106.02667 -237.8267,176.64 l -48.816,-47.85333 c 74.212,-75.70667 160.1893,-139.84 254.9907,-189.41333 l 31.652,60.62666"
     style="fill:#dd1b39;fill-opacity:1;fill-rule:nonzero;stroke:none;stroke-width:0.133333"
     id="path526" />
  <path
     d="m 842.79863,441.69332 c -88.4147,46.22667 -168.5974,106.02667 -237.8267,176.64 l -48.816,-47.85333 c 74.212,-75.70667 160.1893,-139.84 254.9907,-189.41333 z"
     style="fill:none;stroke:#e2cdcc;stroke-width:3.33333;stroke-linecap:butt;stroke-linejoin:miter;stroke-miterlimit:10;stroke-dasharray:none;stroke-opacity:1"
     id="path528" />
  <path
     d="m 872.07863,880.17333 c -41.836,42.6666 -77.0654,91.88 -103.9974,145.93327 l -51.8893,-25.7867 c 29.632,-59.53327 68.4173,-113.71997 114.512,-160.71987 l 41.3747,40.5733"
     style="fill:#26853f;fill-opacity:1;fill-rule:nonzero;stroke:none;stroke-width:0.133333"
     id="path530" />
  <path
     d="m 872.07863,880.17333 c -41.836,42.6666 -77.0654,91.88 -103.9974,145.93327 l -51.8893,-25.7867 c 29.632,-59.53327 68.4173,-113.71997 114.512,-160.71987 z"
     style="fill:none;stroke:#e2cdcc;stroke-width:3.33333;stroke-linecap:butt;stroke-linejoin:miter;stroke-miterlimit:10;stroke-dasharray:none;stroke-opacity:1"
     id="path532" />
  <path
     d="m 433.06123,859.59993 c -43.5266,87.4 -73.9266,182.50667 -88.6333,282.70667 l -67.6493,-10.0267 c 15.76,-107.4266 48.3773,-209.37327 95.0426,-303.10657 l 61.24,30.4266"
     style="fill:#dd1b39;fill-opacity:1;fill-rule:nonzero;stroke:none;stroke-width:0.133333"
     id="path534" />
  <path
     d="m 433.06123,859.59993 c -43.5266,87.4 -73.9266,182.50667 -88.6333,282.70667 l -67.6493,-10.0267 c 15.76,-107.4266 48.3773,-209.37327 95.0426,-303.10657 z"
     style="fill:none;stroke:#e2cdcc;stroke-width:3.33333;stroke-linecap:butt;stroke-linejoin:miter;stroke-miterlimit:10;stroke-dasharray:none;stroke-opacity:1"
     id="path536" />
  <path
     d="m 441.68793,1719.4133 -60.6253,31.6533 c -48.5974,-92.8667 -83.2347,-194.16 -101.1454,-301.1467 l 67.4294,-11.3733 c 16.704,99.7867 49.0146,194.28 94.3413,280.8667"
     style="fill:#dd1b39;fill-opacity:1;fill-rule:nonzero;stroke:none;stroke-width:0.133333"
     id="path538" />
  <path
     d="m 441.68793,1719.4133 -60.6253,31.6533 c -48.5974,-92.8667 -83.2347,-194.16 -101.1454,-301.1467 l 67.4294,-11.3733 c 16.704,99.7867 49.0146,194.28 94.3413,280.8667 z"
     style="fill:none;stroke:#e2cdcc;stroke-width:3.33333;stroke-linecap:butt;stroke-linejoin:miter;stroke-miterlimit:10;stroke-dasharray:none;stroke-opacity:1"
     id="path540" />
  <path
     d="m 859.58923,2129.1333 -30.4213,61.2399 c -95.8333,-47.7199 -183.04,-110.1466 -258.7013,-184.3333 l 47.8733,-48.8133 c 70.568,69.16 151.8707,127.3867 241.2493,171.9067"
     style="fill:#dd1b39;fill-opacity:1;fill-rule:nonzero;stroke:none;stroke-width:0.133333"
     id="path542" />
  <path
     d="m 859.58923,2129.1333 -30.4213,61.2399 c -95.8333,-47.7199 -183.04,-110.1466 -258.7013,-184.3333 l 47.8733,-48.8133 c 70.568,69.16 151.8707,127.3867 241.2493,171.9067 z"
     style="fill:none;stroke:#e2cdcc;stroke-width:3.33333;stroke-linecap:butt;stroke-linejoin:miter;stroke-miterlimit:10;stroke-dasharray:none;stroke-opacity:1"
     id="path544" />
  <path
     d="m 880.15723,1690.1199 -40.564,41.3734 c -47.0386,-46.0934 -86.8773,-99.52 -117.6946,-158.4134 l 51.384,-26.8266 c 27.9653,53.4666 64.16,101.9866 106.8746,143.8666"
     style="fill:#26853f;fill-opacity:1;fill-rule:nonzero;stroke:none;stroke-width:0.133333"
     id="path546" />
  <path
     d="m 880.15723,1690.1199 -40.564,41.3734 c -47.0386,-46.0934 -86.8773,-99.52 -117.6946,-158.4134 l 51.384,-26.8266 c 27.9653,53.4666 64.16,101.9866 106.8746,143.8666 z"
     style="fill:none;stroke:#e2cdcc;stroke-width:3.33333;stroke-linecap:butt;stroke-linejoin:miter;stroke-miterlimit:10;stroke-dasharray:none;stroke-opacity:1"
     id="path548" />
  <path
     d="M 1178.1186,203.96 V 180.18666 L 1226.1452,117.04 c 2.1734,-2.82667 3.8667,-5.72 5.0534,-8.70667 1.1866,-2.98666 1.7866,-5.76 1.7866,-8.33333 v -0.186665 c 0,-3.78666 -1.2266,-6.70666 -3.6666,-8.76 -2.44,-2.05333 -5.9067,-3.08 -10.3867,-3.08 -4.3067,0 -7.8133,1.42667 -10.5467,4.28 -2.7333,2.85334 -4.3733,6.92 -4.96,12.173335 v 0.10666 h -27.04 v -0.10666 c 0.8934,-13.279995 5.1467,-23.573335 12.7467,-30.893335 7.6133,-7.32 17.48,-10.97333 29.6,-10.97333 13.16,0 23.3467,3.17333 30.56,9.53333 7.2267,6.34667 10.8267,15.33334 10.8267,26.94667 v 0.0933 c 0,6.359995 -1.1067,12.666665 -3.32,18.919995 -2.2134,6.25333 -5.3067,11.92 -9.28,16.98667 l -34.4667,43.50666 h 47.84 v 25.41334 h -82.7733"
     style="fill:#ffffff;fill-opacity:1;fill-rule:nonzero;stroke:none;stroke-width:0.133333"
     id="path550" />
  <path
     d="m 1323.9319,179.98666 c 5.52,0 9.48,-1.88 11.8933,-5.62666 2.4,-3.76 3.6134,-8.90667 3.6134,-15.45334 V 108.76 c 0,-6.6 -1.2134,-11.773325 -3.6134,-15.493325 -2.4133,-3.72 -6.3733,-5.58667 -11.8933,-5.58667 -5.4533,0 -9.4,1.86667 -11.84,5.58667 -2.44,3.72 -3.6533,8.893325 -3.6533,15.493325 v 50.14666 c 0,6.54667 1.2133,11.69334 3.6533,15.45334 2.44,3.74666 6.3867,5.62666 11.84,5.62666 z m 0,25.41334 c -13.92,0 -24.3867,-3.57334 -31.3733,-10.73334 -7,-7.16 -10.4934,-16.82666 -10.4934,-29.01333 v -63.62666 c 0,-12.386665 3.5334,-22.106665 10.5867,-29.159995 7.0667,-7.06667 17.4933,-10.6 31.28,-10.6 13.8667,0 24.3067,3.52 31.3333,10.54666 7.0267,7.02667 10.5334,16.76 10.5334,29.213335 v 63.62666 c 0,12.38667 -3.52,22.10667 -10.5867,29.16 -7.0533,7.05333 -17.48,10.58667 -31.28,10.58667"
     style="fill:#ffffff;fill-opacity:1;fill-rule:nonzero;stroke:none;stroke-width:0.133333"
     id="path552" />
  <path
     d="m 952.11993,261.01333 c -11.232,0 -20.6467,-3.66667 -28.252,-10.97334 -7.6,-7.31999 -11.8533,-17.61333 -12.752,-30.90666 v -0.0933 h 26.372 v 0.0933 c 0.5147,5.13333 2.084,9.13333 4.716,11.98667 2.632,2.85333 6.0667,4.28 10.3027,4.28 4.6173,0 8.196,-1.52 10.7306,-4.56 2.5334,-3.05334 3.8027,-7.30667 3.8027,-12.76 v -11.74667 c 0,-5.52 -1.124,-9.76 -3.3707,-12.74667 -2.2466,-2.98666 -5.4533,-4.48 -9.624,-4.48 -3.7853,0 -7.0133,0.96 -9.672,2.89334 -2.6666,1.92 -4.5093,4.61333 -5.5346,8.08 h -24.6414 v -80.46667 h 75.1747 v 25.41333 h -48.8013 V 169.76 c 2.0533,-1.98667 4.7933,-3.53334 8.2266,-4.62667 3.4347,-1.08 6.8214,-1.62667 10.156,-1.62667 10.9707,0 19.46,3.73334 25.4587,11.21334 6,7.48 9,18.01333 9,31.61333 V 218.08 c 0,13.66666 -3.6,24.24 -10.7867,31.71999 -7.1786,7.46667 -17.352,11.21334 -30.5053,11.21334"
     style="fill:#ffffff;fill-opacity:1;fill-rule:nonzero;stroke:none;stroke-width:0.133333"
     id="path554" />
  <path
     d="m 592.55463,267.46666 v 139.94666 h -26.372 V 298.45333 l -17.0374,6.45333 v -28.01333 l 20.888,-9.42667 h 22.5214"
     style="fill:#ffffff;fill-opacity:1;fill-rule:nonzero;stroke:none;stroke-width:0.133333"
     id="path556" />
  <path
     d="m 618.35193,407.41332 v -23.77333 l 48.028,-63.13333 c 2.1813,-2.82667 3.8667,-5.73333 5.0547,-8.72 1.1853,-2.98667 1.78,-5.76 1.78,-8.32 v -0.2 c 0,-3.78667 -1.2187,-6.69333 -3.6587,-8.76 -2.4387,-2.05333 -5.9027,-3.08 -10.3933,-3.08 -4.3,0 -7.8134,1.44 -10.54,4.29333 -2.7294,2.85334 -4.38,6.90667 -4.9587,12.17334 v 0.0933 h -27.0467 v -0.0933 c 0.8987,-13.28 5.1507,-23.58667 12.7547,-30.89334 7.6027,-7.32 17.4693,-10.97333 29.5973,-10.97333 13.1534,0 23.3414,3.17333 30.56,9.52 7.2174,6.36 10.828,15.34667 10.828,26.96 v 0.0933 c 0,6.34667 -1.1066,12.65334 -3.3213,18.90667 -2.2133,6.26667 -5.3093,11.92 -9.288,16.98667 l -34.4573,43.50666 h 47.8373 v 25.41333 h -82.776"
     style="fill:#ffffff;fill-opacity:1;fill-rule:nonzero;stroke:none;stroke-width:0.133333"
     id="path558" />
  <path
     d="m 344.47593,599.87999 c 4.6213,0 8.1973,-1.49334 10.7333,-4.48 2.5334,-2.98667 3.8027,-7.2 3.8027,-12.65334 v -0.10666 c 0,-5.25334 -1.2693,-9.30667 -3.8027,-12.17334 -2.5359,-2.85333 -6.1119,-4.28 -10.7333,-4.28 -4.684,0 -8.2933,1.44 -10.8267,4.33334 -2.536,2.88 -3.8026,6.96 -3.8026,12.22666 v 0.0933 c 0,5.45333 1.2666,9.65333 3.8026,12.61333 2.5334,2.94667 6.1427,4.42667 10.8267,4.42667 z m -21.8493,82.09333 30.4173,-69.49333 4.716,3.46666 c -1.6707,3.02667 -4.14,5.2 -7.412,6.54667 -3.272,1.34667 -7.0587,2.02667 -11.3573,2.02667 -10.6534,0 -19.236,-3.74667 -25.748,-11.21334 -6.5147,-7.48 -9.7707,-17.41333 -9.7707,-29.8 v -0.0933 c 0,-13.6 3.5787,-24.13333 10.7333,-31.61333 7.1547,-7.48 17.244,-11.21334 30.2707,-11.21334 13.0267,0 23.1013,3.77334 30.224,11.30667 7.1227,7.54667 10.684,18.21333 10.684,32 v 0.10667 c 0,5.70666 -0.948,11.81333 -2.8387,18.33333 -1.8946,6.50667 -4.22,13.06667 -6.9786,19.68 l -25.0267,59.96 h -27.9133"
     style="fill:#ffffff;fill-opacity:1;fill-rule:nonzero;stroke:none;stroke-width:0.133333"
     id="path560" />
  <path
     d="m 145.86393,875.06663 v 139.94667 h -26.3733 V 906.06663 l -17.0373,6.44 v -28 l 20.8879,-9.44 h 22.5227"
     style="fill:#ffffff;fill-opacity:1;fill-rule:nonzero;stroke:none;stroke-width:0.133333"
     id="path562" />
  <path
     d="m 228.35323,1015.1199 v -82.39997 h 26.3694 v 82.39997 z m -56.5013,-21.55997 v -24.2533 l 43.1213,-94.1333 h 29.8387 l -41.9667,92.9733 h 62.8534 v 25.4133 h -93.8467"
     style="fill:#ffffff;fill-opacity:1;fill-rule:nonzero;stroke:none;stroke-width:0.133333"
     id="path564" />
  <path
     d="m 124.15993,1221.1199 v 139.96 H 97.785335 v -108.96 l -17.0374,6.4534 v -28.0134 l 20.886695,-9.44 h 22.5253"
     style="fill:#ffffff;fill-opacity:1;fill-rule:nonzero;stroke:none;stroke-width:0.133333"
     id="path566" />
  <path
     d="m 189.70663,1221.1199 v 139.96 h -26.3747 v -108.96 l -17.036,6.4534 v -28.0134 l 20.8867,-9.44 h 22.524"
     style="fill:#ffffff;fill-opacity:1;fill-rule:nonzero;stroke:none;stroke-width:0.133333"
     id="path568" />
  <path
     d="m 187.21193,1602.2266 c 4.5573,0 8.2147,-1.4533 10.976,-4.3333 2.756,-2.8934 4.136,-6.7467 4.136,-11.56 v -1.3467 c 0,-4.4267 -1.38,-7.9867 -4.136,-10.68 -2.7613,-2.6933 -6.4187,-4.04 -10.976,-4.04 -4.488,0 -8.132,1.3467 -10.9227,4.04 -2.7906,2.6933 -4.184,6.2933 -4.184,10.7867 v 1.44 c 0,4.68 1.3934,8.4666 4.184,11.36 2.7907,2.88 6.4347,4.3333 10.9227,4.3333 z m 0,60.0533 c 5.3933,0 9.7413,-1.5866 13.0467,-4.76 3.3,-3.1733 4.956,-7.36 4.956,-12.56 v -1.3466 c 0,-4.7467 -1.656,-8.5734 -4.956,-11.4534 -3.3054,-2.8933 -7.6534,-4.3333 -13.0467,-4.3333 -5.388,0 -9.7347,1.44 -13.04,4.3333 -3.3053,2.88 -4.956,6.7334 -4.956,11.5467 v 1.44 c 0,5.1333 1.6507,9.28 4.956,12.4133 3.3053,3.1467 7.652,4.72 13.04,4.72 z m 0,25.4134 c -8.916,0 -16.6973,-1.6 -23.3387,-4.8134 -6.64,-3.2133 -11.8066,-7.7333 -15.4973,-13.5733 -3.6907,-5.84 -5.5333,-12.6667 -5.5333,-20.4933 v -2.32 c 0,-6.9867 1.9253,-13.5734 5.7733,-19.7334 3.8493,-6.16 8.9853,-10.8133 15.404,-13.9466 -5.4573,-2.6934 -9.8693,-6.5467 -13.2387,-11.56 -3.3666,-5 -5.052,-10.32 -5.052,-15.9734 v -3.6533 c 0,-11.1067 3.7867,-20.0133 11.3587,-26.7067 7.5707,-6.7066 17.6147,-10.0666 30.124,-10.0666 12.5147,0 22.5587,3.36 30.1307,10.0666 7.5706,6.6934 11.356,15.6 11.356,26.7067 v 3.6533 c 0,5.7734 -1.7027,11.1467 -5.1013,16.12 -3.4001,4.9734 -7.8934,8.7734 -13.4747,11.4134 6.4826,3.1333 11.6786,7.7866 15.592,13.9466 3.9146,6.16 5.8733,12.7467 5.8733,19.7334 v 2.32 c 0,7.8266 -1.848,14.6533 -5.5347,20.4933 -3.6906,5.84 -8.8573,10.36 -15.4973,13.5733 -6.6413,3.2134 -14.4227,4.8134 -23.344,4.8134"
     style="fill:#ffffff;fill-opacity:1;fill-rule:nonzero;stroke:none;stroke-width:0.133333"
     id="path570" />
  <path
     d="m 301.92663,1859.6133 v 139.9466 h -26.3734 v -108.9466 l -17.0373,6.44 v -28.0134 l 20.888,-9.4266 h 22.5227"
     style="fill:#ffffff;fill-opacity:1;fill-rule:nonzero;stroke:none;stroke-width:0.133333"
     id="path572" />
  <path
     d="m 367.85993,1975.5999 c 4.7453,0 8.372,-1.36 10.876,-4.0933 2.5027,-2.72 3.7547,-6.6 3.7547,-11.6 v -0.093 c 0,-5.7067 -1.252,-10.1334 -3.7547,-13.28 -2.504,-3.1467 -6.1307,-4.72 -10.876,-4.72 -4.6227,0 -8.1973,1.5866 -10.7307,4.76 -2.5386,3.1866 -3.8026,7.6266 -3.8026,13.3333 v 0.093 c 0,5.0134 1.264,8.8534 3.8026,11.56 2.5334,2.6934 6.108,4.04 10.7307,4.04 z m 0,25.4134 c -12.9653,0 -23.0227,-3.6934 -30.1773,-11.08 -7.1547,-7.3734 -10.7307,-17.7734 -10.7307,-31.1867 v -0.093 c 0,-6.0267 0.8667,-12.4 2.5987,-19.1067 1.732,-6.7067 4.1066,-13.2667 7.124,-19.68 l 28.3933,-60.2533 h 29.8387 l -33.688,69.7866 -6.64,-3.4666 c 3.3346,-6.36 9.268,-9.5334 17.804,-9.5334 11.6133,0 20.5987,3.64 26.952,10.92 6.3493,7.2934 9.5266,17.5734 9.5266,30.8534 v 0.093 c 0,13.5467 -3.576,24.0533 -10.7306,31.5333 -7.156,7.4667 -17.2467,11.2134 -30.2707,11.2134"
     style="fill:#ffffff;fill-opacity:1;fill-rule:nonzero;stroke:none;stroke-width:0.133333"
     id="path574" />
  <path
     d="m 661.65723,2150.5066 v 17.52 l -31.3773,122.4266 h -28.5907 l 30.4174,-114.5333 h -24.064 v 21.08 h -26.3734 v -46.4933 h 79.988"
     style="fill:#ffffff;fill-opacity:1;fill-rule:nonzero;stroke:none;stroke-width:0.133333"
     id="path576" />
  <path
     d="m 919.39193,2309.4266 v 139.96 h -26.3733 v -108.96 l -17.036,6.4533 v -28.0133 l 20.888,-9.44 h 22.5213"
     style="fill:#ffffff;fill-opacity:1;fill-rule:nonzero;stroke:none;stroke-width:0.133333"
     id="path578" />
  <path
     d="m 985.42523,2367.2799 c 4.6134,0 8.1867,-1.4933 10.7334,-4.48 2.5333,-2.9867 3.8,-7.2 3.8,-12.6533 v -0.093 c 0,-5.2666 -1.2667,-9.32 -3.8,-12.1733 -2.5467,-2.8667 -6.12,-4.2933 -10.7334,-4.2933 -4.688,0 -8.2973,1.4533 -10.8306,4.3333 -2.5374,2.8933 -3.8027,6.96 -3.8027,12.2267 v 0.093 c 0,5.4533 1.2653,9.6533 3.8027,12.6133 2.5333,2.9467 6.1426,4.4267 10.8306,4.4267 z m -21.8533,82.1067 30.4133,-69.4934 4.72,3.4667 c -1.6666,3.0133 -4.1466,5.1867 -7.4133,6.5333 -3.2667,1.3467 -7.0667,2.0267 -11.356,2.0267 -10.6533,0 -19.236,-3.7333 -25.748,-11.2133 -6.516,-7.48 -9.7707,-17.4 -9.7707,-29.7867 v -0.1067 c 0,-13.6 3.576,-24.1333 10.7307,-31.6133 7.156,-7.48 17.248,-11.2133 30.2773,-11.2133 13.0267,0 23.09337,3.7733 30.21337,11.3066 7.1333,7.5467 10.6933,18.2134 10.6933,32.0134 v 0.093 c 0,5.7067 -0.9467,11.8267 -2.84,18.3333 -1.8933,6.5067 -4.2267,13.08 -6.9867,19.68 l -25.01327,59.9734 h -27.92"
     style="fill:#ffffff;fill-opacity:1;fill-rule:nonzero;stroke:none;stroke-width:0.133333"
     id="path580" />
  <path
     d="m 1292.9719,2501.3599 c -8.4133,0 -15.92,-1.5467 -22.5333,-4.6267 -6.6,-3.0666 -11.8667,-7.5333 -15.7867,-13.3733 -3.9067,-5.84 -6.0933,-12.8933 -6.5333,-21.1733 h 27.2266 c 0.6534,4.2933 2.2534,7.64 4.8267,10.0133 2.56,2.3733 5.8667,3.56 9.9067,3.56 5,0 8.8666,-1.4 11.6,-4.1867 2.72,-2.8 4.0933,-6.72 4.0933,-11.8 v -3.2666 c 0,-5.3334 -1.1067,-9.44 -3.32,-12.32 -2.2133,-2.8934 -5.3733,-4.3334 -9.48,-4.3334 h -11.84 v -25.4133 h 11.84 c 3.3333,0 5.92,-1.2667 7.7467,-3.8 1.8266,-2.5333 2.7333,-6.08 2.7333,-10.64 v -2.4 c 0,-4.2933 -1,-7.6133 -3.0267,-9.96 -2.0266,-2.3467 -4.8666,-3.52 -8.52,-3.52 -3.6,0 -6.6533,1.3467 -9.1866,4.04 -2.5334,2.7067 -4.2534,6.52 -5.1467,11.4667 h -27.1467 c 1.16,-13.0267 5.68,-23.1334 13.5734,-30.32 7.8933,-7.1867 17.52,-10.7867 28.8666,-10.7867 12.3867,0 21.96,3.16 28.7334,9.48 6.7733,6.32 10.16,15.2933 10.16,26.9067 v 4.2266 c 0,6.4934 -1.64,12.1334 -4.9067,16.9467 -3.28,4.8133 -7.9333,8.4 -13.96,10.7867 6.7333,1.5333 11.9467,5.0666 15.64,10.5866 3.6933,5.52 5.5333,12.5467 5.5333,21.08 v 4.2267 c 0,12.2533 -3.6,21.76 -10.7733,28.4933 -7.1867,6.7334 -17.3067,10.1067 -30.32,10.1067"
     style="fill:#ffffff;fill-opacity:1;fill-rule:nonzero;stroke:none;stroke-width:0.133333"
     id="path582" />
  <path
     d="m 1616.8386,2305.1599 v 139.9467 h -26.3734 v -108.9467 l -17.04,6.44 v -28 l 20.8934,-9.44 h 22.52"
     style="fill:#ffffff;fill-opacity:1;fill-rule:nonzero;stroke:none;stroke-width:0.133333"
     id="path584" />
  <path
     d="m 1720.8919,2305.1599 v 17.52 l -31.3734,122.4267 h -28.6 l 30.4267,-114.5334 h -24.0667 v 21.08 h -26.3733 v -46.4933 h 79.9867"
     style="fill:#ffffff;fill-opacity:1;fill-rule:nonzero;stroke:none;stroke-width:0.133333"
     id="path586" />
  <path
     d="m 1918.6252,2272.0932 v -23.7733 l 48.0267,-63.1467 c 2.1866,-2.8266 3.8666,-5.7333 5.0533,-8.7066 1.1867,-2.9867 1.7867,-5.76 1.7867,-8.3333 v -0.1867 c 0,-3.7867 -1.2267,-6.7067 -3.6667,-8.76 -2.44,-2.0533 -5.8933,-3.08 -10.3867,-3.08 -4.3066,0 -7.8133,1.4267 -10.5466,4.28 -2.72,2.8533 -4.3734,6.92 -4.9467,12.1733 v 0.1067 h -27.0533 v -0.1067 c 0.8933,-13.28 5.1466,-23.5733 12.76,-30.8933 7.6,-7.32 17.4666,-10.9733 29.5866,-10.9733 13.16,0 23.3467,3.1733 30.56,9.5333 7.2267,6.3467 10.84,15.3333 10.84,26.9467 v 0.093 c 0,6.36 -1.1066,12.6667 -3.3333,18.92 -2.2133,6.2533 -5.3067,11.92 -9.28,16.9866 l -34.4667,43.5067 h 47.84 v 25.4133 h -82.7733"
     style="fill:#ffffff;fill-opacity:1;fill-rule:nonzero;stroke:none;stroke-width:0.133333"
     id="path588" />
  <path
     d="m 2198.7052,1868.5599 v 139.96 h -26.3733 v -108.96 l -17.0267,6.4534 v -28.0134 l 20.88,-9.44 h 22.52"
     style="fill:#ffffff;fill-opacity:1;fill-rule:nonzero;stroke:none;stroke-width:0.133333"
     id="path590" />
  <path
     d="m 2267.6252,2009.9599 c -11.2267,0 -20.64,-3.6533 -28.2533,-10.9733 -7.6,-7.32 -11.8534,-17.6133 -12.7467,-30.8933 v -0.093 h 26.3733 v 0.093 c 0.5067,5.1333 2.08,9.12 4.72,11.9733 2.6267,2.8667 6.0534,4.2933 10.2934,4.2933 4.6133,0 8.2,-1.52 10.7333,-4.5733 2.5333,-3.0533 3.8,-7.2933 3.8,-12.76 v -11.7333 c 0,-5.52 -1.12,-9.7734 -3.3733,-12.76 -2.24,-2.9867 -5.4534,-4.48 -9.6267,-4.48 -3.7733,0 -7,0.9733 -9.6667,2.8933 -2.6666,1.92 -4.5066,4.6133 -5.5333,8.08 h -24.64 v -80.4667 h 75.1733 v 25.4134 h -48.8 v 24.7333 c 2.0534,-1.9867 4.7867,-3.52 8.2267,-4.6133 3.4267,-1.0934 6.8133,-1.64 10.16,-1.64 10.9733,0 19.4533,3.7466 25.4533,11.2133 6,7.48 9,18.0133 9,31.6267 v 11.7333 c 0,13.6667 -3.6,24.24 -10.7733,31.72 -7.1867,7.48 -17.36,11.2133 -30.52,11.2133"
     style="fill:#ffffff;fill-opacity:1;fill-rule:nonzero;stroke:none;stroke-width:0.133333"
     id="path592" />
  <path
     d="m 2344.7452,1540.6533 v 139.96 h -26.3733 v -108.96 l -17.0267,6.44 v -28 l 20.88,-9.44 h 22.52"
     style="fill:#ffffff;fill-opacity:1;fill-rule:nonzero;stroke:none;stroke-width:0.133333"
     id="path594" />
  <path
     d="m 2414.5319,1656.6399 c 5.52,0 9.48,-1.88 11.8933,-5.6266 2.4,-3.76 3.6,-8.9067 3.6,-15.4534 v -50.1466 c 0,-6.6134 -1.2,-11.7734 -3.6,-15.4934 -2.4133,-3.72 -6.3733,-5.5866 -11.8933,-5.5866 -5.4534,0 -9.4,1.8666 -11.84,5.5866 -2.44,3.72 -3.6534,8.88 -3.6534,15.4934 v 50.1466 c 0,6.5467 1.2134,11.6934 3.6534,15.4534 2.44,3.7466 6.3866,5.6266 11.84,5.6266 z m 0,25.4134 c -13.92,0 -24.3867,-3.5867 -31.3734,-10.7334 -7,-7.16 -10.4933,-16.8266 -10.4933,-29.0266 v -63.6134 c 0,-12.3866 3.52,-22.1066 10.5867,-29.1733 7.0533,-7.0533 17.48,-10.5867 31.28,-10.5867 13.8666,0 24.3066,3.52 31.3333,10.5467 7.0267,7.0267 10.5333,16.76 10.5333,29.2133 v 63.6134 c 0,12.3866 -3.52,22.1066 -10.5866,29.1733 -7.0534,7.0533 -17.48,10.5867 -31.28,10.5867"
     style="fill:#ffffff;fill-opacity:1;fill-rule:nonzero;stroke:none;stroke-width:0.133333"
     id="path596" />
  <path
     d="m 2413.6252,1316.3733 c 4.7467,0 8.3733,-1.36 10.8667,-4.08 2.5066,-2.7334 3.76,-6.6 3.76,-11.6 v -0.093 c 0,-5.72 -1.2534,-10.1466 -3.76,-13.2933 -2.4934,-3.1333 -6.12,-4.7067 -10.8667,-4.7067 -4.6267,0 -8.2,1.5867 -10.7333,4.76 -2.5334,3.1734 -3.8,7.6134 -3.8,13.3334 v 0.093 c 0,5 1.2666,8.8533 3.8,11.5467 2.5333,2.6933 6.1066,4.04 10.7333,4.04 z m 0,25.4133 c -12.9733,0 -23.0267,-3.68 -30.1867,-11.0667 -7.1466,-7.3733 -10.7333,-17.7733 -10.7333,-31.1866 v -0.093 c 0,-6.0266 0.8667,-12.4 2.6133,-19.1066 1.72,-6.7067 4.0934,-13.2667 7.12,-19.68 l 28.3867,-60.2534 h 29.84 l -33.6933,69.7734 -6.64,-3.4667 c 3.3466,-6.3467 9.28,-9.52 17.8133,-9.52 11.6133,0 20.6,3.64 26.9467,10.92 6.36,7.28 9.5333,17.5733 9.5333,30.8533 v 0.093 c 0,13.5333 -3.5733,24.0533 -10.7333,31.52 -7.16,7.48 -17.24,11.2133 -30.2667,11.2133"
     style="fill:#ffffff;fill-opacity:1;fill-rule:nonzero;stroke:none;stroke-width:0.133333"
     id="path598" />
  <path
     d="m 2340.8119,849.70663 v 139.96 h -26.3734 v -108.96 l -17.0266,6.4533 v -28.0133 l 20.88,-9.44 h 22.52"
     style="fill:#ffffff;fill-opacity:1;fill-rule:nonzero;stroke:none;stroke-width:0.133333"
     id="path600" />
  <path
     d="m 2407.8119,991.10663 c -8.4134,0 -15.92,-1.5333 -22.5334,-4.6267 -6.6,-3.0666 -11.8666,-7.5333 -15.7733,-13.3733 -3.92,-5.84 -6.1067,-12.8933 -6.5467,-21.1733 h 27.24 c 0.64,4.3066 2.24,7.64 4.8134,10.0133 2.56,2.3733 5.8666,3.56 9.9066,3.56 5,0 8.8667,-1.4 11.6,-4.1867 2.72,-2.8 4.0934,-6.72 4.0934,-11.8 v -3.2666 c 0,-5.32 -1.1067,-9.4267 -3.32,-12.32 -2.2134,-2.8934 -5.3734,-4.3334 -9.48,-4.3334 h -11.84 v -25.4133 h 11.84 c 3.3333,0 5.92,-1.2667 7.7466,-3.8 1.8267,-2.5333 2.7467,-6.08 2.7467,-10.64 v -2.4 c 0,-4.2933 -1.0133,-7.6133 -3.04,-9.96 -2.0267,-2.3467 -4.8533,-3.52 -8.52,-3.52 -3.5867,0 -6.6533,1.3467 -9.1867,4.0533 -2.5333,2.6934 -4.2533,6.5067 -5.1466,11.4534 h -27.1467 c 1.16,-13.0267 5.68,-23.1334 13.5733,-30.32 7.8934,-7.1867 17.52,-10.7867 28.8667,-10.7867 12.3867,0 21.96,3.16 28.7333,9.48 6.7734,6.32 10.16,15.2933 10.16,26.9067 v 4.2266 c 0,6.4934 -1.64,12.1334 -4.9066,16.9467 -3.28,4.8133 -7.9334,8.4133 -13.96,10.7867 6.7333,1.5333 11.9466,5.0666 15.64,10.5866 3.6933,5.52 5.5333,12.5467 5.5333,21.08 v 4.2267 c 0,12.2667 -3.5867,21.76 -10.7733,28.4933 -7.1867,6.7334 -17.2934,10.1067 -30.32,10.1067"
     style="fill:#ffffff;fill-opacity:1;fill-rule:nonzero;stroke:none;stroke-width:0.133333"
     id="path602" />
  <path
     d="m 1901.9052,277.38666 v 139.94666 h -26.3733 V 308.37333 l -17.04,6.45333 v -28.01333 l 20.8933,-9.42667 h 22.52"
     style="fill:#ffffff;fill-opacity:1;fill-rule:nonzero;stroke:none;stroke-width:0.133333"
     id="path604" />
  <path
     d="m 1972.7452,333.30666 c 4.56,0 8.2133,-1.44 10.9733,-4.33333 2.76,-2.89334 4.1334,-6.73334 4.1334,-11.54667 v -1.34667 c 0,-4.44 -1.3734,-8 -4.1334,-10.69333 -2.76,-2.69333 -6.4133,-4.04 -10.9733,-4.04 -4.4933,0 -8.1333,1.34667 -10.92,4.04 -2.8,2.69333 -4.1867,6.29333 -4.1867,10.78667 v 1.44 c 0,4.69333 1.3867,8.46666 4.1867,11.36 2.7867,2.89333 6.4267,4.33333 10.92,4.33333 z m 0,60.05333 c 5.3867,0 9.7333,-1.58667 13.04,-4.76 3.3067,-3.17333 4.96,-7.36 4.96,-12.56 v -1.34666 c 0,-4.74667 -1.6533,-8.57334 -4.96,-11.45334 -3.3067,-2.89333 -7.6533,-4.33333 -13.04,-4.33333 -5.3867,0 -9.7467,1.44 -13.04,4.33333 -3.3067,2.88 -4.96,6.73334 -4.96,11.54667 v 1.44 c 0,5.14666 1.6533,9.28 4.96,12.42666 3.2933,3.14667 7.6533,4.70667 13.04,4.70667 z m 0,25.41333 c -8.92,0 -16.7067,-1.6 -23.3467,-4.81333 -6.64,-3.2 -11.8,-7.73333 -15.4933,-13.57333 -3.6933,-5.84 -5.5333,-12.66667 -5.5333,-20.49333 v -2.32 c 0,-6.98667 1.92,-13.56 5.7733,-19.72 3.8533,-6.16 8.9867,-10.81334 15.4,-13.96 -5.4533,-2.69334 -9.8667,-6.54667 -13.24,-11.54667 -3.36,-5.01333 -5.0533,-10.33333 -5.0533,-15.98667 v -3.65333 c 0,-11.10667 3.7866,-20 11.36,-26.70667 7.5733,-6.70666 17.6133,-10.06666 30.1333,-10.06666 12.5067,0 22.56,3.36 30.12,10.06666 7.5733,6.70667 11.36,15.6 11.36,26.70667 v 3.65333 c 0,5.77334 -1.6933,11.14667 -5.0933,16.12 -3.4134,4.97334 -7.8934,8.78667 -13.48,11.41334 6.48,3.14666 11.68,7.8 15.5866,13.96 3.92,6.16 5.88,12.73333 5.88,19.72 v 2.32 c 0,7.82666 -1.8533,14.65333 -5.5333,20.49333 -3.6933,5.84 -8.8533,10.37333 -15.5067,13.57333 -6.64,3.21333 -14.4133,4.81333 -23.3333,4.81333"
     style="fill:#ffffff;fill-opacity:1;fill-rule:nonzero;stroke:none;stroke-width:0.133333"
     id="path606" />
  <path
     d="m 2220.4119,666.71998 v -82.38666 h 26.3733 v 82.38666 z m -56.5067,-21.55999 v -24.25334 l 43.1333,-94.13333 h 29.8267 l -41.96,92.97333 h 62.8533 v 25.41334 h -93.8533"
     style="fill:#ffffff;fill-opacity:1;fill-rule:nonzero;stroke:none;stroke-width:0.133333"
     id="path608" />
  <path
     d="m 1635.6119,110.01333 v 139.94666 h -26.3733 V 141.01333 l -17.04,6.44 V 119.44 l 20.8933,-9.42667 h 22.52"
     style="fill:#ffffff;fill-opacity:1;fill-rule:nonzero;stroke:none;stroke-width:0.133333"
     id="path610" />
</svg>
