<?xml version="1.0" encoding="UTF-8" standalone="no"?>
<!-- Created with Inkscape (http://www.inkscape.org/) -->

<svg
   width="677.9115mm"
   height="677.91187mm"
   viewBox="0 0 677.9115 677.91187"
   version="1.1"
   id="svg9598"
   inkscape:version="1.2.2 (b0a8486541, 2022-12-01)"
   sodipodi:docname="dartboard.svg"
   xmlns:inkscape="http://www.inkscape.org/namespaces/inkscape"
   xmlns:sodipodi="http://sodipodi.sourceforge.net/DTD/sodipodi-0.dtd"
   xmlns="http://www.w3.org/2000/svg"
   xmlns:svg="http://www.w3.org/2000/svg">
  <sodipodi:namedview
     id="namedview9600"
     pagecolor="#ffffff"
     bordercolor="#000000"
     borderopacity="0.25"
     inkscape:showpageshadow="2"
     inkscape:pageopacity="0.0"
     inkscape:pagecheckerboard="0"
     inkscape:deskcolor="#d1d1d1"
     inkscape:document-units="mm"
     showgrid="false"
     inkscape:zoom="0.24630192"
     inkscape:cx="2411.6743"
     inkscape:cy="1534.7018"
     inkscape:window-width="1920"
     inkscape:window-height="1011"
     inkscape:window-x="0"
     inkscape:window-y="0"
     inkscape:window-maximized="1"
     inkscape:current-layer="layer1" />
  <defs
     id="defs9595" />
  <g
     inkscape:label="Layer 1"
     inkscape:groupmode="layer"
     id="layer1"
     transform="translate(92.958557,135.92768)">
    <path
       d="m 584.07102,203.02826 c 0,186.71469 -151.3593,338.07399 -338.07399,338.07399 -186.712928,0 -338.073642,-151.3593 -338.073642,-338.07399 0,-186.71469 151.360714,-338.07399 338.073642,-338.07399 186.71469,0 338.07399,151.3593 338.07399,338.07399"
       style="fill:#100f0d;fill-opacity:1;fill-rule:nonzero;stroke:none;stroke-width:0.0352778"
       id="path240" />
    <path
       d="m 584.07102,203.02826 c 0,186.71469 -151.3593,338.07399 -338.07399,338.07399 -186.712928,0 -338.073642,-151.3593 -338.073642,-338.07399 0,-186.71469 151.360714,-338.07399 338.073642,-338.07399 186.71469,0 338.07399,151.3593 338.07399,338.07399 z"
       style="fill:none;stroke:#e2cdcc;stroke-width:1.76389;stroke-linecap:butt;stroke-linejoin:miter;stroke-miterlimit:10;stroke-dasharray:none;stroke-opacity:1"
       id="path242" />
    <path
       d="m 218.752,-81.963261 v -6.290028 l 12.70706,-16.707551 c 0.57502,-0.74789 1.02305,-1.51342 1.33702,-2.30364 0.31398,-0.79023 0.47273,-1.524 0.47273,-2.20486 v -0.0494 c 0,-1.00189 -0.32456,-1.77448 -0.97014,-2.31775 -0.64559,-0.54328 -1.56281,-0.81492 -2.74814,-0.81492 -1.13947,0 -2.06728,0.37747 -2.79047,1.13242 -0.7232,0.75494 -1.15711,1.83091 -1.31234,3.22086 v 0.0282 h -7.15433 v -0.0282 c 0.23636,-3.51367 1.36172,-6.23711 3.37256,-8.17386 2.01436,-1.93675 4.62491,-2.90336 7.83166,-2.90336 3.48192,0 6.17714,0.83961 8.08567,2.52236 1.91205,1.67922 2.86455,4.05694 2.86455,7.12964 v 0.0247 c 0,1.68275 -0.2928,3.35139 -0.87841,5.00592 -0.58561,1.65452 -1.40406,3.15383 -2.45534,4.49439 l -9.1193,11.511134 h 12.65767 v 6.723945 H 218.752"
       style="fill:#ffffff;fill-opacity:1;fill-rule:nonzero;stroke:none;stroke-width:0.0352778"
       id="path580" />
    <path
       d="m 257.33178,-88.306206 c 1.4605,0 2.50825,-0.497416 3.14678,-1.488722 0.635,-0.994833 0.95602,-2.356555 0.95602,-4.088694 v -13.267968 c 0,-1.74625 -0.32102,-3.11503 -0.95602,-4.09928 -0.63853,-0.98425 -1.68628,-1.47814 -3.14678,-1.47814 -1.44286,0 -2.48709,0.49389 -3.13267,1.47814 -0.64558,0.98425 -0.96661,2.35303 -0.96661,4.09928 v 13.267968 c 0,1.732139 0.32103,3.093861 0.96661,4.088694 0.64558,0.991306 1.68981,1.488722 3.13267,1.488722 z m 0,6.723945 c -3.683,0 -6.45231,-0.945445 -8.30086,-2.839861 -1.85209,-1.894417 -2.77636,-4.452056 -2.77636,-7.676445 v -16.834553 c 0,-3.27731 0.93486,-5.84906 2.80105,-7.71525 1.86972,-1.86972 4.62845,-2.80458 8.27617,-2.80458 3.66889,0 6.43114,0.93133 8.29028,2.79047 1.85913,1.85914 2.78694,4.43441 2.78694,7.72936 v 16.834553 c 0,3.277306 -0.93133,5.849056 -2.80106,7.71525 -1.86619,1.866195 -4.62491,2.801056 -8.27616,2.801056"
       style="fill:#ffffff;fill-opacity:1;fill-rule:nonzero;stroke:none;stroke-width:0.0352778"
       id="path582" />
    <path
       d="m 158.95652,-66.8679 c -2.9718,0 -5.46276,-0.970139 -7.47501,-2.903362 -2.01083,-1.936749 -3.13619,-4.660194 -3.37396,-8.177388 v -0.02469 h 6.97759 v 0.02469 c 0.13617,1.358194 0.55139,2.416528 1.24777,3.171472 0.69639,0.754944 1.60514,1.132417 2.72592,1.132417 1.22167,0 2.16852,-0.402167 2.83915,-1.2065 0.67028,-0.807861 1.00613,-1.933223 1.00613,-3.376084 v -3.107972 c 0,-1.4605 -0.2974,-2.582333 -0.89183,-3.372555 -0.59443,-0.790222 -1.44286,-1.185334 -2.54635,-1.185334 -1.00153,0 -1.85561,0.254 -2.55905,0.765528 -0.70555,0.508 -1.19309,1.220611 -1.46438,2.137833 h -6.51968 v -21.290135 h 19.88996 v 6.723941 h -12.91202 v 6.544028 c 0.54328,-0.525639 1.26824,-0.934861 2.17664,-1.224139 0.90876,-0.28575 1.80481,-0.430389 2.68711,-0.430389 2.90265,0 5.14879,0.987778 6.73594,2.966861 1.5875,1.979084 2.38125,4.766028 2.38125,8.364361 v 3.107972 c 0,3.615972 -0.9525,6.4135 -2.85398,8.392583 -1.89935,1.975556 -4.59105,2.966862 -8.0712,2.966862"
       style="fill:#ffffff;fill-opacity:1;fill-rule:nonzero;stroke:none;stroke-width:0.0352778"
       id="path584" />
    <path
       d="m 63.821529,-65.160456 v 37.027555 h -6.977591 v -28.829 l -4.507794,1.707445 v -7.411861 l 5.526616,-2.494139 h 5.958769"
       style="fill:#ffffff;fill-opacity:1;fill-rule:nonzero;stroke:none;stroke-width:0.0352778"
       id="path586" />
    <path
       d="m 70.647074,-28.132901 v -6.290028 l 12.707408,-16.704027 c 0.577144,-0.747889 1.023055,-1.516945 1.33738,-2.307167 0.31362,-0.790222 0.470959,-1.524 0.470959,-2.201333 v -0.05292 c 0,-1.001889 -0.322439,-1.770944 -0.968023,-2.31775 -0.64523,-0.543278 -1.561747,-0.814917 -2.749902,-0.814917 -1.137709,0 -2.067278,0.381 -2.788709,1.135945 -0.722136,0.754944 -1.158874,1.827389 -1.31198,3.220861 v 0.02469 H 70.18811 v -0.02469 c 0.237772,-3.513667 1.36278,-6.240639 3.374672,-8.173861 2.011539,-1.93675 4.622094,-2.903361 7.830961,-2.903361 3.480153,0 6.175728,0.839611 8.085666,2.518833 1.909587,1.68275 2.864909,4.060472 2.864909,7.133167 v 0.02469 c 0,1.679222 -0.292806,3.347861 -0.87877,5.002389 -0.585611,1.658055 -1.404761,3.153833 -2.45745,4.494389 l -9.116836,11.511138 h 12.656961 v 6.723945 H 70.647074"
       style="fill:#ffffff;fill-opacity:1;fill-rule:nonzero;stroke:none;stroke-width:0.0352778"
       id="path588" />
    <path
       d="m -1.8159496,22.79057 c 1.22272773,0 2.16887771,-0.395111 2.839861,-1.185334 0.6702778,-0.790222 1.0061222,-1.904999 1.0061222,-3.347861 v -0.02822 c 0,-1.389944 -0.3358444,-2.462389 -1.0061222,-3.220861 -0.67098329,-0.754944 -1.61713327,-1.132416 -2.839861,-1.132416 -1.2393083,0 -2.1942777,0.381 -2.8645555,1.146527 -0.6709833,0.762 -1.0061222,1.8415 -1.0061222,3.234972 v 0.0247 c 0,1.442861 0.3351389,2.554111 1.0061222,3.337278 0.6702778,0.779638 1.6252472,1.171222 2.8645555,1.171222 z M -7.5969189,44.511097 0.45100033,26.12432 1.6987753,27.041542 c -0.4420305,0.800805 -1.09537497,1.375833 -1.96109162,1.732139 -0.86571668,0.356305 -1.86760548,0.536222 -3.00496108,0.536222 -2.8186943,0 -5.0895249,-0.991306 -6.8124916,-2.966861 -1.723672,-1.979083 -2.585155,-4.607278 -2.585155,-7.884583 v -0.0247 c 0,-3.598333 0.946855,-6.385277 2.8398607,-8.364361 1.8930055,-1.9790829 4.5624749,-2.9668607 8.0091137,-2.9668607 3.4466388,0 6.1122276,0.9983611 7.9967665,2.9915557 1.8845388,1.996722 2.8268082,4.818944 2.8268082,8.466666 v 0.02822 c 0,1.509888 -0.250825,3.125611 -0.7510638,4.850694 -0.5012972,1.721555 -1.1165417,3.457222 -1.8464389,5.207 L -0.21151632,44.511097 H -7.5969189"
       style="fill:#ffffff;fill-opacity:1;fill-rule:nonzero;stroke:none;stroke-width:0.0352778"
       id="path590" />
    <path
       d="m -54.365373,95.600374 v 37.027556 h -6.977945 v -28.82547 l -4.507794,1.70391 v -7.40833 l 5.526616,-2.497666 h 5.959123"
       style="fill:#ffffff;fill-opacity:1;fill-rule:nonzero;stroke:none;stroke-width:0.0352778"
       id="path592" />
    <path
       d="m -32.540071,132.65615 v -21.80167 h 6.976886 v 21.80167 z m -14.949311,-5.70442 v -6.41702 l 11.409186,-24.906114 h 7.894814 l -11.103681,24.599194 h 16.629944 v 6.72394 h -24.830263"
       style="fill:#ffffff;fill-opacity:1;fill-rule:nonzero;stroke:none;stroke-width:0.0352778"
       id="path594" />
    <path
       d="m -60.10789,187.16032 v 37.03108 h -6.978297 v -28.829 l -4.507794,1.70744 v -7.41186 l 5.526263,-2.49766 h 5.959828"
       style="fill:#ffffff;fill-opacity:1;fill-rule:nonzero;stroke:none;stroke-width:0.0352778"
       id="path596" />
    <path
       d="m -42.765335,187.16032 v 37.03108 h -6.978297 v -28.829 l -4.507441,1.70744 v -7.41186 l 5.526263,-2.49766 h 5.959475"
       style="fill:#ffffff;fill-opacity:1;fill-rule:nonzero;stroke:none;stroke-width:0.0352778"
       id="path598" />
    <path
       d="m -43.425382,287.99479 c 1.205794,0 2.173464,-0.38453 2.904067,-1.14653 0.729191,-0.76553 1.094316,-1.78506 1.094316,-3.05858 v -0.35631 c 0,-1.17122 -0.365125,-2.11314 -1.094316,-2.82575 -0.730603,-0.71261 -1.698273,-1.06892 -2.904067,-1.06892 -1.18745,0 -2.151592,0.35631 -2.889956,1.06892 -0.738363,0.71261 -1.107016,1.66511 -1.107016,2.85397 v 0.381 c 0,1.23825 0.368653,2.24014 1.107016,3.00567 0.738364,0.762 1.702506,1.14653 2.889956,1.14653 z m 0,15.88911 c 1.426986,0 2.577394,-0.41981 3.45193,-1.25942 0.873125,-0.83961 1.311275,-1.94733 1.311275,-3.32317 v -0.3563 c 0,-1.25589 -0.43815,-2.26836 -1.311275,-3.03036 -0.874536,-0.76553 -2.024944,-1.14653 -3.45193,-1.14653 -1.425575,0 -2.575631,0.381 -3.450167,1.14653 -0.874536,0.762 -1.311275,1.78152 -1.311275,3.05505 v 0.381 c 0,1.3582 0.436739,2.45534 1.311275,3.28436 0.874536,0.83256 2.024592,1.24884 3.450167,1.24884 z m 0,6.72394 c -2.359025,0 -4.417836,-0.42333 -6.175022,-1.27353 -1.756833,-0.85019 -3.123847,-2.04611 -4.100336,-3.59127 -0.976489,-1.54517 -1.464028,-3.35139 -1.464028,-5.4222 v -0.61383 c 0,-1.84856 0.509411,-3.59128 1.527528,-5.22111 1.018469,-1.62984 2.377369,-2.86103 4.075641,-3.69006 -1.443919,-0.71261 -2.611261,-1.73214 -3.50273,-3.05858 -0.890764,-1.32292 -1.336675,-2.7305 -1.336675,-4.22628 v -0.96661 c 0,-2.93864 1.001889,-5.29519 3.005314,-7.06614 2.003072,-1.77447 4.660547,-2.66347 7.970308,-2.66347 3.311172,0 5.968647,0.889 7.972072,2.66347 2.003072,1.77095 3.004608,4.1275 3.004608,7.06614 v 0.96661 c 0,1.52753 -0.450497,2.94922 -1.349727,4.26508 -0.899584,1.31587 -2.088445,2.32128 -3.565173,3.01978 1.715206,0.82903 3.089981,2.06022 4.125384,3.69006 1.035755,1.62983 1.553986,3.37255 1.553986,5.22111 v 0.61383 c 0,2.07081 -0.48895,3.87703 -1.464381,5.4222 -0.976489,1.54516 -2.343503,2.74108 -4.100336,3.59127 -1.757186,0.8502 -3.815997,1.27353 -6.176433,1.27353"
       style="fill:#ffffff;fill-opacity:1;fill-rule:nonzero;stroke:none;stroke-width:0.0352778"
       id="path600" />
    <path
       d="m -13.073794,356.09501 v 37.02755 h -6.977944 v -28.82547 l -4.507794,1.70392 v -7.41186 l 5.526616,-2.49414 h 5.959122"
       style="fill:#ffffff;fill-opacity:1;fill-rule:nonzero;stroke:none;stroke-width:0.0352778"
       id="path602" />
    <path
       d="m 4.3710669,386.78315 c 1.2555361,0 2.2150916,-0.35984 2.8776083,-1.08303 0.6621639,-0.71967 0.9934222,-1.74625 0.9934222,-3.06917 v -0.0247 c 0,-1.50989 -0.3312583,-2.68111 -0.9934222,-3.51367 -0.6625167,-0.83256 -1.6220722,-1.24883 -2.8776083,-1.24883 -1.2230805,0 -2.1688777,0.4198 -2.8391555,1.25941 -0.67168886,0.84314 -1.00612218,2.01789 -1.00612218,3.52778 v 0.0247 c 0,1.32644 0.33443332,2.34244 1.00612218,3.05858 0.6702778,0.71261 1.616075,1.06892 2.8391555,1.06892 z m 0,6.72394 c -3.43041102,0 -6.0914137,-0.9772 -7.9844193,-2.93158 -1.8930055,-1.95086 -2.8391555,-4.70253 -2.8391555,-8.25148 v -0.0247 c 0,-1.59456 0.2293056,-3.28083 0.6875639,-5.05531 0.4582583,-1.77447 1.0865556,-3.51013 1.8848916,-5.207 L 3.6323503,356.09501 H 11.527164 L 2.6138808,374.5594 0.85704754,373.64217 c 0.88229716,-1.68275 2.45215826,-2.52236 4.71064156,-2.52236 3.0726944,0 5.4500639,0.96309 7.1310499,2.88925 1.679928,1.9297 2.520597,4.64961 2.520597,8.16328 v 0.0247 c 0,3.58423 -0.94615,6.36412 -2.839155,8.3432 -1.893359,1.97555 -4.5631808,2.96686 -8.0091141,2.96686"
       style="fill:#ffffff;fill-opacity:1;fill-rule:nonzero;stroke:none;stroke-width:0.0352778"
       id="path604" />
    <path
       d="m 82.104943,433.06053 v 4.6355 l -8.301919,32.39206 H 66.23841 l 8.047919,-30.30361 h -6.366933 v 5.57741 h -6.977944 v -12.30136 h 21.163491"
       style="fill:#ffffff;fill-opacity:1;fill-rule:nonzero;stroke:none;stroke-width:0.0352778"
       id="path606" />
    <path
       d="m 150.29724,475.10812 v 37.03108 h -6.97795 v -28.829 l -4.50744,1.70744 v -7.41186 l 5.52662,-2.49766 h 5.95877"
       style="fill:#ffffff;fill-opacity:1;fill-rule:nonzero;stroke:none;stroke-width:0.0352778"
       id="path608" />
    <path
       d="m 167.76856,490.41514 c 1.22061,0 2.16605,-0.39511 2.83986,-1.18533 0.67028,-0.79022 1.00542,-1.905 1.00542,-3.34786 v -0.0247 c 0,-1.39347 -0.33514,-2.46591 -1.00542,-3.22086 -0.67381,-0.75847 -1.61925,-1.13594 -2.83986,-1.13594 -1.24037,0 -2.19534,0.38453 -2.86562,1.14653 -0.67133,0.76552 -1.00612,1.8415 -1.00612,3.23497 v 0.0247 c 0,1.44286 0.33479,2.55411 1.00612,3.33728 0.67028,0.77964 1.62525,1.17122 2.86562,1.17122 z m -5.78203,21.72406 8.04686,-18.38678 1.24883,0.91722 c -0.44097,0.79728 -1.09713,1.37231 -1.96144,1.72861 -0.86431,0.35631 -1.86972,0.53623 -3.00461,0.53623 -2.81869,0 -5.08952,-0.98778 -6.81249,-2.96687 -1.72402,-1.97908 -2.58516,-4.60374 -2.58516,-7.88105 v -0.0282 c 0,-3.59834 0.94615,-6.38528 2.83916,-8.36436 1.89336,-1.97909 4.56353,-2.96686 8.01088,-2.96686 3.44664,0 6.11011,0.99836 7.99394,2.99155 1.88736,1.99672 2.82928,4.81895 2.82928,8.4702 v 0.0247 c 0,1.50989 -0.25047,3.12914 -0.75142,4.85069 -0.50094,1.72156 -1.1183,3.46075 -1.84855,5.207 l -6.61811,15.86795 h -7.38717"
       style="fill:#ffffff;fill-opacity:1;fill-rule:nonzero;stroke:none;stroke-width:0.0352778"
       id="path610" />
    <path
       d="m 249.14028,525.89048 c -2.22603,0 -4.21217,-0.40923 -5.96195,-1.22414 -1.74625,-0.81139 -3.13972,-1.9932 -4.17688,-3.53836 -1.03364,-1.54517 -1.6122,-3.41137 -1.72862,-5.60212 h 7.20373 c 0.17286,1.13595 0.59619,2.02142 1.27705,2.64937 0.67733,0.62794 1.55222,0.94191 2.62114,0.94191 1.32292,0 2.34597,-0.37041 3.06917,-1.10772 0.71966,-0.74083 1.08302,-1.778 1.08302,-3.12208 v -0.86431 c 0,-1.41111 -0.2928,-2.49767 -0.87841,-3.25967 -0.58561,-0.76552 -1.4217,-1.14652 -2.50825,-1.14652 h -3.13267 v -6.72395 h 3.13267 c 0.88194,0 1.56633,-0.33514 2.04964,-1.00541 0.4833,-0.67028 0.72319,-1.60867 0.72319,-2.81517 v -0.635 c 0,-1.13595 -0.26458,-2.01436 -0.8008,-2.63525 -0.53623,-0.62089 -1.28764,-0.93133 -2.25425,-0.93133 -0.9525,0 -1.76037,0.3563 -2.43064,1.06891 -0.67028,0.71614 -1.12536,1.72509 -1.36173,3.03389 h -7.18255 c 0.30692,-3.44664 1.50283,-6.12069 3.59128,-8.02216 2.08844,-1.90148 4.6355,-2.85398 7.63764,-2.85398 3.2773,0 5.81025,0.83609 7.60236,2.50825 1.79211,1.67217 2.68816,4.04636 2.68816,7.11906 v 1.1183 c 0,1.71803 -0.43391,3.21028 -1.29822,4.48381 -0.86783,1.27353 -2.09903,2.2225 -3.69358,2.85397 1.78153,0.4057 3.16089,1.34056 4.13808,2.80106 0.9772,1.4605 1.46403,3.31964 1.46403,5.57741 v 1.11831 c 0,3.24203 -0.9525,5.75733 -2.85045,7.53886 -1.90147,1.78153 -4.57905,2.67406 -8.02216,2.67406"
       style="fill:#ffffff;fill-opacity:1;fill-rule:nonzero;stroke:none;stroke-width:0.0352778"
       id="path612" />
    <path
       d="m 334.83,473.97923 v 37.02755 h -6.97795 v -28.82547 l -4.5085,1.70392 v -7.40834 l 5.52803,-2.49766 H 334.83"
       style="fill:#ffffff;fill-opacity:1;fill-rule:nonzero;stroke:none;stroke-width:0.0352778"
       id="path614" />
    <path
       d="m 362.36078,473.97923 v 4.6355 l -8.30087,32.39205 h -7.56708 l 8.05039,-30.30361 h -6.36764 v 5.57742 h -6.97794 v -12.30136 h 21.16314"
       style="fill:#ffffff;fill-opacity:1;fill-rule:nonzero;stroke:none;stroke-width:0.0352778"
       id="path616" />
    <path
       d="m 414.67772,465.23034 v -6.29003 l 12.70705,-16.70756 c 0.57856,-0.74788 1.02306,-1.51694 1.33703,-2.30363 0.31397,-0.79023 0.47272,-1.524 0.47272,-2.20486 v -0.0494 c 0,-1.00189 -0.32455,-1.77448 -0.97013,-2.31775 -0.64559,-0.54328 -1.55928,-0.81492 -2.74814,-0.81492 -1.13948,0 -2.06728,0.37747 -2.79048,1.13242 -0.71966,0.75494 -1.15711,1.83091 -1.3088,3.22086 v 0.0282 h -7.15786 v -0.0282 c 0.23636,-3.51367 1.36172,-6.23711 3.37608,-8.17386 2.01083,-1.93675 4.62139,-2.90336 7.82814,-2.90336 3.48192,0 6.17714,0.83961 8.08567,2.52236 1.91205,1.67922 2.86808,4.05694 2.86808,7.12964 v 0.0247 c 0,1.68275 -0.29281,3.35139 -0.88194,5.00592 -0.58562,1.65452 -1.40406,3.15383 -2.45534,4.49438 l -9.1193,11.51114 h 12.65766 v 6.72395 h -21.90044"
       style="fill:#ffffff;fill-opacity:1;fill-rule:nonzero;stroke:none;stroke-width:0.0352778"
       id="path618" />
    <path
       d="m 488.78222,358.46215 v 37.03108 h -6.97795 v -28.829 l -4.50497,1.70744 v -7.41186 l 5.5245,-2.49766 h 5.95842"
       style="fill:#ffffff;fill-opacity:1;fill-rule:nonzero;stroke:none;stroke-width:0.0352778"
       id="path620" />
    <path
       d="m 507.0173,395.87423 c -2.97039,0 -5.461,-0.96661 -7.47536,-2.90336 -2.01083,-1.93675 -3.1362,-4.6602 -3.37256,-8.17386 v -0.0247 h 6.97795 v 0.0247 c 0.13405,1.35819 0.55033,2.413 1.24883,3.16794 0.69497,0.75847 1.60161,1.13595 2.72345,1.13595 1.22061,0 2.16958,-0.40217 2.83986,-1.21003 0.67027,-0.80786 1.00541,-1.9297 1.00541,-3.37609 v -3.10444 c 0,-1.4605 -0.29633,-2.58586 -0.89252,-3.37608 -0.59267,-0.79023 -1.44287,-1.18534 -2.54706,-1.18534 -0.99836,0 -1.85208,0.25753 -2.55764,0.76553 -0.70555,0.508 -1.19239,1.22061 -1.46403,2.13783 h -6.51933 v -21.29013 h 19.88961 v 6.72394 h -12.91167 v 6.54403 c 0.54328,-0.52564 1.26648,-0.93134 2.17664,-1.22061 0.90664,-0.28928 1.8027,-0.43392 2.68817,-0.43392 2.90336,0 5.14703,0.99131 6.73453,2.96686 1.5875,1.97908 2.38125,4.76603 2.38125,8.36789 v 3.10444 c 0,3.61598 -0.9525,6.4135 -2.85045,8.39259 -1.90147,1.97908 -4.59316,2.96686 -8.07508,2.96686"
       style="fill:#ffffff;fill-opacity:1;fill-rule:nonzero;stroke:none;stroke-width:0.0352778"
       id="path622" />
    <path
       d="m 527.42197,271.70351 v 37.03108 h -6.97795 v -28.829 l -4.50497,1.70392 v -7.40833 l 5.5245,-2.49767 h 5.95842"
       style="fill:#ffffff;fill-opacity:1;fill-rule:nonzero;stroke:none;stroke-width:0.0352778"
       id="path624" />
    <path
       d="m 545.88635,302.39165 c 1.4605,0 2.50825,-0.49742 3.14678,-1.48873 0.635,-0.99483 0.9525,-2.35655 0.9525,-4.08869 v -13.26797 c 0,-1.74978 -0.3175,-3.11503 -0.9525,-4.09928 -0.63853,-0.98425 -1.68628,-1.47814 -3.14678,-1.47814 -1.44286,0 -2.48708,0.49389 -3.13266,1.47814 -0.64558,0.98425 -0.96661,2.3495 -0.96661,4.09928 v 13.26797 c 0,1.73214 0.32103,3.09386 0.96661,4.08869 0.64558,0.99131 1.6898,1.48873 3.13266,1.48873 z m 0,6.72394 c -3.68299,0 -6.4523,-0.94897 -8.30086,-2.83986 -1.85208,-1.89442 -2.77636,-4.45206 -2.77636,-7.67997 v -16.83103 c 0,-3.2773 0.93134,-5.84905 2.80106,-7.71878 1.86619,-1.86619 4.62492,-2.80105 8.27616,-2.80105 3.66889,0 6.43114,0.93133 8.29028,2.79047 1.85914,1.85914 2.78695,4.43442 2.78695,7.72936 v 16.83103 c 0,3.2773 -0.93134,5.84905 -2.80106,7.71878 -1.86619,1.86619 -4.62492,2.80105 -8.27617,2.80105"
       style="fill:#ffffff;fill-opacity:1;fill-rule:nonzero;stroke:none;stroke-width:0.0352778"
       id="path626" />
    <path
       d="m 545.64647,212.36276 c 1.25588,0 2.21544,-0.35983 2.87513,-1.0795 0.66323,-0.72319 0.99484,-1.74625 0.99484,-3.06917 v -0.0247 c 0,-1.51342 -0.33161,-2.68464 -0.99484,-3.5172 -0.65969,-0.82902 -1.61925,-1.2453 -2.87513,-1.2453 -1.22414,0 -2.16959,0.4198 -2.83986,1.25942 -0.67028,0.83961 -1.00542,2.01436 -1.00542,3.52777 v 0.0247 c 0,1.32291 0.33514,2.34244 1.00542,3.05505 0.67027,0.71261 1.61572,1.06892 2.83986,1.06892 z m 0,6.72394 c -3.43253,0 -6.09248,-0.97366 -7.98689,-2.92805 -1.89089,-1.95086 -2.83986,-4.70253 -2.83986,-8.25147 v -0.0247 c 0,-1.59455 0.2293,-3.28083 0.69144,-5.0553 0.45508,-1.77448 1.08303,-3.51014 1.88383,-5.207 l 7.51064,-15.94203 h 7.89517 l -8.91469,18.46086 -1.75684,-0.91722 c 0.88547,-1.67922 2.45534,-2.51884 4.71311,-2.51884 3.0727,0 5.45042,0.96309 7.12964,2.88925 1.68275,1.92617 2.52236,4.64962 2.52236,8.16328 v 0.0247 c 0,3.58069 -0.94544,6.36411 -2.83986,8.33966 -1.89442,1.97909 -4.56142,2.96686 -8.00805,2.96686"
       style="fill:#ffffff;fill-opacity:1;fill-rule:nonzero;stroke:none;stroke-width:0.0352778"
       id="path628" />
    <path
       d="m 526.38127,88.890541 v 37.031079 h -6.97794 V 97.092624 l -4.50497,1.707444 v -7.411861 l 5.5245,-2.497666 h 5.95841"
       style="fill:#ffffff;fill-opacity:1;fill-rule:nonzero;stroke:none;stroke-width:0.0352778"
       id="path630" />
    <path
       d="m 544.10836,126.30262 c -2.22603,0 -4.21217,-0.40569 -5.96195,-1.22414 -1.74625,-0.81138 -3.13972,-1.99319 -4.17336,-3.53836 -1.03717,-1.54516 -1.61572,-3.41136 -1.73214,-5.60211 h 7.20725 c 0.16933,1.13947 0.59267,2.02142 1.27353,2.64936 0.67733,0.62795 1.55222,0.94192 2.62114,0.94192 1.32291,0 2.34597,-0.37042 3.06916,-1.10772 0.71967,-0.74084 1.08303,-1.778 1.08303,-3.12209 v -0.8643 c 0,-1.40758 -0.2928,-2.49414 -0.87842,-3.25967 -0.58561,-0.76553 -1.42169,-1.14653 -2.50824,-1.14653 h -3.13267 v -6.72394 h 3.13267 c 0.88194,0 1.56633,-0.33514 2.04963,-1.00542 0.48331,-0.67027 0.72673,-1.60866 0.72673,-2.815163 v -0.635 c 0,-1.135944 -0.26812,-2.014361 -0.80434,-2.63525 -0.53622,-0.620889 -1.28411,-0.931333 -2.25425,-0.931333 -0.94897,0 -1.76036,0.356305 -2.43064,1.072444 -0.67027,0.712611 -1.12536,1.721556 -1.36172,3.030361 h -7.18255 c 0.30691,-3.446639 1.50283,-6.120694 3.59127,-8.022166 2.08845,-1.901472 4.6355,-2.853972 7.63764,-2.853972 3.27731,0 5.81025,0.836083 7.60236,2.508249 1.79211,1.672167 2.68817,4.046362 2.68817,7.119056 v 1.118305 c 0,1.718029 -0.43392,3.210279 -1.29822,4.483809 -0.86784,1.27352 -2.09903,2.22602 -3.69359,2.85397 1.78153,0.40569 3.16089,1.34055 4.13809,2.80105 0.97719,1.4605 1.46403,3.31964 1.46403,5.57742 v 1.11831 c 0,3.24555 -0.94898,5.75733 -2.85045,7.53886 -1.90147,1.78153 -4.57553,2.67405 -8.02216,2.67405"
       style="fill:#ffffff;fill-opacity:1;fill-rule:nonzero;stroke:none;stroke-width:0.0352778"
       id="path632" />
    <path
       d="m 410.25389,-62.535789 v 37.027554 h -6.97795 v -28.828999 l -4.5085,1.707444 v -7.411861 l 5.52803,-2.494138 h 5.95842"
       style="fill:#ffffff;fill-opacity:1;fill-rule:nonzero;stroke:none;stroke-width:0.0352778"
       id="path634" />
    <path
       d="m 428.99697,-47.74029 c 1.2065,0 2.17311,-0.381 2.90336,-1.146528 0.73025,-0.765527 1.09361,-1.781527 1.09361,-3.055055 v -0.356306 c 0,-1.17475 -0.36336,-2.116666 -1.09361,-2.829277 -0.73025,-0.712611 -1.69686,-1.068917 -2.90336,-1.068917 -1.18886,0 -2.15195,0.356306 -2.88925,1.068917 C 425.36689,-54.414845 425,-53.462345 425,-52.273484 v 0.381 c 0,1.241778 0.36689,2.240139 1.10772,3.005666 0.7373,0.765528 1.70039,1.146528 2.88925,1.146528 z m 0,15.889111 c 1.42522,0 2.57528,-0.419806 3.45017,-1.259417 0.87488,-0.839611 1.31233,-1.947333 1.31233,-3.323166 v -0.356306 c 0,-1.255889 -0.43745,-2.268361 -1.31233,-3.030361 -0.87489,-0.765528 -2.02495,-1.146528 -3.45017,-1.146528 -1.42522,0 -2.57881,0.381 -3.45017,1.146528 -0.87489,0.762 -1.31233,1.781528 -1.31233,3.055056 v 0.381 c 0,1.361722 0.43744,2.455333 1.31233,3.287888 0.87136,0.832556 2.02495,1.245306 3.45017,1.245306 z m 0,6.723944 c -2.36008,0 -4.42031,-0.423333 -6.17714,-1.273527 -1.75683,-0.846667 -3.12208,-2.046112 -4.09928,-3.591278 -0.97719,-1.545167 -1.46403,-3.351389 -1.46403,-5.422194 v -0.613834 c 0,-1.848555 0.508,-3.58775 1.52753,-5.217583 1.01953,-1.629833 2.37772,-2.861028 4.07459,-3.693583 -1.44287,-0.712611 -2.61056,-1.732139 -3.50309,-3.055056 -0.889,-1.326444 -1.33703,-2.734027 -1.33703,-4.229805 v -0.966611 c 0,-2.938639 1.00189,-5.291667 3.00567,-7.066139 2.00378,-1.774472 4.6602,-2.663472 7.97278,-2.663472 3.30905,0 5.969,0.889 7.96925,2.663472 2.00378,1.774472 3.00567,4.1275 3.00567,7.066139 v 0.966611 c 0,1.527528 -0.44803,2.949222 -1.34762,4.265083 -0.90311,1.315861 -2.08844,2.324806 -3.56658,3.019778 1.7145,0.832555 3.09033,2.06375 4.12397,3.693583 1.03717,1.629833 1.55575,3.369028 1.55575,5.217583 v 0.613834 c 0,2.070805 -0.49036,3.877027 -1.46402,5.422194 -0.9772,1.545166 -2.34245,2.744611 -4.10281,3.591278 -1.75683,0.850194 -3.81353,1.273527 -6.17361,1.273527"
       style="fill:#ffffff;fill-opacity:1;fill-rule:nonzero;stroke:none;stroke-width:0.0352778"
       id="path636" />
    <path
       d="M 494.52544,40.475319 V 18.677181 h 6.97794 V 40.475319 Z M 479.57472,34.770903 V 28.353875 L 490.98708,3.4477647 h 7.89164 L 487.7768,28.046959 h 16.62994 v 6.723944 h -24.83202"
       style="fill:#ffffff;fill-opacity:1;fill-rule:nonzero;stroke:none;stroke-width:0.0352778"
       id="path638" />
    <path
       d="m 339.79711,-106.81998 v 37.027552 h -6.97794 V -98.6179 l -4.5085,1.703917 v -7.411857 l 5.52802,-2.49414 h 5.95842"
       style="fill:#ffffff;fill-opacity:1;fill-rule:nonzero;stroke:none;stroke-width:0.0352778"
       id="path640" />
  </g>
</svg>
