<?xml version="1.0" encoding="UTF-8" standalone="no"?>
<!-- Generator: Adobe Illustrator 24.1.2, SVG Export Plug-In . SVG Version: 6.00 Build 0)  -->

<svg
   version="1.1"
   id="Layer_1"
   x="0px"
   y="0px"
   viewBox="0 0 546.97522 514.57189"
   xml:space="preserve"
   sodipodi:docname="dart_flight_Check.svg"
   width="546.97522"
   height="514.5719"
   inkscape:version="1.4 (86a8ad7, 2024-10-11)"
   xmlns:inkscape="http://www.inkscape.org/namespaces/inkscape"
   xmlns:sodipodi="http://sodipodi.sourceforge.net/DTD/sodipodi-0.dtd"
   xmlns="http://www.w3.org/2000/svg"
   xmlns:svg="http://www.w3.org/2000/svg"><defs
   id="defs8"><radialGradient
     id="paint3_radial"
     cx="0"
     cy="0"
     r="1"
     gradientUnits="userSpaceOnUse"
     gradientTransform="matrix(-163.8204,75.293546,-31.87199,-69.345676,256.28625,354.21048)"><stop
       stop-color="#440063"
       stop-opacity="0.25"
       id="stop20" /><stop
       offset="1"
       stop-color="#420061"
       stop-opacity="0"
       id="stop21" /></radialGradient><radialGradient
     id="paint2_radial"
     cx="0"
     cy="0"
     r="1"
     gradientUnits="userSpaceOnUse"
     gradientTransform="matrix(-67.704265,138.02472,-70.734503,-34.696878,326.32835,205.8328)"><stop
       stop-color="#FBE07A"
       stop-opacity="0.75"
       id="stop15" /><stop
       offset="0.0803394"
       stop-color="#FBE387"
       stop-opacity="0.6897"
       id="stop16" /><stop
       offset="0.5173"
       stop-color="#FDF2C7"
       stop-opacity="0.362"
       id="stop17" /><stop
       offset="0.8357"
       stop-color="#FFFBF0"
       stop-opacity="0.1233"
       id="stop18" /><stop
       offset="1"
       stop-color="white"
       stop-opacity="0"
       id="stop19" /></radialGradient><linearGradient
     id="paint1_linear"
     x1="15.2501"
     y1="0.62542599"
     x2="7.4344301"
     y2="23.6215"
     gradientUnits="userSpaceOnUse"
     gradientTransform="matrix(18.394376,0,0,18.394376,42.098449,41.055417)"><stop
       offset="0.2544"
       stop-color="#90D856"
       id="stop9" /><stop
       offset="0.736"
       stop-color="#00CC00"
       id="stop10" /><stop
       offset="0.7716"
       stop-color="#0BCD07"
       id="stop11" /><stop
       offset="0.8342"
       stop-color="#29CF18"
       id="stop12" /><stop
       offset="0.9166"
       stop-color="#59D335"
       id="stop13" /><stop
       offset="1"
       stop-color="#90D856"
       id="stop14" /></linearGradient><linearGradient
     id="paint0_linear"
     x1="15.825"
     y1="-13.9667"
     x2="9.8253298"
     y2="23.917101"
     gradientUnits="userSpaceOnUse"
     gradientTransform="matrix(18.394376,0,0,18.394376,42.098449,41.055417)"><stop
       stop-color="#00CC00"
       id="stop4" /><stop
       offset="0.1878"
       stop-color="#06C102"
       id="stop5" /><stop
       offset="0.5185"
       stop-color="#17A306"
       id="stop6" /><stop
       offset="0.9507"
       stop-color="#33740C"
       id="stop7" /><stop
       offset="1"
       stop-color="#366E0D"
       id="stop8" /></linearGradient><radialGradient
     id="paint3_radial-0"
     cx="0"
     cy="0"
     r="1"
     gradientUnits="userSpaceOnUse"
     gradientTransform="matrix(-296.86681,136.44305,-57.756763,-125.66463,370.50166,506.41693)"><stop
       stop-color="#440063"
       stop-opacity="0.25"
       id="stop20-9" /><stop
       offset="1"
       stop-color="#420061"
       stop-opacity="0"
       id="stop21-4" /></radialGradient><radialGradient
     id="paint2_radial-8"
     cx="0"
     cy="0"
     r="1"
     gradientUnits="userSpaceOnUse"
     gradientTransform="matrix(-122.69015,250.12123,-128.18139,-62.875879,497.42833,237.5346)"><stop
       stop-color="#FBE07A"
       stop-opacity="0.75"
       id="stop15-8" /><stop
       offset="0.0803394"
       stop-color="#FBE387"
       stop-opacity="0.6897"
       id="stop16-2" /><stop
       offset="0.5173"
       stop-color="#FDF2C7"
       stop-opacity="0.362"
       id="stop17-4" /><stop
       offset="0.8357"
       stop-color="#FFFBF0"
       stop-opacity="0.1233"
       id="stop18-5" /><stop
       offset="1"
       stop-color="white"
       stop-opacity="0"
       id="stop19-5" /></radialGradient><linearGradient
     id="paint1_linear-1"
     x1="15.2501"
     y1="0.62542599"
     x2="7.4344301"
     y2="23.6215"
     gradientUnits="userSpaceOnUse"
     gradientTransform="matrix(33.333333,0,0,33.333333,-17.638332,-61.0664)"><stop
       offset="0.2544"
       stop-color="#90D856"
       id="stop9-7" /><stop
       offset="0.736"
       stop-color="#00CC00"
       id="stop10-1" /><stop
       offset="0.7716"
       stop-color="#0BCD07"
       id="stop11-1" /><stop
       offset="0.8342"
       stop-color="#29CF18"
       id="stop12-5" /><stop
       offset="0.9166"
       stop-color="#59D335"
       id="stop13-2" /><stop
       offset="1"
       stop-color="#90D856"
       id="stop14-7" /></linearGradient><linearGradient
     id="paint0_linear-6"
     x1="15.825"
     y1="-13.9667"
     x2="9.8253298"
     y2="23.917101"
     gradientUnits="userSpaceOnUse"
     gradientTransform="matrix(33.333333,0,0,33.333333,-17.638332,-61.0664)"><stop
       stop-color="#00CC00"
       id="stop4-1" /><stop
       offset="0.1878"
       stop-color="#06C102"
       id="stop5-4" /><stop
       offset="0.5185"
       stop-color="#17A306"
       id="stop6-2" /><stop
       offset="0.9507"
       stop-color="#33740C"
       id="stop7-3" /><stop
       offset="1"
       stop-color="#366E0D"
       id="stop8-2" /></linearGradient></defs><sodipodi:namedview
   id="namedview8"
   pagecolor="#ffffff"
   bordercolor="#000000"
   borderopacity="0.25"
   inkscape:showpageshadow="2"
   inkscape:pageopacity="0.0"
   inkscape:pagecheckerboard="0"
   inkscape:deskcolor="#d1d1d1"
   inkscape:zoom="1.4142136"
   inkscape:cx="189.50461"
   inkscape:cy="264.10438"
   inkscape:window-width="1920"
   inkscape:window-height="1057"
   inkscape:window-x="-8"
   inkscape:window-y="-8"
   inkscape:window-maximized="1"
   inkscape:current-layer="Layer_1" />
<style
   type="text/css"
   id="style1">
	.st0{fill:#77AA99;}
	.st1{fill:#5B8275;}
	.st2{fill:#FFFFFF;}
	.st3{fill:#215896;}
	.st4{fill:#66C3FA;}
	.st5{fill:#235997;}
	.st6{fill:#58B6F0;}
</style>








<path
   id="path8"
   style="fill:#4e4e4e;fill-opacity:1;stroke:#518374;stroke-width:18.668;stroke-dasharray:none;stroke-opacity:1"
   class="st0"
   d="m 537.6374,257.27983 c -26.00491,97.05163 -88.67924,247.1698 -88.67924,247.1698 L 124.42985,464.82698 c 0,0 -76.72957,-138.36476 -115.0943503,-207.54715 -0.002,-0.004 -0.002,0.0156 0,0.0121 C 47.70028,188.10954 124.42985,49.744762 124.42985,49.744762 l 324.52831,-39.62264 c 0,0 62.61506,149.896948 88.67924,247.169798 0.001,0.004 0.001,-0.016 0,-0.0121 z"
   sodipodi:nodetypes="sccssccss" /><g
   id="g1"
   transform="matrix(0.56816334,0,0,0.56816334,71.407057,69.162415)"><path
     d="m 146.35767,347.50026 c -21.14267,0 -42.28567,8.76334 -57.333336,25.90667 -13.523667,15.23667 -20.190334,34.85667 -18.857,55.23667 1.333333,20.37999 10.476333,38.85666 25.714333,52.37999 l 136.952333,120.19 c 13.90467,12.19334 31.80967,19.05 50.28566,19.05 2.09534,0 4.19067,0 6.28567,-0.19 20.57167,-1.71666 39.80967,-11.81 52.763,-27.81 L 677.59499,181.5956 c 26.66667,-32.57134 21.71667,-80.76167 -10.85666,-107.428335 -15.81,-12.762 -35.62,-18.857333 -55.81,-16.762 -20.19,2.095334 -38.47667,11.809667 -51.42667,27.619 L 273.977,434.35693 l -77.524,-68 c -14.28567,-12.57 -32.381,-18.85667 -50.09533,-18.85667 z"
     fill="url(#paint0_linear)"
     id="path1"
     style="fill:url(#paint0_linear-6);stroke-width:33.3333" /><path
     d="m 283.12133,606.54693 c -15.238,0 -29.90466,-5.52334 -41.33333,-15.62 l -136.95233,-120.19 C 78.931,447.88026 76.264334,408.26026 99.121333,382.35693 121.97867,356.45026 161.59767,353.7836 187.50233,376.6436 L 275.693,453.97693 569.97833,93.594598 c 21.90333,-26.856999 61.33333,-30.666666 88.19,-8.952333 26.85666,21.904665 30.66666,61.333335 8.95333,88.190335 l -335.62,410.66766 c -10.66666,13.14333 -26.47566,21.33333 -43.23733,22.85667 -1.71433,0 -3.42867,0.19 -5.143,0.19 z"
     fill="url(#paint1_linear)"
     id="path2"
     style="fill:url(#paint1_linear-1);stroke-width:33.3333" /><path
     opacity="0.75"
     d="m 283.12133,606.54693 c -15.238,0 -29.90466,-5.52334 -41.33333,-15.62 l -136.95233,-120.19 C 78.931,447.88026 76.264334,408.26026 99.121333,382.35693 121.97867,356.45026 161.59767,353.7836 187.50233,376.6436 L 275.693,453.97693 569.97833,93.594598 c 21.90333,-26.856999 61.33333,-30.666666 88.19,-8.952333 26.85666,21.904665 30.66666,61.333335 8.95333,88.190335 l -335.62,410.66766 c -10.66666,13.14333 -26.47566,21.33333 -43.23733,22.85667 -1.71433,0 -3.42867,0.19 -5.143,0.19 z"
     fill="url(#paint2_radial)"
     id="path3"
     style="fill:url(#paint2_radial-8);stroke-width:33.3333" /><path
     opacity="0.5"
     d="m 283.12133,606.54693 c -15.238,0 -29.90466,-5.52334 -41.33333,-15.62 l -136.95233,-120.19 C 78.931,447.88026 76.264334,408.26026 99.121333,382.35693 121.97867,356.45026 161.59767,353.7836 187.50233,376.6436 L 275.693,453.97693 569.97833,93.594598 c 21.90333,-26.856999 61.33333,-30.666666 88.19,-8.952333 26.85666,21.904665 30.66666,61.333335 8.95333,88.190335 l -335.62,410.66766 c -10.66666,13.14333 -26.47566,21.33333 -43.23733,22.85667 -1.71433,0 -3.42867,0.19 -5.143,0.19 z"
     fill="url(#paint3_radial)"
     id="path4"
     style="fill:url(#paint3_radial-0);stroke-width:33.3333" /></g></svg>
