<?xml version="1.0" encoding="UTF-8" standalone="no"?>
<!-- Created with Inkscape (http://www.inkscape.org/) -->

<svg
   width="53.22028mm"
   height="18.365267mm"
   viewBox="0 0 53.22028 18.365267"
   version="1.1"
   id="svg1471"
   inkscape:version="1.2.2 (b0a8486541, 2022-12-01)"
   sodipodi:docname="triple_red.svg"
   xmlns:inkscape="http://www.inkscape.org/namespaces/inkscape"
   xmlns:sodipodi="http://sodipodi.sourceforge.net/DTD/sodipodi-0.dtd"
   xmlns="http://www.w3.org/2000/svg"
   xmlns:svg="http://www.w3.org/2000/svg">
  <sodipodi:namedview
     id="namedview1473"
     pagecolor="#ffffff"
     bordercolor="#000000"
     borderopacity="0.25"
     inkscape:showpageshadow="2"
     inkscape:pageopacity="0.0"
     inkscape:pagecheckerboard="0"
     inkscape:deskcolor="#d1d1d1"
     inkscape:document-units="mm"
     showgrid="false"
     inkscape:zoom="0.98520767"
     inkscape:cx="231.42329"
     inkscape:cy="308.56439"
     inkscape:window-width="1920"
     inkscape:window-height="1011"
     inkscape:window-x="0"
     inkscape:window-y="0"
     inkscape:window-maximized="1"
     inkscape:current-layer="layer1" />
  <defs
     id="defs1468" />
  <g
     inkscape:label="Layer 1"
     inkscape:groupmode="layer"
     id="layer1"
     transform="translate(-9.6440053,-12.881102)">
    <path
       d="m 62.363358,15.103602 -2.247195,15.169444 c -7.249583,-1.068916 -14.664971,-1.61925 -22.214416,-1.61925 -8.583083,0 -17.003888,0.712611 -25.198916,2.084917 L 10.152248,15.622186 c 9.027583,-1.516945 18.295055,-2.300112 27.749499,-2.300112 8.311445,0 16.474722,0.610306 24.461611,1.781528"
       style="fill:#dd1b39;fill-opacity:1;fill-rule:nonzero;stroke:none;stroke-width:0.0352778"
       id="path388" />
    <path
       d="m 62.363358,15.103602 -2.247195,15.169444 c -7.249583,-1.068916 -14.664971,-1.61925 -22.214416,-1.61925 -8.583083,0 -17.003888,0.712611 -25.198916,2.084917 L 10.152248,15.622186 c 9.027583,-1.516945 18.295055,-2.300112 27.749499,-2.300112 8.311445,0 16.474722,0.610306 24.461611,1.781528 z"
       style="fill:none;stroke:#e2cdcc;stroke-width:0.881944;stroke-linecap:butt;stroke-linejoin:miter;stroke-miterlimit:10;stroke-dasharray:none;stroke-opacity:1"
       id="path390" />
  </g>
</svg>
